<?xml version="1.0" standalone="no"?>
<!DOCTYPE svg PUBLIC "-//W3C//DTD SVG 20010904//EN"
 "http://www.w3.org/TR/2001/REC-SVG-20010904/DTD/svg10.dtd">
<svg version="1.0" xmlns="http://www.w3.org/2000/svg"
 width="1024.000000pt" height="1024.000000pt" viewBox="0 0 1024.000000 1024.000000"
 preserveAspectRatio="xMidYMid meet">

<g transform="translate(0.000000,1024.000000) scale(0.100000,-0.100000)"
fill="#000000" stroke="none">
<path d="M0 5960 c0 -4273 0 -4280 20 -4280 13 0 20 7 20 20 0 18 7 20 60 20
33 0 60 4 60 10 0 6 18 10 40 10 33 0 40 3 40 20 0 16 7 20 38 20 26 0 42 6
52 20 11 15 26 20 62 20 26 0 48 5 48 10 0 6 18 10 40 10 22 0 40 5 40 10 0 6
18 10 40 10 22 0 40 5 40 10 0 6 18 10 40 10 22 0 40 5 40 10 0 6 8 10 19 10
10 0 21 9 24 20 4 15 14 20 40 20 20 0 39 5 42 10 3 6 31 10 61 10 30 0 54 5
54 10 0 6 18 10 40 10 22 0 40 5 40 10 0 6 9 10 20 10 11 0 20 5 20 10 0 6 14
10 30 10 17 0 30 5 30 10 0 6 9 10 20 10 11 0 20 5 20 10 0 6 23 10 50 10 28
0 50 5 50 10 0 6 27 10 60 10 33 0 60 4 60 10 0 6 18 10 40 10 22 0 40 5 40
10 0 6 18 10 40 10 22 0 40 5 40 10 0 6 14 10 30 10 17 0 30 5 30 10 0 6 8 10
18 10 10 0 24 9 32 20 12 16 26 20 72 20 32 0 58 4 58 10 0 6 18 10 40 10 33
0 40 3 40 20 0 18 7 20 60 20 33 0 60 4 60 10 0 6 18 10 40 10 22 0 40 5 40
10 0 6 18 10 40 10 22 0 40 5 40 10 0 6 9 10 20 10 11 0 20 6 20 14 0 9 19 15
57 19 32 3 59 11 61 17 2 5 12 10 23 10 10 0 19 5 19 10 0 6 9 10 20 10 11 0
20 5 20 10 0 6 9 10 20 10 11 0 20 5 20 10 0 6 27 10 60 10 33 0 60 4 60 10 0
6 27 10 60 10 53 0 60 2 60 20 0 17 7 20 40 20 22 0 40 5 40 10 0 6 9 10 20
10 11 0 20 5 20 10 0 6 9 10 20 10 11 0 20 5 20 10 0 6 9 10 20 10 13 0 20 7
20 20 0 18 7 20 60 20 53 0 60 2 60 20 0 18 7 20 60 20 53 0 60 2 60 20 0 17
7 20 40 20 22 0 40 5 40 10 0 6 9 10 20 10 11 0 20 -4 20 -10 0 -5 9 -10 20
-10 13 0 20 7 20 20 0 18 7 20 60 20 53 0 60 2 60 20 0 18 7 20 80 20 47 0 80
4 80 10 0 6 14 10 30 10 17 0 30 5 30 10 0 6 23 10 50 10 43 0 50 3 50 20 0
17 7 20 40 20 33 0 40 3 40 20 0 19 7 20 90 20 83 0 90 -1 90 -20 0 -11 5 -20
10 -20 6 0 10 9 10 20 0 18 7 20 77 20 65 0 80 3 100 22 29 27 40 17 25 -25
-18 -50 -15 -72 20 -135 44 -81 98 -162 107 -162 22 0 62 28 67 47 9 35 -5 46
-26 21 -23 -29 -36 -18 -45 40 -4 27 -3 42 4 42 6 0 8 -7 5 -15 -8 -20 18 -29
59 -21 46 9 67 26 69 58 1 17 11 31 26 37 22 11 23 11 5 36 -10 13 -23 25 -29
25 -20 0 -36 -28 -29 -52 l7 -23 -21 25 c-12 13 -31 39 -43 58 -13 21 -26 31
-35 28 -8 -3 -20 -6 -26 -6 -6 0 -2 -6 8 -14 17 -12 18 -18 7 -40 -15 -33 -42
-33 -71 -2 -21 23 -22 27 -10 63 18 52 36 65 82 58 30 -6 37 -4 37 9 0 11 -9
16 -27 16 -28 0 -28 1 -31 73 -2 63 1 78 19 101 20 26 22 26 40 10 19 -17 19
-17 -1 -31 -19 -13 -27 -52 -14 -66 3 -3 18 7 32 23 48 51 50 56 40 73 -7 13
-3 18 18 23 23 6 34 -1 82 -51 45 -47 56 -64 60 -100 2 -24 10 -46 18 -49 10
-4 13 8 12 52 0 31 0 63 1 70 2 22 32 13 61 -18 34 -37 50 -38 50 -5 0 14 5
25 10 25 6 0 10 -7 10 -16 0 -13 7 -15 36 -11 29 5 43 1 76 -24 23 -16 45 -29
50 -29 15 0 9 27 -13 54 -14 17 -19 35 -15 49 3 13 -1 36 -10 51 -13 26 -13
31 0 45 9 10 13 26 9 39 -3 12 -1 28 5 35 6 7 9 23 5 35 -4 17 1 24 21 32 29
11 30 14 16 40 -6 11 -17 16 -28 13 -10 -2 -26 5 -36 16 -23 25 -16 37 12 22
28 -15 34 -3 15 30 -14 23 -15 31 -5 41 17 17 15 38 -3 38 -17 0 -20 25 -5 35
6 3 10 10 10 16 0 16 -24 10 -50 -13 -20 -18 -39 -24 -92 -26 -41 -2 -68 1
-68 7 0 13 -60 -4 -78 -23 -27 -27 -7 -46 46 -46 54 0 132 -23 144 -43 9 -14
1 -45 -16 -66 -6 -8 -11 -35 -11 -60 0 -41 -3 -48 -31 -61 -17 -9 -43 -25 -58
-37 -25 -20 -30 -21 -68 -7 -22 8 -48 14 -57 14 -26 -1 27 -40 54 -40 22 0 40
-22 28 -34 -24 -24 -160 41 -149 71 3 8 -4 18 -19 25 -14 6 -25 15 -25 20 0 4
-12 8 -27 8 -25 -1 -26 -2 -10 -14 23 -18 22 -42 -4 -49 -30 -8 -48 1 -42 23
4 14 -2 21 -20 25 -14 4 -34 4 -44 1 -14 -4 -27 8 -56 54 -62 97 -78 182 -59
309 10 66 32 65 26 -1 -4 -39 -2 -49 6 -38 22 32 47 155 29 144 -15 -9 -30 27
-34 78 -5 66 1 88 25 88 22 0 31 22 24 59 -5 21 0 34 17 50 12 11 19 24 15 28
-11 11 -41 -11 -44 -33 -3 -19 -26 -74 -44 -104 -4 -8 -13 -28 -20 -44 -10
-27 -12 -28 -25 -11 -7 11 -13 29 -13 42 0 35 36 100 59 106 17 4 20 13 19 54
0 27 3 75 7 106 6 49 11 58 31 63 17 4 24 13 24 30 0 33 -22 30 -42 -7 -11
-18 -22 -27 -29 -23 -7 4 -74 6 -150 6 -132 -2 -139 -1 -139 18 0 17 -7 20
-40 20 -33 0 -40 3 -40 20 0 13 -7 20 -20 20 -13 0 -20 7 -20 20 0 13 -7 20
-20 20 -17 0 -20 7 -20 40 0 42 -4 45 -57 40 -20 -1 -23 3 -23 39 0 34 -3 41
-20 41 -17 0 -20 7 -20 40 0 33 -3 40 -20 40 -13 0 -20 7 -20 20 0 13 -7 20
-20 20 -18 0 -20 7 -20 80 0 73 2 80 20 80 13 0 20 7 20 20 0 17 7 20 40 20
33 0 40 3 40 20 0 13 7 20 20 20 13 0 20 7 20 20 0 13 7 20 20 20 13 0 20 7
20 20 0 13 7 20 20 20 13 0 20 7 20 20 0 17 7 20 40 20 33 0 40 3 40 20 0 13
7 20 20 20 15 0 20 7 20 25 0 29 79 115 105 115 8 0 15 5 15 10 0 6 18 10 40
10 33 0 40 3 40 20 0 13 7 20 20 20 13 0 20 7 20 20 0 13 7 20 20 20 13 0 20
7 20 20 0 11 5 20 10 20 6 0 10 9 10 20 0 11 5 20 10 20 6 0 10 9 10 20 0 16
7 20 38 20 26 0 42 6 52 20 8 11 21 20 30 20 9 0 22 9 30 20 8 11 22 20 32 20
16 0 18 10 18 80 l0 80 60 0 60 0 0 60 c0 53 -2 60 -20 60 -17 0 -20 7 -20 40
0 33 -3 40 -20 40 -13 0 -20 7 -20 20 0 13 -7 20 -20 20 -16 0 -20 7 -20 35 0
28 -4 35 -20 35 -11 0 -20 4 -20 9 0 5 -12 11 -27 13 -22 2 -29 9 -31 31 -2
15 -7 27 -12 27 -5 0 -30 20 -54 45 -25 25 -52 45 -61 45 -12 0 -15 13 -15 60
0 53 -2 60 -20 60 -13 0 -20 7 -20 20 0 13 -7 20 -20 20 -17 0 -20 7 -20 40
l0 40 -60 0 c-53 0 -60 2 -60 20 0 13 -7 20 -20 20 -13 0 -20 7 -20 20 0 11
-4 20 -10 20 -5 0 -10 -6 -10 -14 0 -9 -11 -13 -32 -12 l-33 1 3 -49 c1 -28
11 -65 22 -83 11 -19 20 -43 20 -54 0 -31 -40 -111 -53 -106 -7 2 -15 28 -18
58 -3 30 -11 70 -18 90 -6 20 -13 59 -15 85 -2 43 -5 49 -23 46 -32 -4 -36 25
-7 51 52 48 99 239 75 301 -6 17 -9 16 -18 -10 -6 -16 -16 -49 -23 -74 -6 -25
-23 -79 -36 -120 -13 -41 -24 -85 -24 -97 0 -13 -4 -23 -10 -23 -14 0 -29 -34
-35 -79 -4 -29 1 -51 15 -78 13 -25 20 -57 20 -96 0 -68 -10 -92 -43 -101 -20
-5 -22 -11 -19 -39 5 -45 -21 -57 -44 -22 -34 52 -23 245 16 272 15 11 16 18
7 57 -8 37 -7 50 12 88 11 24 21 52 21 62 0 10 10 47 22 83 18 51 20 68 10 83
-9 14 -8 20 1 24 9 5 9 7 0 12 -7 3 -13 14 -13 25 0 12 -7 19 -20 19 -11 0
-20 5 -20 10 0 6 -9 10 -20 10 -18 0 -20 7 -20 60 0 33 -4 60 -10 60 -5 0 -10
9 -10 20 0 11 -4 20 -10 20 -5 0 -10 9 -10 20 0 11 -4 20 -10 20 -5 0 -10 14
-10 30 0 17 -4 30 -10 30 -5 0 -10 7 -10 15 0 9 -9 26 -20 37 -15 17 -17 24
-8 30 9 5 8 8 -5 8 -10 0 -29 11 -43 25 -14 14 -29 25 -34 25 -6 0 -10 9 -10
20 0 11 -4 20 -10 20 -5 0 -10 9 -10 20 0 13 -7 20 -20 20 -16 0 -20 7 -20 33
0 26 -6 36 -25 45 -14 6 -32 9 -40 6 -10 -4 -15 0 -15 15 0 17 -6 21 -30 21
-19 0 -30 5 -30 14 0 9 7 12 20 9 11 -3 20 -3 20 0 0 3 -26 13 -57 23 -61 19
-83 34 -83 56 0 8 -9 20 -20 28 -11 8 -20 25 -20 37 0 13 -6 23 -12 24 -7 1
-2 4 12 9 l25 7 -27 8 c-34 9 -36 23 -5 34 12 4 148 13 302 20 288 13 345 18
345 31 0 4 -9 10 -21 13 -11 3 -23 15 -26 26 -7 27 -45 34 -178 33 -163 -2
-334 37 -390 88 -32 30 -94 63 -136 73 -14 4 -40 19 -57 34 -84 75 -99 83
-145 83 -31 0 -47 5 -51 15 -3 8 -12 15 -21 15 -18 0 -20 26 -2 33 9 4 9 6 0
6 -23 2 -14 21 10 21 12 0 28 4 36 9 11 7 10 11 -5 19 -18 10 -18 11 1 19 11
4 98 7 194 7 138 -1 177 -4 185 -15 7 -10 32 -15 74 -16 83 -1 116 -22 110
-69 -3 -28 -1 -34 15 -34 10 0 27 4 37 10 16 9 17 15 8 47 -5 21 -22 51 -36
67 l-27 29 25 -7 c14 -3 60 -11 103 -17 84 -11 286 2 362 23 22 6 93 12 158
13 64 1 120 5 123 8 3 3 -8 12 -24 21 -47 24 -46 40 4 65 62 29 48 44 -32 36
-80 -9 -114 -1 -114 25 0 54 174 64 332 18 34 -10 38 -9 61 18 24 28 30 29
119 32 62 2 125 -4 188 -16 98 -20 100 -24 16 -38 -27 -5 -51 -14 -53 -21 -5
-13 34 -19 159 -27 70 -4 78 -2 83 15 5 16 16 19 60 19 30 0 76 -5 104 -11 27
-6 63 -9 78 -7 21 3 8 8 -47 22 -41 9 -93 20 -114 22 -48 6 -56 11 -56 30 0
11 15 14 68 14 69 -1 109 -8 202 -35 84 -25 290 -38 378 -24 52 9 76 9 84 1 8
-8 0 -13 -25 -17 -20 -4 -41 -13 -47 -20 -6 -8 -29 -16 -51 -20 -47 -8 -50
-19 -8 -34 45 -16 66 -14 88 8 11 11 39 31 63 44 26 15 42 30 40 40 -5 27 47
59 88 53 19 -3 61 -8 92 -12 54 -6 56 -5 60 17 3 21 -5 27 -72 52 -79 29 -100
46 -100 83 0 20 4 22 40 17 67 -9 95 34 42 64 -22 13 -32 30 -45 77 l-16 61
34 31 c19 17 35 34 35 38 0 8 -33 0 -72 -19 -24 -11 -31 -10 -62 11 -20 14
-50 24 -69 24 -19 0 -40 7 -47 15 -7 8 -21 15 -31 15 -11 0 -19 5 -19 10 0 6
5 10 12 10 6 0 50 19 97 42 l86 43 289 0 c215 0 293 -3 305 -12 22 -17 41 -16
41 2 0 12 7 15 33 10 19 -3 60 2 102 15 106 30 131 28 176 -20 22 -22 42 -53
45 -68 11 -44 20 -50 67 -41 23 4 62 8 87 9 25 0 78 13 120 30 51 20 93 29
130 30 48 0 226 -28 286 -46 36 -10 36 13 2 40 -31 24 -31 26 -10 26 36 0 161
71 193 109 29 35 29 35 73 23 24 -6 62 -23 83 -38 38 -26 40 -26 208 -24 291
4 393 -4 461 -34 51 -22 71 -25 147 -23 88 2 88 2 118 -31 16 -18 29 -41 29
-52 0 -19 -1 -19 -42 4 -39 21 -47 22 -88 11 -37 -10 -42 -14 -25 -20 11 -4
39 -16 61 -25 69 -30 103 -34 110 -15 6 14 10 13 29 -11 22 -27 25 -28 116
-28 107 0 185 18 269 63 59 31 70 30 82 -8 12 -39 251 -60 290 -24 12 10 42
18 78 21 50 4 60 2 60 -12 0 -9 5 -16 11 -16 6 0 8 9 3 23 -11 38 -26 49 -56
43 -56 -11 -106 35 -77 71 10 11 24 14 58 9 50 -7 71 -20 71 -46 0 -14 13 -18
67 -23 37 -4 73 -13 81 -20 11 -11 38 -13 126 -9 62 2 152 1 201 -3 73 -6 88
-10 92 -26 3 -10 13 -20 22 -23 9 -2 26 -7 39 -11 l22 -6 0 715 0 716 -164 0
c-134 0 -165 -3 -169 -15 -8 -20 -86 -70 -95 -60 -4 4 -2 10 5 12 20 7 63 44
63 54 0 5 -69 9 -161 9 l-161 0 2 -27 c3 -48 1 -53 -34 -70 -21 -10 -32 -21
-29 -29 6 -15 -35 -34 -70 -34 l-22 1 24 19 c28 24 21 25 -22 3 -37 -19 -223
-83 -241 -83 -7 0 -34 -11 -60 -25 -55 -29 -127 -49 -256 -69 -52 -9 -120 -25
-150 -35 -53 -20 -55 -20 -71 -2 -14 17 -18 17 -42 5 -18 -10 -43 -12 -83 -8
-55 7 -56 8 -76 53 -18 42 -18 46 -3 58 19 13 12 33 -12 33 -9 0 -31 9 -49 21
-63 39 -158 10 -414 -127 -46 -24 -66 -29 -125 -29 -38 0 -79 6 -90 12 -17 11
-10 12 46 13 44 0 70 5 78 14 9 11 1 15 -49 20 -34 4 -76 2 -99 -4 -22 -6 -53
-9 -69 -8 -16 1 -49 -8 -73 -19 -94 -47 -154 -64 -181 -54 -30 11 -238 -1
-283 -17 -16 -6 -52 -16 -80 -22 -30 -7 -61 -22 -77 -38 -14 -15 -33 -33 -43
-40 -31 -26 -10 -37 79 -43 93 -6 118 -18 100 -46 -7 -11 -48 -23 -133 -39
-67 -12 -130 -25 -139 -29 -9 -4 -63 -11 -119 -15 -90 -7 -106 -11 -133 -34
-36 -29 -41 -30 -85 -15 -28 10 -39 8 -90 -15 -69 -31 -85 -32 -85 -6 0 26
-75 80 -111 80 -16 0 -46 9 -68 21 -31 16 -55 20 -108 18 -78 -2 -142 9 -161
28 -16 16 -32 17 -32 3 0 -6 11 -15 24 -20 33 -12 53 -48 32 -56 -14 -5 -76
32 -76 46 0 12 -161 20 -181 9 -35 -19 -19 -29 46 -29 66 0 158 -33 186 -66 6
-8 24 -14 40 -14 15 0 32 -7 37 -16 7 -12 14 -14 28 -6 15 8 40 0 114 -36 l95
-46 244 -2 c239 -2 245 -1 300 23 31 14 65 28 76 33 11 5 59 12 108 15 68 5
89 11 97 24 5 10 26 23 48 30 33 11 43 11 70 -3 16 -8 55 -19 86 -22 31 -4 56
-11 56 -15 0 -5 -15 -15 -32 -23 l-33 -14 50 -2 c46 -1 49 -2 31 -15 -11 -8
-32 -15 -46 -15 -14 0 -31 -5 -36 -10 -17 -17 -163 -18 -173 -1 -7 11 -26 12
-97 5 l-89 -9 60 -3 60 -4 -60 -20 c-52 -17 -94 -22 -242 -27 -13 -1 -31 -9
-41 -19 -10 -10 -27 -22 -38 -26 -33 -13 -295 -56 -342 -56 -61 0 -170 -18
-207 -35 -59 -26 -117 -36 -223 -38 -108 -2 -163 10 -112 24 14 4 53 7 87 8
78 1 158 18 174 37 13 16 9 17 -55 14 -37 -2 -38 0 -34 24 4 21 1 27 -19 32
-49 13 -146 -15 -204 -58 -13 -9 -37 -8 -110 5 -166 28 -385 41 -679 40 -249
-2 -291 -4 -334 -20 -27 -10 -51 -24 -54 -32 -3 -9 6 -7 29 6 28 14 63 18 188
21 158 4 267 -5 476 -39 126 -20 315 -75 315 -92 0 -5 -12 -6 -27 -2 -62 16
-270 21 -458 11 -198 -11 -200 -11 -212 -36 -7 -14 -13 -42 -13 -62 0 -27 -4
-38 -15 -38 -10 0 -15 11 -15 35 0 40 -3 41 -54 20 -26 -11 -42 -13 -56 -5
-23 13 -30 13 -30 0 0 -5 11 -12 25 -16 41 -10 50 -31 52 -128 2 -101 -12
-146 -56 -174 -14 -9 -32 -22 -39 -29 -17 -16 -29 -16 -38 -2 -4 7 1 16 10 21
14 8 8 17 -41 64 -38 36 -63 52 -73 48 -43 -19 -68 -16 -85 10 -15 23 -15 31
-4 77 l13 51 38 -6 c30 -5 39 -2 47 12 13 24 1 41 -34 47 -26 5 -32 2 -45 -27
-10 -23 -22 -33 -38 -34 -13 -1 -30 -11 -38 -23 -16 -22 -44 -29 -44 -10 0 5
-4 7 -10 4 -5 -3 -10 -17 -10 -30 0 -45 -21 -75 -62 -85 -21 -6 -38 -17 -38
-25 0 -50 -242 -12 -308 49 -37 33 -64 75 -57 87 5 7 19 0 39 -20 43 -42 129
-79 211 -90 73 -11 87 -8 79 14 -3 8 4 19 18 26 73 39 90 114 41 188 -17 26
-37 43 -52 46 -15 3 -44 10 -66 17 -113 32 -191 5 -243 -84 -18 -32 -39 -58
-47 -58 -21 0 -63 21 -135 67 -87 55 -110 78 -110 106 0 13 -7 32 -15 43 -14
19 -15 19 -21 -3 -3 -13 -9 -23 -13 -24 -3 0 -23 -2 -45 -4 -21 -2 -48 1 -59
7 -11 5 -50 14 -86 19 -231 32 -398 49 -481 49 -117 0 -245 20 -357 56 -75 24
-92 34 -142 84 -31 31 -71 65 -88 75 -18 11 -33 25 -33 32 0 7 21 28 48 48 72
53 101 44 67 -21 -14 -28 -14 -28 23 -42 20 -8 55 -19 77 -24 22 -6 67 -19
100 -29 147 -45 278 -69 373 -69 120 0 266 -15 342 -35 66 -17 130 -20 212
-10 43 6 62 4 75 -6 9 -8 34 -14 56 -15 32 0 46 -7 68 -32 29 -32 29 -32 152
-39 83 -4 134 -2 158 6 43 14 62 8 79 -24 10 -19 26 -26 81 -36 38 -7 72 -9
75 -6 13 13 -17 35 -56 41 -35 5 -40 10 -49 43 -6 20 -8 39 -6 43 6 10 -25 36
-54 45 l-24 7 24 14 c13 7 39 13 57 14 27 0 35 5 43 30 11 29 17 33 76 45 18
4 35 11 38 16 9 14 -58 11 -80 -4 -11 -7 -27 -12 -35 -11 -8 1 -34 2 -58 3
-27 1 -41 5 -37 11 4 7 -2 9 -19 4 -17 -4 -42 1 -71 15 -27 12 -65 21 -94 21
-27 0 -60 4 -73 9 -13 4 -54 11 -93 15 -38 4 -144 18 -235 32 -91 14 -199 29
-240 35 -75 9 -247 44 -370 75 -75 19 -166 56 -440 178 -224 100 -259 120
-317 175 -23 21 -43 37 -46 35 -3 -3 -9 8 -15 24 -8 23 -18 31 -45 36 -19 3
-44 15 -56 25 -21 18 -20 18 51 26 108 10 446 6 492 -6 23 -6 52 -17 66 -24
28 -15 100 -48 145 -66 19 -8 89 -13 185 -14 123 -2 163 -6 195 -20 22 -9 68
-21 102 -26 35 -5 87 -21 116 -36 45 -24 66 -28 160 -32 77 -2 121 1 155 12
126 40 253 44 368 11 70 -20 80 -29 122 -114 35 -72 40 -76 104 -109 57 -28
78 -33 140 -34 40 0 83 3 96 7 38 13 19 31 -37 34 -43 3 -54 7 -58 23 -4 15
-14 19 -52 19 -50 0 -121 17 -121 28 0 8 72 32 98 32 10 0 23 -5 30 -12 9 -9
17 -7 36 11 23 21 29 22 114 16 61 -5 92 -4 96 4 4 6 -3 12 -16 15 -13 3 -47
10 -77 16 -73 14 -115 36 -151 76 -33 39 -41 40 -75 18 -43 -28 -99 -36 -140
-18 -46 19 -39 30 8 13 32 -11 40 -10 94 16 32 16 60 31 62 32 2 2 -7 25 -20
53 -23 46 -26 49 -63 50 -36 0 -92 26 -123 56 -27 26 -167 30 -268 7 -45 -10
-78 -6 -70 8 4 5 -20 9 -54 9 -41 0 -60 -4 -58 -12 3 -15 -51 -26 -83 -18
l-25 7 30 7 c52 13 51 14 -11 15 -43 1 -65 -3 -74 -14 -19 -23 -112 -47 -167
-43 -44 3 -48 5 -51 31 l-3 27 -115 0 -115 0 -19 -45 c-18 -42 -22 -45 -57
-45 -21 0 -62 9 -91 20 -30 11 -76 25 -104 31 -27 6 -52 17 -55 25 -4 12 -196
14 -1284 14 l-1279 0 0 -4280z m4005 4186 c13 -14 32 -26 41 -28 10 -2 19 -9
22 -17 4 -11 -3 -12 -34 -7 -50 9 -98 37 -102 59 -5 26 44 21 73 -7z m-725 -6
c13 -9 12 -12 -4 -25 -11 -8 -18 -15 -15 -16 43 -7 57 -14 75 -36 l21 -26 168
6 c213 9 209 -6 -15 -54 -25 -6 -91 -7 -150 -3 -100 6 -109 9 -192 52 -47 26
-84 50 -82 54 2 3 18 6 34 6 16 -1 42 8 57 18 23 16 48 25 83 33 3 0 12 -4 20
-9z m6515 0 c-3 -5 -15 -10 -26 -10 -11 0 -17 5 -14 10 3 6 15 10 26 10 11 0
17 -4 14 -10z m-65 -15 c0 -12 -86 -45 -115 -44 -50 0 -15 15 113 48 1 1 2 -1
2 -4z m-5850 -75 c0 -13 -46 -24 -67 -16 -15 6 -15 8 -3 16 20 13 70 13 70 0z
m4423 -62 c9 -13 24 -32 32 -43 18 -23 19 -37 4 -52 -12 -12 -4 -33 12 -33 5
0 14 11 19 25 13 33 40 33 40 0 0 -18 -7 -26 -25 -31 -14 -3 -25 -10 -25 -15
0 -12 -47 -11 -55 1 -3 6 -17 10 -31 10 -14 0 -48 7 -76 17 -56 18 -84 14
-223 -34 -38 -13 -84 -28 -102 -32 -17 -5 -51 -18 -75 -28 -47 -22 -122 -39
-210 -48 -32 -4 -60 -11 -63 -16 -8 -12 -95 -12 -95 0 0 17 64 31 241 54 30 4
109 33 380 138 15 6 31 21 37 33 6 13 34 37 64 55 64 37 121 37 151 -1z
m-7676 -20 c-3 -8 -6 -5 -6 6 -1 11 2 17 5 13 3 -3 4 -12 1 -19z m3516 -37 c8
-8 -1 -11 -30 -11 -37 0 -71 19 -57 32 7 8 74 -8 87 -21z m3102 -95 c48 -13
48 -17 0 -30 -11 -3 -51 -17 -90 -30 -68 -25 -142 -32 -178 -17 -16 6 -16 9
-5 18 7 6 24 13 38 16 55 11 185 51 185 56 0 0 23 -6 50 -13z m922 -2 c8 -20
-9 -31 -62 -39 -23 -3 -86 -21 -139 -40 -53 -19 -102 -35 -109 -35 -25 0 21
29 88 54 39 15 92 38 120 51 57 29 93 32 102 9z m303 1 c-13 -16 -40 -20 -40
-7 0 14 12 22 33 22 16 0 17 -3 7 -15z m110 0 c0 -5 -89 -45 -102 -45 -6 0
-47 -18 -91 -39 -73 -35 -88 -39 -134 -34 -29 3 -53 9 -53 13 0 4 46 20 103
34 56 15 134 38 172 50 70 23 105 30 105 21z m-745 -124 c-3 -5 -20 -13 -38
-17 -17 -3 -41 -13 -52 -20 -23 -16 -54 -19 -39 -4 9 9 108 48 127 49 5 1 6
-3 2 -8z m350 -31 c-3 -5 -11 -10 -16 -10 -6 0 -7 5 -4 10 3 6 11 10 16 10 6
0 7 -4 4 -10z m-7620 -20 c3 -5 2 -10 -4 -10 -5 0 -13 5 -16 10 -3 6 -2 10 4
10 5 0 13 -4 16 -10z m6961 -5 c10 -8 28 -15 39 -15 16 0 17 -2 6 -9 -13 -8
-51 -7 -108 5 -41 8 -23 29 28 33 8 0 24 -6 35 -14z m-6818 -63 c5 -30 -24
-39 -49 -16 -20 18 -20 18 3 31 30 16 42 12 46 -15z m5416 -33 c48 -13 35 -32
-20 -27 -27 2 -40 8 -42 21 -4 20 8 21 62 6z m1580 2 c3 -5 -7 -11 -22 -15
-15 -3 -67 -17 -117 -30 -99 -28 -136 -33 -118 -15 6 6 62 23 124 39 135 34
126 32 133 21z m-829 -41 c3 -5 -3 -10 -14 -10 -12 0 -21 5 -21 10 0 6 6 10
14 10 8 0 18 -4 21 -10z m-6137 -48 c9 -3 38 -4 65 -4 48 2 57 -7 38 -37 -8
-12 -16 -12 -58 -1 -64 18 -123 49 -123 65 0 23 24 24 43 2 10 -12 26 -23 35
-25z m2457 23 c55 -9 163 -16 240 -16 90 0 167 -5 216 -16 76 -16 162 -12 174
8 4 5 19 9 36 9 24 0 29 -4 29 -24 0 -28 -33 -56 -65 -56 -11 0 -43 -17 -70
-38 -28 -21 -58 -41 -67 -45 -21 -7 -48 17 -48 42 0 10 -6 23 -12 28 -7 6 -91
13 -186 17 -112 4 -184 12 -205 21 -48 20 -126 42 -182 50 -59 8 -72 14 -54
26 20 13 82 11 194 -6z m3070 -35 c-3 -5 -19 -10 -35 -10 -16 0 -32 5 -35 10
-4 6 10 10 35 10 25 0 39 -4 35 -10z m-4069 -46 c7 -27 -20 -78 -39 -71 -6 2
-19 14 -29 28 -22 29 -15 57 16 69 29 10 45 2 52 -26z m-1030 -110 c62 -25 85
-46 70 -62 -4 -4 -22 2 -39 12 -18 10 -63 22 -101 27 -72 9 -93 19 -82 38 12
19 84 12 152 -15z m1016 2 c17 -26 -63 -34 -88 -9 -16 17 -16 18 7 24 29 8 71
0 81 -15z m6586 9 c3 -2 2 -11 -1 -20 -5 -11 -21 -15 -61 -15 -57 0 -72 9 -62
37 5 13 16 15 63 9 31 -4 59 -9 61 -11z m198 -24 c-16 -3 -31 -12 -34 -20 -3
-10 3 -12 26 -7 24 6 35 2 57 -18 23 -22 25 -27 11 -32 -28 -11 -82 5 -112 32
-27 25 -27 27 -9 40 10 8 35 13 54 13 35 -1 35 -2 7 -8z m-7106 -46 c0 -9 -7
-18 -16 -22 -18 -7 -39 11 -30 26 11 17 46 13 46 -4z m-725 -15 c3 -6 -4 -10
-17 -10 -13 0 -36 -7 -52 -15 -35 -18 -79 -20 -74 -2 3 6 23 15 46 18 23 3 45
8 48 12 11 10 42 8 49 -3z m1269 -9 c48 -16 91 -19 262 -20 213 -2 339 -12
387 -30 16 -6 41 -11 55 -11 15 0 37 -7 48 -15 13 -9 52 -15 105 -17 89 -3
104 -13 76 -52 -12 -17 -16 -16 -78 12 -82 38 -228 53 -484 50 -176 -2 -182
-2 -260 26 -44 16 -84 33 -89 38 -6 4 -18 8 -27 8 -22 0 -89 29 -68 30 9 0 42
-8 73 -19z m1474 -163 c-3 -7 -11 -13 -18 -13 -7 0 -15 6 -17 13 -3 7 4 12 17
12 13 0 20 -5 18 -12z m-2358 -82 c0 -8 -4 -17 -9 -21 -5 -3 -7 -22 -4 -43 4
-25 2 -34 -5 -27 -5 6 -13 31 -16 58 -7 43 -5 47 13 47 12 0 21 -6 21 -14z
m3810 -526 c0 -5 -7 -10 -16 -10 -8 0 -12 5 -9 10 3 6 10 10 16 10 5 0 9 -4 9
-10z m-1490 -110 c0 -5 -6 -10 -12 -10 -7 0 -24 -3 -38 -6 -22 -4 -21 -3 5 10
37 18 45 19 45 6z m-421 -29 c15 -10 7 -31 -13 -31 -7 0 -21 -9 -30 -19 -25
-28 -92 -38 -115 -17 -14 13 -38 15 -141 11 -154 -5 -149 11 7 24 74 6 119 14
135 25 25 17 133 22 157 7z m-1749 -46 c0 -9 -7 -18 -16 -22 -18 -7 -39 11
-30 26 11 17 46 13 46 -4z m851 -718 c-8 -8 -14 -7 -23 2 -11 10 -9 15 7 27
18 13 20 13 23 -2 2 -9 -1 -21 -7 -27z m47 -134 c2 -8 -5 -13 -17 -13 -21 0
-35 13 -24 24 10 10 36 3 41 -11z m-10 -48 c8 -8 -10 -65 -19 -59 -5 3 -7 9
-4 14 3 5 -6 17 -20 26 -31 20 -22 38 14 29 14 -4 28 -8 29 -10z m-40 -169
c-3 -51 -10 -71 -32 -101 -20 -26 -31 -34 -39 -26 -8 8 -4 23 11 54 12 25 22
62 22 84 0 43 5 53 28 53 11 0 14 -13 10 -64z m-80 -229 c4 -31 -62 -137 -84
-137 -20 0 -8 67 17 93 9 11 23 32 30 48 14 35 33 33 37 -4z m712 -5 c0 -10
-6 -27 -14 -38 -13 -17 -15 -17 -21 -2 -7 18 10 58 25 58 6 0 10 -8 10 -18z
m-851 -264 c10 -28 2 -138 -10 -138 -5 0 -9 7 -9 15 0 22 -10 19 -47 -17 -18
-17 -36 -28 -40 -24 -12 11 32 81 53 84 11 2 24 11 31 19 10 13 9 21 -7 43
-25 35 -25 40 0 40 12 0 24 -9 29 -22z m875 -100 c12 -70 19 -281 9 -275 -6 4
-13 41 -16 84 -4 43 -9 111 -13 151 -5 47 -3 72 3 72 6 0 13 -15 17 -32z
m-904 -109 c18 -33 6 -51 -25 -37 -27 12 -32 27 -13 46 17 17 26 15 38 -9z
m-290 -202 c0 -7 -13 -26 -30 -42 -34 -33 -40 -17 -9 26 22 31 39 38 39 16z
m50 -16 c13 -34 8 -58 -21 -95 -22 -28 -63 -35 -72 -13 -3 7 8 30 24 52 16 21
29 46 29 55 0 39 24 39 40 1z m170 -51 c-12 -22 -40 -27 -40 -7 0 19 10 27 32
27 16 0 17 -3 8 -20z m975 -167 c-9 -43 -23 -116 -30 -162 -15 -89 -27 -113
-47 -93 -9 9 -9 21 0 49 6 21 14 60 17 86 4 27 17 90 30 140 13 51 27 110 31
132 l9 40 3 -57 c2 -31 -4 -92 -13 -135z m585 -40 c26 -15 50 -50 50 -74 0 -6
9 -31 21 -56 35 -77 7 -188 -44 -181 -18 2 -22 10 -24 46 -1 23 -9 49 -17 58
-15 14 -16 14 -16 -3 0 -13 -6 -8 -20 15 -15 24 -20 50 -20 100 0 114 12 130
70 95z m-350 -585 c0 -16 -3 -19 -11 -11 -6 6 -8 16 -5 22 11 17 16 13 16 -11z
m-2 -70 c-2 -31 -8 -44 -20 -46 -26 -5 -35 44 -13 68 27 30 36 24 33 -22z
m1307 -1808 c8 -13 -5 -13 -25 0 -13 8 -13 10 2 10 9 0 20 -4 23 -10z m65
-209 c0 -10 3 -33 6 -50 5 -23 3 -31 -8 -31 -11 0 -14 13 -14 50 1 27 4 50 9
50 4 0 7 -8 7 -19z m41 -113 c-10 -29 -51 -45 -51 -20 0 10 5 23 12 30 7 7 20
12 30 12 14 0 16 -5 9 -22z m-543 -15 c2 -8 -5 -13 -17 -13 -12 0 -21 6 -21
16 0 18 31 15 38 -3z m442 -7 c0 -8 -4 -18 -10 -21 -16 -10 -11 -35 7 -35 9 0
25 8 35 17 18 16 20 15 36 -8 9 -13 17 -28 17 -34 0 -15 -98 -12 -117 4 -20
16 -22 29 -8 65 10 28 40 36 40 12z m-494 -125 c-4 -20 -9 -53 -12 -74 -4 -20
-10 -40 -15 -43 -13 -8 -9 127 5 148 16 26 29 9 22 -31z"/>
<path d="M4108 10228 c17 -8 26 -8 34 0 9 9 4 12 -22 11 -33 0 -34 -1 -12 -11z"/>
<path d="M4182 10213 c6 -16 28 -48 48 -73 20 -25 44 -59 53 -77 12 -23 36
-41 84 -65 62 -30 76 -33 152 -31 90 1 123 15 77 33 -15 5 -48 10 -74 10 -26
0 -54 5 -62 10 -12 8 -9 10 12 10 15 0 39 5 53 12 20 9 31 8 50 -2 18 -10 50
-11 120 -7 114 8 124 -6 29 -37 -60 -20 -113 -56 -82 -56 8 0 29 5 47 11 28
10 35 9 55 -10 12 -11 30 -21 40 -21 28 0 76 29 78 48 5 68 -22 120 -77 147
-30 14 -36 13 -81 -6 -26 -12 -73 -23 -105 -25 -47 -3 -60 0 -75 17 -22 25
-11 49 31 64 22 8 29 6 41 -9 8 -11 17 -17 20 -13 12 12 -17 36 -55 47 -20 5
-62 10 -93 10 -66 0 -88 7 -88 26 0 11 -22 14 -105 14 l-105 0 12 -27z m218
-63 c0 -13 -11 -13 -30 0 -12 8 -11 10 8 10 12 0 22 -4 22 -10z m92 -50 c19
-34 11 -38 -38 -20 -18 7 -30 7 -40 -1 -17 -14 -77 -2 -71 14 2 7 21 12 43 12
21 -1 43 5 47 12 14 22 41 14 59 -17z"/>
<path d="M4428 10233 c12 -2 32 -2 45 0 12 2 2 4 -23 4 -25 0 -35 -2 -22 -4z"/>
<path d="M6391 10231 c-22 -14 -5 -41 27 -41 21 0 32 7 40 25 11 24 10 25 -21
25 -17 0 -38 -4 -46 -9z"/>
<path d="M6890 10225 c0 -9 -6 -18 -14 -21 -8 -3 -17 -17 -21 -31 -4 -19 -9
-22 -19 -13 -8 6 -17 22 -20 35 -7 29 -39 33 -70 10 -11 -8 -29 -15 -40 -16
-12 0 -34 -8 -51 -18 -23 -14 -31 -26 -33 -54 -3 -33 0 -38 39 -57 27 -14 80
-26 149 -34 99 -12 110 -15 134 -42 14 -16 26 -34 26 -41 0 -21 -43 -43 -85
-43 -25 0 -35 -3 -27 -9 16 -10 -52 -90 -106 -123 -44 -27 -27 -37 51 -31 41
4 57 10 57 20 0 8 9 17 20 20 10 3 22 14 25 24 10 30 85 75 137 83 66 10 78
29 39 62 -38 31 -38 37 -6 52 14 6 25 18 25 27 0 12 -15 15 -78 15 -98 0 -165
29 -170 73 -4 33 4 34 35 5 13 -12 33 -22 45 -24 13 -1 46 -4 73 -8 33 -4 65
-1 95 9 48 16 160 108 160 131 0 12 -32 14 -185 14 -159 0 -185 -2 -185 -15z
m-102 -73 c2 -8 -9 -12 -32 -12 -41 0 -46 7 -13 20 26 10 39 8 45 -8z"/>
<path d="M7277 10233 c-4 -3 -7 -13 -7 -22 0 -8 -30 -46 -67 -83 -37 -37 -64
-70 -61 -74 4 -3 26 7 50 24 24 16 64 38 89 50 30 12 52 30 60 48 9 19 29 34
59 46 l45 17 -81 0 c-44 1 -84 -2 -87 -6z"/>
<path d="M7967 10210 c19 -32 33 -39 33 -16 0 28 -12 46 -32 46 -19 0 -19 -1
-1 -30z"/>
<path d="M8633 10233 c9 -2 25 -2 35 0 9 3 1 5 -18 5 -19 0 -27 -2 -17 -5z"/>
<path d="M8767 10226 c-6 -14 -34 -22 -133 -35 -34 -4 -67 -12 -75 -17 -25
-15 52 -24 115 -13 67 12 85 4 67 -30 -11 -20 -9 -21 33 -21 l45 0 -27 -29
c-30 -33 -77 -56 -166 -81 -33 -9 -62 -22 -64 -28 -6 -18 23 -14 71 7 49 23
206 75 257 86 66 13 265 74 325 99 57 24 59 30 10 38 -18 3 -16 6 10 21 30 16
30 16 -55 16 -83 1 -157 -20 -174 -47 -14 -24 -190 -59 -214 -43 -8 4 -12 19
-10 31 3 23 10 28 58 48 22 10 20 11 -21 11 -31 1 -49 -4 -52 -13z"/>
<path d="M6116 10190 c-22 -3 -41 -11 -44 -17 -3 -10 15 -13 67 -12 39 1 73 5
76 9 7 12 -58 26 -99 20z"/>
<path d="M6240 10180 c0 -5 16 -10 35 -10 19 0 35 5 35 10 0 6 -16 10 -35 10
-19 0 -35 -4 -35 -10z"/>
<path d="M8415 10158 c-95 -27 -143 -33 -169 -18 -28 14 -98 9 -104 -7 -3 -9
12 -13 51 -13 45 0 57 -4 70 -22 l15 -23 49 24 c26 12 57 28 68 34 11 6 45 14
75 17 30 3 55 10 55 15 0 17 -37 15 -110 -7z"/>
<path d="M5608 10108 l-22 -22 30 -8 c34 -10 144 0 144 13 0 15 -58 39 -95 39
-23 0 -43 -8 -57 -22z"/>
<path d="M8577 10078 c-3 -24 -4 -44 -2 -46 2 -3 25 7 51 22 25 14 52 26 60
26 20 0 28 21 13 31 -8 5 -37 9 -65 9 l-51 0 -6 -42z"/>
<path d="M6093 10088 c2 -7 10 -13 17 -13 7 0 15 6 18 13 2 7 -5 12 -18 12
-13 0 -20 -5 -17 -12z"/>
<path d="M8500 10030 c0 -5 9 -10 21 -10 11 0 17 5 14 10 -3 6 -13 10 -21 10
-8 0 -14 -4 -14 -10z"/>
<path d="M6446 9982 c-4 -13 -20 -28 -34 -34 l-27 -12 24 -4 c30 -5 54 19 49
49 l-4 24 -8 -23z"/>
<path d="M5225 9976 c-5 -2 -50 -10 -100 -16 -93 -13 -122 -25 -162 -68 -30
-32 -29 -37 7 -52 60 -25 232 2 294 45 17 12 17 15 4 15 -9 0 -20 -4 -23 -10
-9 -15 -45 -12 -45 3 0 26 51 42 128 40 l75 -2 -21 22 c-17 16 -36 22 -84 24
-35 1 -67 1 -73 -1z m-170 -106 c-3 -5 -13 -10 -21 -10 -8 0 -14 5 -14 10 0 6
9 10 21 10 11 0 17 -4 14 -10z"/>
<path d="M7120 9940 c0 -5 12 -10 26 -10 14 0 23 4 19 10 -3 6 -15 10 -26 10
-10 0 -19 -4 -19 -10z"/>
<path d="M5995 9930 c-4 -6 5 -10 20 -10 15 0 24 4 20 10 -3 6 -12 10 -20 10
-8 0 -17 -4 -20 -10z"/>
<path d="M6090 9913 c-19 -3 -41 -9 -48 -15 -20 -17 -216 -28 -267 -15 l-30 7
24 -20 c14 -12 38 -20 58 -20 37 0 154 -52 212 -95 41 -30 69 -31 152 -6 35
11 93 23 129 27 36 3 79 13 95 21 17 8 52 18 79 24 49 9 76 24 76 40 0 13 -34
11 -47 -2 -17 -17 -113 -20 -120 -3 -7 19 -101 44 -166 44 -31 0 -59 5 -62 10
-6 10 -20 10 -85 3z"/>
<path d="M5658 9803 c6 -2 18 -2 25 0 6 3 1 5 -13 5 -14 0 -19 -2 -12 -5z"/>
<path d="M6553 9733 c-35 -14 -63 -29 -63 -34 0 -5 -6 -9 -14 -9 -20 0 -66
-39 -66 -56 0 -11 4 -12 18 -5 27 14 110 17 123 4 14 -14 74 2 106 27 13 10
38 21 58 24 19 4 37 11 40 16 11 18 -45 22 -97 6 -65 -20 -139 -25 -145 -10
-2 6 29 21 72 33 41 13 75 25 75 27 0 11 -51 0 -107 -23z"/>
<path d="M5477 9744 c-11 -11 3 -24 18 -18 8 4 12 10 9 15 -6 11 -18 12 -27 3z"/>
<path d="M5828 9705 c22 -20 50 -35 64 -35 25 0 78 21 78 31 0 3 -30 11 -67
18 -38 7 -78 14 -91 17 -19 4 -16 -1 16 -31z"/>
<path d="M5550 9686 c0 -2 7 -7 16 -10 8 -3 12 -2 9 4 -6 10 -25 14 -25 6z"/>
<path d="M5748 9683 c7 -3 16 -2 19 1 4 3 -2 6 -13 5 -11 0 -14 -3 -6 -6z"/>
<path d="M5472 9673 c-10 -4 -10 -8 -1 -19 15 -18 37 -18 55 1 14 13 14 15 1
15 -9 0 -21 2 -29 4 -7 3 -19 2 -26 -1z"/>
<path d="M6300 9660 c-12 -8 -10 -10 8 -10 13 0 20 4 17 10 -7 12 -6 12 -25 0z"/>
<path d="M5133 9601 c-40 -10 -80 -24 -88 -31 -13 -11 -18 -11 -24 -1 -14 22
-166 25 -276 6 -116 -20 -139 -32 -160 -81 -14 -33 -13 -37 7 -65 24 -32 43
-36 67 -15 28 25 175 46 320 46 75 0 141 4 147 8 6 4 14 17 18 30 11 33 51 48
146 56 82 7 84 6 67 -11 -13 -14 -38 -19 -100 -21 -82 -4 -121 -17 -76 -26 13
-2 49 -10 79 -16 46 -10 71 -9 148 5 51 10 105 15 121 12 31 -6 45 0 54 26 9
23 34 22 47 -3 14 -25 30 -26 30 -1 0 19 -18 31 -49 31 -10 0 -26 9 -36 21
-16 17 -28 19 -78 15 -33 -2 -64 -9 -70 -15 -6 -6 -19 -11 -28 -11 -12 0 -16
6 -12 21 4 12 0 25 -8 30 -23 15 -170 9 -246 -10z"/>
<path d="M4505 9510 c-3 -5 -2 -10 4 -10 5 0 13 5 16 10 3 6 2 10 -4 10 -5 0
-13 -4 -16 -10z"/>
<path d="M4333 9483 c9 -2 23 -2 30 0 6 3 -1 5 -18 5 -16 0 -22 -2 -12 -5z"/>
<path d="M4357 9383 c-9 -8 -9 -56 -1 -77 9 -24 46 -19 83 11 l32 27 -38 23
c-38 23 -64 29 -76 16z"/>
<path d="M6245 9340 c-16 -4 -52 -8 -80 -9 -53 -1 -96 -18 -103 -38 -5 -18 25
-16 32 2 3 8 17 15 31 15 46 0 165 23 165 31 0 10 -2 10 -45 -1z"/>
<path d="M5966 9315 c-4 -12 -1 -16 11 -13 18 3 21 20 5 26 -5 1 -12 -4 -16
-13z"/>
<path d="M4646 9175 c49 -35 74 -41 81 -18 5 13 -78 53 -110 53 -15 0 -8 -9
29 -35z"/>
<path d="M4505 9146 c-21 -32 -9 -52 24 -41 24 7 27 23 7 50 -13 18 -14 17
-31 -9z"/>
<path d="M4240 9091 c0 -20 17 -37 27 -28 7 8 -7 47 -18 47 -5 0 -9 -9 -9 -19z"/>
<path d="M6030 8960 c-25 -4 -48 -6 -52 -4 -4 3 -9 0 -12 -4 -3 -5 22 -12 55
-16 118 -12 388 -114 403 -151 6 -17 36 -9 36 10 0 24 -72 73 -154 105 -45 17
-104 40 -131 50 -53 21 -72 22 -145 10z"/>
<path d="M5895 8952 c-19 -13 -37 -42 -27 -42 17 0 56 36 46 43 -6 3 -14 3
-19 -1z"/>
<path d="M8221 8949 c-44 -13 -37 -16 28 -11 36 3 49 7 40 13 -17 10 -24 10
-68 -2z"/>
<path d="M5675 8890 c-18 -8 -17 -9 8 -9 16 -1 26 3 22 9 -3 6 -7 10 -8 9 -1
0 -11 -4 -22 -9z"/>
<path d="M7635 8880 c-3 -5 -1 -10 4 -10 6 0 11 5 11 10 0 6 -2 10 -4 10 -3 0
-8 -4 -11 -10z"/>
<path d="M7486 8871 c14 -15 64 -25 64 -13 0 10 -32 22 -59 22 -10 0 -11 -3
-5 -9z"/>
<path d="M8030 8824 c-8 -1 -51 -6 -95 -10 -104 -10 -63 -21 82 -23 56 0 146
-10 201 -21 55 -10 129 -19 165 -18 65 1 117 -18 117 -42 0 -6 -46 -11 -107
-12 -184 -4 -201 -3 -220 14 -30 26 -199 58 -282 53 -92 -6 -318 -43 -341 -55
-10 -5 -67 -20 -127 -34 -59 -13 -198 -47 -308 -75 -216 -55 -376 -81 -495
-80 l-75 1 70 23 c68 23 69 23 30 25 -75 2 -190 10 -219 15 -24 4 -197 77
-311 131 -47 23 -140 13 -173 -19 -15 -13 -36 -29 -47 -35 -19 -11 -18 -11 6
-12 14 0 29 -3 32 -7 9 -8 -12 -33 -29 -33 -7 0 -24 -4 -38 -10 -23 -8 -24
-12 -14 -40 5 -17 22 -39 36 -48 24 -16 26 -15 40 6 8 12 19 22 25 22 5 0 32
16 58 35 52 37 96 46 96 19 0 -8 -20 -27 -44 -41 -48 -28 -67 -69 -39 -85 9
-5 16 -15 16 -22 0 -13 39 -30 48 -21 3 2 -3 12 -12 21 -16 16 -15 19 15 50
40 41 86 45 138 13 28 -17 44 -20 84 -15 29 4 46 3 43 -2 -3 -6 -26 -13 -51
-16 -51 -8 -61 -32 -17 -42 15 -3 47 -12 71 -20 25 -8 55 -14 67 -14 13 0 38
-7 56 -15 18 -8 51 -19 74 -25 22 -5 51 -19 64 -30 12 -11 38 -23 58 -26 47
-9 184 1 212 16 28 15 156 36 278 45 76 6 100 5 138 -10 25 -9 43 -22 41 -29
-2 -6 -30 -14 -63 -18 -32 -4 -78 -12 -100 -19 -41 -11 -41 -12 -31 -40 6 -16
15 -29 19 -29 4 0 8 -3 8 -8 0 -7 -61 -25 -150 -43 -25 -5 -84 -7 -133 -5
l-87 4 -39 -38 c-21 -21 -58 -47 -82 -57 -88 -39 -161 -102 -155 -134 7 -40
19 -59 37 -59 28 0 110 19 131 31 10 5 48 19 85 31 38 12 89 35 114 50 65 40
85 36 147 -23 49 -47 56 -50 125 -59 39 -5 127 -20 193 -34 67 -14 183 -30
258 -35 110 -8 141 -13 161 -29 13 -11 21 -22 18 -26 -3 -3 8 -11 26 -17 31
-11 31 -12 15 -30 -22 -24 -7 -25 19 -1 18 15 20 15 15 1 -5 -13 5 -19 50 -29
32 -6 66 -16 77 -20 61 -23 75 -30 75 -37 0 -5 -62 -7 -137 -7 -119 2 -148 6
-216 28 -77 26 -207 37 -207 17 0 -12 40 -24 72 -22 15 1 42 -5 60 -13 18 -9
49 -17 68 -19 79 -9 118 -27 175 -82 32 -30 64 -55 70 -55 26 0 85 -65 91
-100 l7 -35 -54 52 c-30 29 -79 64 -110 78 -39 17 -59 33 -63 48 -5 23 -29 40
-73 52 -32 9 -29 -11 8 -48 25 -24 29 -34 21 -47 -7 -12 -6 -34 3 -74 8 -32
16 -60 18 -63 3 -2 14 1 26 9 16 10 23 10 33 0 10 -10 8 -20 -7 -50 -11 -20
-27 -43 -35 -50 -13 -11 -11 -13 12 -9 l27 4 -4 -58 c-4 -70 -9 -79 -41 -79
-20 0 -24 -5 -24 -27 1 -32 31 -73 53 -73 9 0 21 16 28 38 6 20 22 50 35 65
30 35 44 87 44 160 0 44 4 59 16 64 11 4 22 -1 31 -13 19 -26 9 -81 -33 -168
-34 -71 -42 -106 -24 -106 23 0 7 -30 -40 -74 -54 -49 -70 -56 -70 -30 0 14
-7 15 -46 9 -25 -3 -51 -2 -57 3 -7 5 -24 12 -39 16 -14 3 -41 18 -58 33 -26
22 -42 26 -93 27 -72 1 -113 -8 -120 -27 -10 -26 10 -38 72 -41 34 -2 65 -6
68 -10 3 -3 9 -22 14 -43 4 -21 11 -51 15 -66 4 -19 1 -33 -9 -45 -8 -9 -17
-26 -19 -37 -2 -12 -13 -21 -26 -23 -12 -2 -22 -9 -22 -17 0 -7 -11 -20 -25
-29 -14 -9 -25 -22 -25 -29 0 -20 -39 -38 -79 -36 -87 6 -128 -77 -117 -235 3
-50 12 -115 18 -144 6 -28 8 -55 5 -58 -3 -4 -18 -3 -32 0 -21 5 -25 11 -19
28 6 20 5 21 -10 6 -9 -9 -16 -24 -16 -32 0 -9 -4 -16 -10 -16 -5 0 -10 -9
-10 -20 0 -11 -5 -20 -11 -20 -6 0 -9 -6 -6 -14 3 -8 -1 -17 -9 -20 -12 -4
-14 -14 -9 -37 5 -22 4 -29 -4 -25 -6 4 -11 14 -11 22 0 8 -7 14 -15 14 -8 0
-15 -4 -15 -10 0 -14 -38 -12 -42 2 -5 14 -30 -6 -41 -32 -4 -11 -6 -9 -6 5
-1 14 -4 16 -9 7 -7 -10 -14 -10 -38 3 -37 19 -53 19 -60 0 -4 -8 -10 -15 -15
-15 -5 0 -9 7 -9 15 0 17 -75 22 -85 5 -3 -5 -11 -10 -18 -10 -8 0 -8 3 1 12
19 19 14 28 -13 28 -15 0 -29 -8 -36 -22 -18 -34 -50 -55 -89 -61 -19 -2 -57
-15 -85 -28 -43 -21 -51 -29 -56 -59 -4 -19 -7 -27 -8 -18 -2 31 -21 29 -40
-4 -11 -18 -31 -44 -46 -58 -14 -14 -49 -57 -78 -94 l-52 -69 -79 1 c-70 0
-81 3 -105 26 -27 26 -29 26 -183 26 -86 0 -159 -4 -163 -9 -14 -24 177 -55
277 -46 36 4 76 4 87 0 53 -17 -3 -74 -94 -94 -27 -6 -93 -12 -145 -13 -97 -2
-139 9 -169 46 -24 29 -41 19 -40 -21 2 -81 7 -87 89 -99 41 -6 102 -19 135
-29 33 -9 74 -19 90 -22 60 -9 62 -13 28 -42 -31 -26 -58 -74 -54 -97 2 -19
-28 -37 -52 -30 -13 3 -41 21 -63 41 -30 27 -46 35 -77 35 -40 0 -41 -1 -20
-57 3 -8 -3 -13 -17 -13 -14 0 -42 -22 -77 -60 -31 -33 -62 -60 -69 -60 -8 0
-14 -4 -14 -10 0 -5 -17 -10 -38 -10 -23 0 -51 -9 -72 -23 -19 -13 -52 -32
-73 -42 -21 -10 -70 -53 -110 -96 -48 -54 -76 -77 -87 -74 -9 3 -30 -5 -47
-17 -17 -13 -50 -36 -74 -53 -23 -16 -77 -65 -119 -107 -42 -43 -79 -78 -83
-78 -12 0 -137 -92 -151 -111 -7 -11 -40 -33 -74 -49 -74 -36 -85 -50 -39 -50
21 0 41 7 52 20 11 12 31 20 52 20 27 0 35 5 43 25 8 20 16 25 44 25 39 0 53
14 36 34 -15 19 73 80 107 73 25 -5 29 3 11 21 -8 8 -5 17 13 37 58 64 74 76
95 70 13 -3 27 1 34 10 7 8 18 15 25 15 7 0 26 7 41 15 26 13 30 13 40 0 10
-14 13 -14 24 0 7 8 28 15 46 15 19 0 34 5 34 10 0 11 -30 14 -97 10 -24 -1
-43 2 -43 7 1 25 44 53 84 53 17 0 27 7 32 22 11 36 47 79 79 95 17 9 38 24
48 34 10 11 28 19 41 19 13 0 35 9 49 20 14 11 32 20 40 20 7 0 25 9 38 21
l24 21 9 -37 c11 -47 39 -44 46 5 5 31 8 34 40 35 25 0 36 5 38 18 3 16 0 18
-20 12 -22 -6 -22 -5 5 19 27 25 80 35 91 18 2 -4 35 -5 71 -2 61 5 70 9 101
43 19 20 34 45 34 56 0 10 7 25 16 32 14 11 18 10 33 -10 l18 -24 11 31 11 31
68 -23 c37 -13 76 -27 86 -31 14 -6 17 -2 17 20 0 26 2 27 33 20 50 -12 100
-11 104 2 5 14 -114 103 -138 103 -26 0 -33 17 -12 29 13 7 24 4 42 -10 43
-35 162 -17 197 29 7 9 13 28 13 42 0 25 -1 25 -11 3 -10 -21 -54 -40 -66 -28
-3 3 0 5 6 5 7 0 12 9 12 20 0 13 -7 20 -20 20 -23 0 -26 16 -6 36 20 19 76
19 76 -1 0 -25 36 -17 56 13 11 15 19 45 19 69 1 53 9 61 65 65 l44 3 27 -65
c15 -36 28 -81 28 -100 1 -40 34 -100 55 -100 7 0 16 9 19 21 3 11 15 23 26
26 16 4 19 11 15 33 -6 26 -3 28 55 46 44 14 63 26 72 44 9 19 13 21 17 10 2
-8 11 -22 19 -32 13 -15 21 -13 91 23 94 47 265 115 316 124 21 4 51 19 69 34
27 23 40 26 106 26 62 0 76 3 79 16 3 16 50 44 59 35 10 -10 -9 -45 -28 -51
-10 -4 -19 -13 -19 -21 0 -8 -20 -27 -44 -42 -44 -28 -55 -32 -196 -72 -83
-24 -164 -54 -285 -107 -168 -74 -222 -102 -273 -144 -273 -225 -255 -209
-247 -217 3 -4 9 -2 13 3 4 6 17 16 30 23 19 11 22 10 22 -5 0 -10 -4 -24 -9
-32 -5 -7 -5 -25 0 -40 5 -14 11 -38 14 -53 3 -16 12 -28 20 -28 10 0 15 -10
15 -30 0 -23 4 -30 20 -30 14 0 20 -7 20 -24 0 -35 10 -56 26 -56 10 0 14 -12
14 -40 0 -33 3 -40 20 -40 17 0 20 -7 20 -40 0 -33 3 -40 20 -40 13 0 20 -7
20 -20 0 -11 6 -20 14 -20 16 0 26 -21 26 -56 0 -17 6 -24 20 -24 13 0 20 -7
20 -20 0 -13 7 -20 20 -20 18 0 20 -7 20 -60 0 -53 -2 -60 -20 -60 -17 0 -20
-7 -20 -40 0 -33 -3 -40 -19 -40 -16 0 -20 -8 -23 -37 -3 -36 -5 -38 -40 -41
-30 -3 -38 -7 -38 -23 0 -12 -7 -19 -20 -19 -13 0 -20 -7 -20 -20 0 -13 -7
-20 -20 -20 -11 0 -20 -4 -20 -10 0 -5 -9 -10 -20 -10 -11 0 -20 -4 -20 -10 0
-5 -9 -10 -20 -10 -13 0 -20 -7 -20 -19 0 -15 -10 -21 -40 -26 -22 -4 -40 -10
-40 -15 0 -4 -27 -10 -60 -14 -51 -6 -60 -10 -60 -26 0 -13 -7 -20 -20 -20
-13 0 -20 -7 -20 -19 0 -21 -35 -31 -111 -31 -27 0 -49 -4 -49 -10 0 -5 -7
-10 -16 -10 -9 0 -29 -13 -44 -30 -15 -16 -35 -30 -44 -30 -9 0 -16 -4 -16
-10 0 -5 -13 -10 -29 -10 -55 0 -91 -12 -91 -30 0 -18 -36 -30 -91 -30 -32 0
-41 -26 -12 -32 9 -2 -17 -4 -57 -5 -54 -2 -76 -6 -82 -18 -7 -12 -31 -15
-123 -15 -108 0 -115 -1 -115 -20 0 -17 -7 -20 -40 -20 -33 0 -40 -3 -40 -20
0 -17 -7 -20 -40 -20 -33 0 -40 -3 -40 -20 0 -11 -6 -21 -12 -22 -20 -2 -31
-4 -60 -12 -14 -4 -35 -3 -46 3 -11 6 -31 7 -48 2 -27 -7 -29 -11 -31 -62 -1
-30 -3 -67 -4 -84 -1 -16 5 -50 14 -75 21 -61 41 -203 32 -229 -13 -41 -39
-21 -45 34 -3 28 -9 56 -14 64 -16 25 -25 -12 -15 -60 6 -24 8 -59 4 -76 -5
-31 -9 -33 -45 -33 -29 0 -43 6 -54 22 -21 29 -20 87 0 117 16 22 15 24 -4 44
-21 20 -22 20 -42 2 -11 -10 -20 -24 -20 -32 0 -22 -20 -14 -30 13 -8 21 -15
25 -42 22 -33 -3 -33 -3 -29 -53 1 -27 7 -58 12 -67 12 -23 48 -23 64 -1 16
22 31 11 59 -46 20 -39 32 -50 64 -59 59 -18 72 -16 72 13 0 18 4 23 15 19 10
-4 15 0 15 15 0 12 5 21 10 21 6 0 10 -4 10 -10 0 -5 11 -10 25 -10 18 0 25
-5 25 -20 0 -13 7 -20 20 -20 13 0 20 -7 20 -19 0 -23 17 -31 53 -24 18 4 27
12 27 24 0 18 10 19 160 19 153 0 160 -1 160 -20 0 -17 7 -20 40 -20 22 0 40
-4 40 -10 0 -5 18 -10 40 -10 22 0 40 -4 40 -10 0 -6 33 -10 80 -10 73 0 80
-2 80 -20 0 -19 7 -20 120 -20 113 0 120 -1 120 -20 0 -19 7 -20 100 -20 93 0
100 -1 100 -20 0 -13 7 -20 20 -20 13 0 20 -7 20 -20 0 -13 7 -20 20 -20 13 0
20 -7 20 -20 0 -13 7 -20 20 -20 13 0 20 -7 20 -20 0 -19 7 -20 100 -20 93 0
100 -1 100 -20 0 -18 7 -20 60 -20 47 0 60 -3 60 -15 0 -12 14 -15 69 -15 87
0 131 -9 131 -26 0 -8 9 -14 20 -14 11 0 20 -7 20 -15 0 -19 96 -22 103 -2 4
9 8 9 15 -2 6 -8 25 -14 46 -13 20 1 36 -3 36 -8 0 -6 9 -10 20 -10 13 0 20
-7 20 -20 0 -17 7 -20 40 -20 22 0 40 -4 40 -10 0 -5 9 -10 20 -10 13 0 20 -7
20 -20 0 -17 7 -20 40 -20 22 0 40 -4 40 -10 0 -5 9 -10 20 -10 11 0 20 -4 20
-10 0 -6 27 -10 60 -10 53 0 60 -2 60 -20 0 -18 7 -20 60 -20 33 0 60 -4 60
-10 0 -6 40 -10 100 -10 93 0 100 -1 100 -20 0 -18 7 -20 60 -20 53 0 60 -2
60 -20 0 -13 7 -20 20 -20 11 0 20 -4 20 -10 0 -5 9 -10 20 -10 13 0 20 -7 20
-20 0 -13 7 -20 20 -20 11 0 20 -4 20 -10 0 -5 18 -10 40 -10 22 0 40 -4 40
-10 0 -5 18 -10 40 -10 22 0 40 -4 40 -10 0 -5 18 -10 40 -10 22 0 40 -4 40
-10 0 -5 9 -10 20 -10 11 0 20 -4 20 -10 0 -5 9 -10 20 -10 13 0 20 -7 20 -20
0 -17 7 -20 40 -20 33 0 40 -3 40 -20 0 -13 7 -20 20 -20 13 0 20 -7 20 -20 0
-17 7 -20 40 -20 33 0 40 -3 40 -20 0 -18 7 -20 60 -20 53 0 60 -2 60 -20 0
-13 7 -20 20 -20 13 0 20 -7 20 -20 0 -13 7 -20 20 -20 17 0 20 -7 20 -40 l0
-40 80 0 c73 0 80 -2 80 -20 0 -17 7 -20 40 -20 22 0 40 -4 40 -10 0 -5 9 -10
20 -10 11 0 20 -4 20 -10 0 -5 9 -10 20 -10 11 0 20 -4 20 -10 0 -5 18 -10 40
-10 22 0 40 -4 40 -10 0 -5 9 -10 20 -10 11 0 20 -4 20 -10 0 -5 18 -10 40
-10 22 0 40 -4 40 -10 0 -5 9 -10 20 -10 11 0 20 -4 20 -10 0 -5 18 -10 39
-10 22 0 41 -5 43 -11 2 -7 50 -15 118 -20 63 -4 116 -8 118 -8 1 -1 2 -7 2
-15 0 -16 30 -26 83 -26 20 0 37 -4 37 -10 0 -5 9 -10 20 -10 11 0 20 -4 20
-10 0 -5 9 -10 20 -10 11 0 20 5 20 10 0 6 9 10 20 10 11 0 20 -4 20 -10 0 -5
9 -10 20 -10 20 0 20 7 20 3480 l0 3480 -24 0 c-14 0 -28 5 -31 10 -4 6 7 10
24 10 30 0 31 1 31 50 0 49 0 50 -49 74 -39 20 -63 25 -127 25 -44 -1 -113 7
-154 17 -84 20 -190 23 -239 6 -22 -8 -39 -8 -52 -2 -14 8 -25 4 -53 -20 -65
-57 -252 -114 -331 -100 -26 4 -30 10 -33 39 -3 30 -1 33 15 25 27 -13 156
-11 160 2 6 19 -116 54 -190 54 -37 0 -48 -6 -95 -52 -41 -40 -52 -57 -50 -77
2 -18 -2 -26 -12 -26 -11 0 -14 9 -12 31 3 27 -2 33 -45 56 -44 23 -62 26
-212 32 -105 4 -176 12 -198 21 -26 11 -50 12 -105 5 -62 -7 -77 -6 -109 11
-33 16 -58 19 -171 18 -73 -1 -140 -3 -148 -5z m1926 -58 c70 -9 110 -19 130
-33 16 -11 39 -24 52 -27 54 -17 9 -50 -55 -40 -99 14 -303 92 -303 116 0 5
17 6 38 3 20 -4 82 -12 138 -19z m-3698 -178 c-6 -16 -55 -28 -89 -21 -58 11
-29 30 49 32 30 1 42 -3 40 -11z m1647 -28 c66 -11 174 -29 240 -41 104 -18
144 -20 295 -16 96 4 181 3 188 -2 28 -17 -215 -34 -394 -28 -124 5 -181 4
-190 -4 -8 -6 -72 -13 -151 -16 -75 -2 -145 -9 -154 -14 -10 -5 -60 -9 -111
-9 -51 0 -129 -4 -173 -9 -108 -13 -635 -26 -670 -17 -16 4 -24 11 -19 16 17
17 184 59 316 80 73 12 169 27 213 35 75 13 221 31 310 38 105 9 190 5 300
-13z m-1422 -47 c-7 -2 -21 -2 -30 0 -10 3 -4 5 12 5 17 0 24 -2 18 -5z m2337
-24 c23 0 23 -1 5 -9 -11 -5 -34 -9 -52 -9 -18 -1 -53 -12 -79 -26 -48 -26
-118 -32 -159 -15 -28 11 -7 17 75 23 41 3 80 12 105 26 22 12 49 19 60 16 11
-2 31 -5 45 -6z m295 1 c7 -12 -40 -25 -55 -15 -9 6 -9 10 1 16 19 12 46 11
54 -1z m325 -29 c94 -6 94 -6 40 -13 -30 -4 -107 -3 -170 2 -63 5 -121 10
-127 10 -7 0 -13 5 -13 11 0 9 24 10 88 4 48 -4 130 -10 182 -14z m397 -22 c5
-20 11 -21 60 -15 102 12 269 17 248 7 -94 -43 -187 -49 -342 -20 -86 15 -178
4 -244 -31 -55 -28 -234 -48 -381 -42 -40 2 -45 5 -41 21 3 10 0 22 -6 25 -18
12 -12 28 8 21 30 -9 343 -13 375 -4 16 5 39 17 50 28 25 23 51 28 174 30 88
1 94 0 99 -20z m-972 -48 c38 -9 39 -35 2 -39 -40 -5 -167 18 -167 29 0 25 82
30 165 10z m-1079 -12 c22 -7 40 -5 67 6 20 8 53 15 72 15 39 0 209 -33 292
-56 57 -16 87 -41 37 -30 -64 14 -242 36 -289 36 -28 0 -66 5 -85 10 -25 7
-41 7 -57 -1 -16 -9 -45 -9 -116 0 -53 6 -124 11 -158 11 -86 0 -64 18 26 22
91 4 172 -1 211 -13z m2121 -25 c36 -10 16 -24 -32 -24 -25 0 -64 -5 -88 -12
-47 -12 -126 -2 -130 17 -1 5 12 13 28 16 39 9 194 10 222 3z m-799 -16 c-3
-9 -30 -14 -78 -16 -94 -4 -127 10 -45 18 106 11 127 11 123 -2z m-425 -5 c-7
-2 -21 -2 -30 0 -10 3 -4 5 12 5 17 0 24 -2 18 -5z m-135 -15 c-31 -7 -56 -7
-75 0 -23 9 -15 10 47 10 75 0 75 0 28 -10z m-808 -18 c12 -8 12 -10 -5 -10
-11 0 -27 5 -35 10 -12 8 -12 10 5 10 11 0 27 -5 35 -10z m-58 -92 c40 -15 24
-28 -19 -16 -20 5 -64 10 -97 10 -83 0 -146 7 -146 18 0 11 228 1 262 -12z
m1877 -182 c17 -21 -2 -29 -49 -21 -48 8 -52 22 -7 28 17 2 35 5 38 5 4 1 12
-4 18 -12z m-1425 -602 l17 -36 101 4 c67 2 103 8 106 16 4 14 72 16 72 2 0
-5 -7 -10 -15 -10 -8 0 -15 -4 -15 -10 0 -5 -11 -10 -25 -10 -14 0 -25 -4 -25
-10 0 -5 -7 -10 -15 -10 -8 0 -15 -9 -15 -20 0 -13 -7 -20 -19 -20 -14 0 -20
-9 -23 -37 -9 -77 59 -203 123 -230 21 -9 29 -19 29 -38 0 -14 5 -25 10 -25 6
0 10 -7 10 -16 0 -10 -7 -14 -22 -12 -17 2 -23 10 -24 29 -1 37 -11 49 -42 49
-45 0 -98 52 -106 102 -9 59 -17 68 -60 71 -36 2 -40 6 -79 76 -31 57 -38 77
-30 90 8 12 7 24 -2 41 -15 28 -11 40 14 40 10 0 24 -15 35 -36z m506 26 c0
-5 17 -10 39 -10 29 0 40 -5 43 -18 5 -16 0 -18 -41 -16 -25 2 -38 1 -28 -2
32 -10 17 -24 -25 -24 -24 0 -54 -3 -68 -5 -25 -5 -25 -5 -2 6 12 7 22 21 22
31 0 11 5 16 10 13 6 -3 10 3 10 14 0 14 6 21 20 21 11 0 20 -4 20 -10z m160
-40 c13 -8 13 -10 -2 -10 -9 0 -20 5 -23 10 -8 13 5 13 25 0z m-95 -150 c3 -5
-3 -10 -14 -10 -12 0 -21 5 -21 10 0 6 6 10 14 10 8 0 18 -4 21 -10z m-647
-111 c-9 -52 -45 -135 -54 -126 -8 8 14 137 32 184 17 44 18 45 25 21 4 -14 2
-50 -3 -79z m852 81 c0 -21 -33 -29 -45 -10 -9 15 4 30 26 30 12 0 19 -7 19
-20z m-16 -143 c15 -24 -3 -50 -42 -62 -24 -7 -32 -15 -32 -32 0 -18 -6 -23
-24 -23 -14 0 -27 3 -29 8 -9 14 13 54 33 59 10 3 29 21 40 40 21 36 36 39 54
10z m-326 -41 c2 -11 -4 -16 -20 -16 -34 0 -50 18 -37 42 9 18 13 18 32 5 12
-8 23 -22 25 -31z m168 -7 c4 -7 -2 -19 -12 -28 -11 -9 -26 -24 -33 -33 -11
-15 -8 -19 23 -32 23 -9 36 -22 36 -33 0 -22 -98 -125 -111 -118 -17 11 -9 35
12 35 22 0 21 17 -7 72 -8 15 -14 47 -14 71 0 42 2 45 38 60 46 19 59 20 68 6z
m-754 -51 c-9 -9 -15 -9 -24 0 -9 9 -7 12 12 12 19 0 21 -3 12 -12z m258 2 c0
-5 -5 -10 -11 -10 -5 0 -7 5 -4 10 3 6 8 10 11 10 2 0 4 -4 4 -10z m80 -26 c0
-8 -4 -12 -10 -9 -5 3 -10 10 -10 16 0 5 5 9 10 9 6 0 10 -7 10 -16z m-147
-26 c-13 -12 -26 -19 -29 -15 -4 4 1 14 12 22 29 22 41 18 17 -7z m127 -34 c0
-17 -25 -46 -51 -60 -45 -23 -46 -11 -2 30 36 33 53 43 53 30z m-630 -33 c0
-33 -16 -49 -32 -33 -14 14 -1 62 17 62 10 0 15 -10 15 -29z m457 -37 c-26
-24 -52 -44 -58 -44 -6 0 14 22 43 49 29 27 55 47 58 44 2 -2 -17 -24 -43 -49z
m352 25 c-12 -11 -29 -19 -38 -19 -13 -1 -12 -4 4 -16 13 -10 31 -13 53 -9 38
7 44 -11 12 -40 -18 -17 -21 -17 -55 -1 -21 10 -44 14 -57 10 -22 -7 -22 -6
-4 21 19 28 14 41 -18 47 -11 1 -21 9 -24 17 -4 11 4 13 37 8 22 -3 43 -2 46
2 2 4 18 6 35 3 l30 -4 -21 -19z m433 4 c40 -36 5 -143 -47 -143 -15 0 -39 16
-64 43 -22 23 -41 44 -40 47 0 3 19 19 42 37 47 35 82 41 109 16z m-1162 -64
c0 -5 -4 -9 -10 -9 -5 0 -10 7 -10 16 0 8 5 12 10 9 6 -3 10 -10 10 -16z m595
-59 c4 -6 -5 -10 -19 -10 -14 0 -26 5 -26 10 0 6 9 10 19 10 11 0 23 -4 26
-10z m261 -53 c-10 -25 -22 -37 -44 -41 -21 -5 -29 -13 -29 -29 1 -57 -4 -82
-11 -69 -5 7 -17 10 -28 7 -12 -4 -11 -1 4 7 20 10 23 17 17 45 -5 28 -3 33
18 39 19 4 23 10 19 27 -4 15 4 28 29 49 40 34 49 21 25 -35z m-1056 -42 c-16
-37 -23 -46 -32 -37 -9 9 -8 19 5 41 9 16 17 36 17 45 0 9 6 23 13 30 22 24
20 -25 -3 -79z m198 46 c3 -16 -1 -22 -10 -19 -7 3 -15 15 -16 27 -3 16 1 22
10 19 7 -3 15 -15 16 -27z m351 -17 c20 -4 31 -13 33 -28 2 -13 11 -22 24 -24
21 -3 21 -5 9 -45 -18 -58 -66 -157 -76 -157 -15 0 -10 37 10 72 10 18 22 48
26 67 l7 33 -32 -7 c-33 -7 -33 -7 -27 24 6 29 5 31 -22 31 -31 0 -57 23 -46
41 4 6 19 8 36 5 16 -3 42 -9 58 -12z m251 0 c0 -17 -28 -44 -45 -44 -8 0 -17
-9 -20 -20 -7 -22 -36 -44 -72 -55 -30 -8 -29 6 2 43 14 17 25 33 25 37 0 4
-11 4 -25 1 -31 -8 -31 -3 0 26 20 19 37 24 80 24 39 1 55 -3 55 -12z m300
-24 c0 -5 -5 -10 -11 -10 -5 0 -7 5 -4 10 3 6 8 10 11 10 2 0 4 -4 4 -10z
m-220 -8 c0 -4 -7 -18 -16 -31 -22 -31 -5 -49 32 -32 34 15 40 9 20 -21 -15
-22 -21 -24 -71 -20 -65 5 -74 -11 -19 -34 31 -13 35 -18 32 -47 -3 -27 -8
-33 -31 -35 -23 -3 -28 -8 -24 -23 7 -25 6 -24 -46 11 -52 35 -89 38 -117 10
-28 -28 -40 -25 -40 13 0 52 27 81 80 85 25 2 49 8 55 13 5 5 19 9 32 9 24 0
43 26 43 59 0 11 10 27 22 35 24 17 48 21 48 8z m-702 -90 c3 -17 -2 -22 -17
-22 -14 0 -21 6 -21 18 0 38 33 41 38 4z m242 -42 c0 -12 -28 -25 -36 -17 -9
9 6 27 22 27 8 0 14 -5 14 -10z m-292 -40 c9 -15 19 -18 42 -14 38 8 44 -7 30
-72 -18 -78 -68 -119 -55 -45 7 41 -9 66 -26 40 -14 -23 -38 20 -39 69 0 34 4
42 18 42 9 0 23 -9 30 -20z m351 -3 c13 -16 5 -27 -21 -27 -18 0 -25 20 -11
33 10 10 19 8 32 -6z m-199 -32 c0 -8 -7 -15 -15 -15 -16 0 -20 12 -8 23 11
12 23 8 23 -8z m90 -12 c0 -5 -4 -15 -10 -23 -11 -18 -25 -7 -17 15 6 15 27
21 27 8z m300 -33 c11 -7 12 -12 3 -21 -15 -15 -43 -5 -43 16 0 17 18 19 40 5z
m-203 -32 c20 -17 15 -26 -17 -33 -25 -5 -30 -11 -25 -26 5 -14 1 -19 -13 -19
-14 0 -21 -9 -26 -31 -3 -17 -3 -35 0 -40 3 -5 2 -19 -3 -32 -5 -16 -9 -2 -15
53 -4 41 -9 86 -10 99 -5 44 68 63 109 29z m-260 -80 c-3 -7 -5 -2 -5 12 0 14
2 19 5 13 2 -7 2 -19 0 -25z m303 3 c0 -14 -29 -41 -45 -41 -7 0 -15 -7 -19
-15 -3 -8 -12 -15 -20 -15 -10 0 -13 6 -10 15 4 8 13 15 20 15 8 0 19 11 24
25 9 24 50 37 50 16z m123 -17 c11 -12 -13 -44 -33 -44 -21 0 -24 8 -14 34 6
16 35 22 47 10z m-123 -73 c0 -12 -20 -25 -27 -18 -7 7 6 27 18 27 5 0 9 -4 9
-9z m-576 -10 c10 -16 -5 -41 -25 -41 -22 0 -23 4 -9 31 11 20 25 25 34 10z
m289 -3 c6 -19 -23 -58 -43 -58 -17 0 -30 19 -30 41 0 10 35 27 57 28 6 1 13
-5 16 -11z m457 -23 c0 -18 -5 -25 -19 -25 -11 0 -23 -4 -26 -10 -3 -5 -12
-10 -20 -10 -11 0 -8 9 8 35 26 41 57 47 57 10z m-930 -20 c0 -20 -71 -130
-89 -136 -18 -7 -21 -5 -21 22 0 53 25 97 62 108 40 11 48 12 48 6z m150 -70
c0 -8 -9 -15 -20 -15 -13 0 -18 5 -14 15 4 8 12 15 20 15 8 0 14 -7 14 -15z
m956 -20 c-12 -64 -54 -142 -106 -196 -47 -49 -62 -52 -19 -3 11 11 37 63 60
115 53 122 78 155 65 84z m-1406 7 c0 -4 -6 -14 -12 -21 -8 -8 -8 -11 -2 -8 7
4 14 -3 18 -16 12 -44 5 -49 -19 -13 -20 30 -23 40 -12 51 13 16 27 19 27 7z
m780 -8 c0 -15 -55 -96 -77 -114 -21 -17 -41 -20 -117 -20 -67 0 -98 4 -114
16 -21 14 -21 17 -7 45 18 34 44 37 70 9 10 -11 24 -20 32 -20 15 0 18 26 3
35 -13 8 -13 25 1 25 6 0 22 -9 36 -20 37 -29 65 -25 113 15 39 33 60 43 60
29z m-1009 -75 c-9 -23 -10 -22 -10 11 -1 23 2 31 9 24 7 -7 7 -19 1 -35z
m1458 -32 c6 -8 14 -28 17 -45 6 -28 3 -32 -34 -51 -22 -11 -43 -25 -47 -31
-3 -5 -23 -10 -44 -10 -45 0 -84 35 -79 72 3 21 9 23 61 26 48 3 57 6 57 22 0
29 48 41 69 17z m-249 -28 c0 -10 -6 -19 -13 -19 -22 0 -27 11 -16 32 12 22
29 15 29 -13z m-761 -42 c13 -16 5 -27 -21 -27 -11 0 -18 7 -18 20 0 23 22 27
39 7z m-759 -128 c0 -18 5 -29 14 -29 9 0 13 12 12 38 -1 30 2 37 18 37 12 0
23 -10 29 -29 14 -42 -18 -81 -67 -81 -27 0 -40 -6 -48 -20 -16 -29 -16 -29
-33 -15 -21 18 -19 40 5 40 21 0 27 19 10 36 -6 6 -2 21 11 43 16 27 22 31 34
21 8 -7 15 -25 15 -41z m-138 -116 c10 -9 18 -22 18 -30 0 -8 14 -19 30 -25
17 -5 29 -15 27 -22 -7 -20 -35 -18 -57 4 -11 11 -34 23 -49 26 -29 6 -42 27
-34 52 6 17 43 15 65 -5z m-66 -220 c-8 -8 -36 5 -36 17 0 7 6 7 21 0 11 -7
18 -14 15 -17z m-937 -1685 c20 -21 21 -21 40 -4 23 21 41 14 41 -15 0 -12 -7
-19 -20 -19 -23 0 -23 -1 -11 -33 7 -18 4 -31 -11 -55 -33 -52 -45 -43 -52 41
-3 34 -10 52 -27 65 -23 19 -19 42 6 42 8 0 23 -10 34 -22z m179 -30 c-2 -18
-7 -33 -13 -33 -5 0 -11 15 -13 33 -3 24 1 32 13 32 12 0 16 -8 13 -32z"/>
<path d="M5788 8693 c-21 -5 -24 -23 -4 -23 22 0 46 11 46 21 0 9 -13 10 -42
2z"/>
<path d="M6742 8568 c31 -7 56 -7 75 0 23 9 15 10 -47 10 -75 0 -75 0 -28 -10z"/>
<path d="M6100 8400 c0 -5 9 -10 20 -10 11 0 20 5 20 10 0 6 -9 10 -20 10 -11
0 -20 -4 -20 -10z"/>
<path d="M6210 8355 c-30 -7 -70 -14 -88 -14 -18 -1 -52 -11 -75 -23 -40 -20
-109 -41 -187 -57 -25 -4 -35 -12 -35 -25 0 -10 -8 -23 -17 -30 -20 -15 -34
-81 -19 -90 13 -8 69 19 94 45 23 25 31 24 63 -6 49 -45 164 -30 164 22 0 12
-6 14 -27 8 -37 -9 -82 -10 -91 -1 -12 12 26 33 73 40 24 4 49 13 55 21 7 8
35 22 63 30 29 9 66 29 84 47 53 51 45 56 -57 33z"/>
<path d="M5626 8331 c16 -17 100 -28 90 -13 -4 7 -17 11 -29 11 -12 0 -33 2
-47 6 -19 6 -22 5 -14 -4z"/>
<path d="M4355 8300 c4 -14 2 -20 -9 -20 -8 0 -30 -14 -48 -31 -18 -16 -52
-35 -76 -42 -41 -11 -82 -39 -82 -56 0 -25 44 -39 172 -55 129 -15 338 -66
366 -88 6 -6 12 -21 12 -34 0 -28 25 -23 33 7 7 27 72 22 139 -12 32 -16 56
-9 91 26 22 22 45 35 60 35 36 0 43 18 10 25 -15 4 -48 16 -72 27 -41 19 -45
20 -78 4 -18 -9 -35 -16 -37 -16 -2 0 -7 15 -10 34 -5 25 -19 43 -62 75 -60
45 -78 51 -69 22 3 -11 1 -22 -5 -26 -9 -6 -85 32 -150 75 -99 66 -108 70
-149 70 -38 0 -42 -2 -36 -20z"/>
<path d="M5618 8178 c-5 -41 5 -68 23 -68 13 0 20 37 13 75 -9 49 -31 45 -36
-7z"/>
<path d="M5456 8201 c-18 -29 28 -61 52 -37 13 12 13 18 2 30 -14 18 -46 21
-54 7z"/>
<path d="M5710 8160 c0 -5 5 -10 10 -10 6 0 10 5 10 10 0 6 -4 10 -10 10 -5 0
-10 -4 -10 -10z"/>
<path d="M3175 8100 c-17 -6 -13 -9 20 -19 49 -13 55 -14 55 -2 0 14 -53 29
-75 21z"/>
<path d="M3634 8048 c-18 -22 -47 -149 -37 -159 5 -5 43 -10 84 -11 l75 -2 52
52 c57 58 78 66 68 27 -5 -18 -2 -27 9 -31 22 -9 47 16 41 39 -3 11 2 33 10
50 9 17 12 33 7 38 -14 14 -126 -12 -144 -33 -21 -24 -28 -23 -59 7 -32 31
-91 43 -106 23z"/>
<path d="M5592 8025 c-23 -13 -69 -32 -102 -41 l-59 -16 4 -47 c2 -25 4 -48 4
-50 1 -3 6 0 13 7 16 16 54 15 81 -3 16 -10 54 -15 132 -16 151 -1 176 -11
118 -44 -28 -16 -28 -16 -3 -11 14 2 43 9 65 15 22 6 70 11 107 11 161 0 421
31 433 50 10 16 -101 40 -189 40 -60 1 -100 6 -116 15 -14 8 -41 14 -61 15
-46 0 -53 8 -32 33 18 20 17 20 -50 13 -71 -7 -120 -23 -111 -37 8 -13 -26
-25 -112 -38 -69 -11 -86 -11 -116 2 -43 18 -64 49 -45 65 7 6 37 12 67 14 58
3 68 12 35 34 -18 12 -26 10 -63 -11z"/>
<path d="M3541 8033 c-1 -7 -15 -20 -32 -28 -32 -17 -35 -40 -3 -40 20 0 49
47 41 68 -4 9 -6 9 -6 0z"/>
<path d="M4313 7930 c-13 -5 -23 -14 -23 -19 0 -19 20 -22 51 -5 26 13 36 14
54 4 26 -14 68 -4 62 13 -5 15 -113 20 -144 7z"/>
<path d="M4680 7917 c0 -7 9 -18 19 -24 16 -10 22 -9 33 4 11 15 10 16 -9 11
-16 -4 -23 -2 -23 8 0 8 -4 14 -10 14 -5 0 -10 -6 -10 -13z"/>
<path d="M3810 7880 c-8 -5 -11 -12 -7 -16 4 -4 13 -2 19 4 15 15 7 24 -12 12z"/>
<path d="M4235 7880 c-4 -6 3 -10 14 -10 25 0 27 6 6 13 -8 4 -17 2 -20 -3z"/>
<path d="M5221 7881 c25 -16 99 -25 99 -12 0 6 -8 11 -17 11 -10 0 -36 3 -58
6 -30 4 -36 3 -24 -5z"/>
<path d="M4526 7852 c-31 -13 -44 -13 -69 -4 -22 8 -34 9 -42 1 -16 -17 25
-41 60 -36 88 14 155 32 152 41 -6 17 -58 16 -101 -2z"/>
<path d="M4068 7807 c40 -42 22 -56 -73 -57 -46 -1 -49 -2 -31 -15 30 -23 104
-19 143 8 18 12 33 27 33 34 0 17 -49 53 -73 53 -20 0 -20 0 1 -23z"/>
<path d="M4207 7823 c-4 -3 -7 -17 -7 -30 0 -28 23 -27 28 1 4 20 -11 40 -21
29z"/>
<path d="M4666 7772 c-44 -4 -82 -25 -97 -54 -15 -28 -8 -30 42 -12 63 23 168
24 202 2 32 -22 37 -22 37 -2 0 9 -22 25 -52 39 -66 29 -83 32 -132 27z"/>
<path d="M5030 7775 c0 -10 59 -33 130 -50 41 -10 92 -26 113 -37 21 -11 43
-18 50 -15 22 7 -62 47 -129 61 -38 8 -89 22 -113 30 -48 18 -51 18 -51 11z"/>
<path d="M3724 7759 c-9 -15 12 -33 30 -26 9 4 16 13 16 22 0 17 -35 21 -46 4z"/>
<path d="M3840 7758 c0 -7 3 -23 6 -36 5 -19 9 -20 22 -10 8 7 17 12 19 11 11
-9 13 0 3 13 -21 24 -50 37 -50 22z"/>
<path d="M4444 7749 c-9 -15 12 -33 30 -26 9 4 16 13 16 22 0 17 -35 21 -46 4z"/>
<path d="M4165 7700 c-3 -5 1 -10 9 -10 9 0 16 5 16 10 0 6 -4 10 -9 10 -6 0
-13 -4 -16 -10z"/>
<path d="M4265 7700 c3 -5 15 -10 26 -10 11 0 17 5 14 10 -3 6 -15 10 -26 10
-11 0 -17 -4 -14 -10z"/>
<path d="M4342 7688 c3 -7 27 -16 54 -19 27 -3 56 -8 64 -10 8 -2 15 2 15 11
0 17 -34 28 -93 29 -31 1 -42 -3 -40 -11z"/>
<path d="M3783 7665 c-10 -7 -15 -17 -11 -20 9 -9 58 3 58 14 0 16 -28 20 -47
6z"/>
<path d="M7265 7670 c3 -4 33 -11 68 -14 55 -6 70 -13 101 -42 41 -39 47 -40
74 -16 23 20 39 62 23 62 -6 0 -11 -5 -11 -12 0 -9 -3 -9 -12 0 -7 7 -20 12
-30 12 -10 0 -18 4 -18 10 0 6 -39 9 -100 8 -54 -1 -97 -5 -95 -8z"/>
<path d="M4515 7640 c-3 -6 1 -13 10 -16 19 -8 30 0 20 15 -8 14 -22 14 -30 1z"/>
<path d="M6949 7624 c-11 -13 -9 -14 13 -9 20 5 30 1 43 -17 l17 -23 -7 25
c-12 41 -42 52 -66 24z"/>
<path d="M7066 7632 c-9 -15 70 -42 122 -42 l47 1 -35 18 c-42 22 -126 36
-134 23z"/>
<path d="M3823 7597 c-9 -15 11 -27 52 -29 30 -2 40 1 40 12 0 17 -82 33 -92
17z"/>
<path d="M4820 7580 c-6 -11 -24 -27 -40 -35 -28 -15 -39 -39 -22 -48 4 -2 19
-7 35 -11 22 -5 27 -3 27 12 0 10 7 27 15 38 16 22 20 64 5 64 -5 0 -14 -9
-20 -20z"/>
<path d="M7288 7573 c7 -3 16 -2 19 1 4 3 -2 6 -13 5 -11 0 -14 -3 -6 -6z"/>
<path d="M4590 7455 c-8 -9 -8 -15 -2 -15 12 0 26 19 19 26 -2 2 -10 -2 -17
-11z"/>
<path d="M3795 7417 c-16 -25 -31 -95 -39 -181 l-5 -58 45 7 c36 5 44 3 44 -9
0 -10 -9 -16 -24 -16 -31 0 -44 -20 -21 -32 9 -6 24 -19 33 -29 23 -27 32 -24
32 13 0 17 8 41 19 52 13 15 20 42 24 90 5 67 4 69 -29 106 -19 21 -34 44 -34
53 0 25 -29 28 -45 4z"/>
<path d="M7220 6295 c0 -8 5 -15 10 -15 6 0 10 7 10 15 0 8 -4 15 -10 15 -5 0
-10 -7 -10 -15z"/>
<path d="M5785 6237 c-24 -18 -11 -37 24 -37 20 0 30 6 34 19 3 11 2 22 -1 25
-10 10 -38 6 -57 -7z"/>
<path d="M5920 6225 c0 -20 23 -29 56 -21 32 8 22 21 -23 31 -27 5 -33 3 -33
-10z"/>
<path d="M5902 6158 c6 -16 81 -33 105 -24 16 7 15 9 -7 21 -32 18 -103 20
-98 3z"/>
<path d="M6848 6113 c6 -2 18 -2 25 0 6 3 1 5 -13 5 -14 0 -19 -2 -12 -5z"/>
<path d="M5385 5998 c-19 -11 -18 -13 14 -19 19 -4 41 -5 49 -1 12 4 12 7 -4
19 -22 16 -33 16 -59 1z"/>
<path d="M5484 5989 c-22 -9 -12 -12 51 -14 22 -1 49 -5 60 -10 16 -6 18 -5 8
5 -15 16 -94 29 -119 19z"/>
<path d="M5676 5985 c-3 -8 -12 -15 -21 -15 -18 0 -21 -40 -4 -57 15 -15 59 4
59 27 0 9 5 21 11 27 6 6 8 16 5 22 -10 16 -43 13 -50 -4z"/>
<path d="M4685 5890 c-3 -6 -4 -14 0 -19 3 -5 -2 -17 -11 -26 -24 -24 -7 -32
19 -8 12 11 28 22 36 25 9 3 6 9 -12 21 -16 10 -28 13 -32 7z"/>
<path d="M4550 5802 c0 -7 -7 -12 -15 -12 -20 0 -19 -17 2 -38 12 -12 18 -13
21 -4 2 7 8 10 13 6 5 -3 9 1 9 8 -1 17 -30 56 -30 40z"/>
<path d="M4737 5773 c-11 -20 -25 -33 -37 -33 -10 0 -22 -5 -25 -10 -7 -11
-64 -8 -83 4 -17 10 -15 0 4 -18 20 -21 91 -21 131 -1 36 18 42 30 33 65 l-6
25 -17 -32z"/>
<path d="M4440 5580 c0 -13 7 -20 20 -20 13 0 20 7 20 20 0 13 -7 20 -20 20
-13 0 -20 -7 -20 -20z"/>
<path d="M6684 5552 c-12 -9 -36 -25 -53 -34 -26 -14 -30 -22 -25 -41 5 -21 2
-25 -26 -29 -23 -4 -35 0 -43 14 -9 14 -24 18 -64 18 -28 0 -54 -4 -57 -8 -9
-15 9 -29 44 -37 l34 -7 -23 -19 c-51 -41 13 -51 142 -22 64 14 86 25 119 55
32 30 38 41 33 60 -4 13 -11 25 -15 28 -3 3 -9 13 -13 23 -8 21 -26 21 -53 -1z"/>
<path d="M6388 5323 c7 -3 16 -2 19 1 4 3 -2 6 -13 5 -11 0 -14 -3 -6 -6z"/>
<path d="M6217 5285 c-9 -23 -1 -34 22 -28 11 3 28 -5 44 -21 38 -38 116 -39
155 -3 39 36 25 50 -48 52 -36 1 -88 5 -116 9 -43 7 -52 6 -57 -9z"/>
<path d="M5901 5191 c-8 -5 -22 -8 -32 -6 -21 4 -29 -5 -46 -55 -9 -27 -9 -36
0 -42 20 -13 43 -9 66 10 18 15 19 20 8 42 -11 22 -10 27 8 42 21 19 19 24 -4
9z"/>
<path d="M6030 5160 c0 -5 5 -10 11 -10 5 0 7 5 4 10 -3 6 -8 10 -11 10 -2 0
-4 -4 -4 -10z"/>
<path d="M5574 5080 c-12 -5 -31 -22 -43 -39 -12 -17 -30 -31 -39 -31 -17 0
-102 -39 -102 -47 0 -3 20 -2 44 1 27 4 47 3 51 -3 3 -7 15 0 29 15 20 24 25
25 46 14 21 -11 23 -11 17 11 -4 14 0 30 9 40 22 25 15 49 -12 39z"/>
<path d="M5780 5060 c0 -11 6 -20 14 -20 9 0 12 7 9 20 -3 11 -9 20 -14 20 -5
0 -9 -9 -9 -20z"/>
<path d="M5634 5010 c-15 -22 -31 -40 -36 -40 -5 0 -7 -9 -3 -20 10 -31 -39
-88 -88 -101 -23 -6 -51 -18 -62 -26 -20 -15 -20 -15 0 -8 38 15 96 17 127 4
31 -13 32 -12 85 45 29 32 50 63 47 68 -3 5 -15 0 -26 -12 -45 -48 -67 36 -23
88 27 32 31 42 15 42 -5 0 -22 -18 -36 -40z"/>
<path d="M5406 5032 c-3 -6 -1 -14 5 -17 15 -10 25 3 12 16 -7 7 -13 7 -17 1z"/>
<path d="M5732 5013 c-10 -4 -10 -8 -1 -19 16 -20 29 -17 29 6 0 20 -5 23 -28
13z"/>
<path d="M6189 4993 c-6 -16 -15 -38 -20 -51 -5 -13 -24 -29 -42 -37 l-32 -13
29 -8 c26 -6 34 -1 77 44 51 54 60 76 33 86 -27 10 -34 7 -45 -21z"/>
<path d="M5792 4969 c2 -7 10 -15 17 -17 8 -3 12 1 9 9 -2 7 -10 15 -17 17 -8
3 -12 -1 -9 -9z"/>
<path d="M5945 4930 c-8 -13 -1 -24 14 -19 6 3 7 10 2 18 -6 10 -10 10 -16 1z"/>
<path d="M5423 4894 c-20 -18 -22 -22 -7 -15 21 10 52 41 41 41 -3 0 -19 -12
-34 -26z"/>
<path d="M6042 4889 c-13 -5 -44 -10 -69 -11 -47 -3 -69 -23 -39 -34 25 -10
77 4 121 31 39 24 32 33 -13 14z"/>
<path d="M5812 4858 c3 -7 15 -15 27 -16 16 -3 22 1 19 10 -3 7 -15 15 -27 16
-16 3 -22 -1 -19 -10z"/>
<path d="M6111 4841 c-7 -5 -11 -16 -9 -26 3 -16 5 -15 21 3 19 21 11 37 -12
23z"/>
<path d="M5350 4821 c0 -11 -9 -22 -19 -26 -11 -3 -22 -12 -25 -20 -3 -9 -20
-15 -43 -16 -21 0 -47 -4 -58 -8 -11 -5 -28 -4 -38 1 -25 13 -30 6 -18 -23 5
-13 10 -18 10 -11 1 11 14 12 59 8 124 -13 127 -13 130 12 2 12 8 22 14 22 6
0 8 10 4 24 -5 20 -3 23 13 19 30 -8 35 16 6 27 -35 13 -35 13 -35 -9z"/>
<path d="M5028 4725 c-32 -28 -36 -45 -10 -45 23 0 52 30 52 53 0 23 -10 21
-42 -8z"/>
<path d="M5370 4710 c0 -5 5 -10 10 -10 6 0 10 5 10 10 0 6 -4 10 -10 10 -5 0
-10 -4 -10 -10z"/>
<path d="M5351 4613 c0 -21 3 -31 6 -23 3 8 15 25 26 38 l20 22 -26 0 c-25 0
-27 -3 -26 -37z"/>
<path d="M5150 4631 c0 -5 10 -11 23 -15 35 -9 40 -7 27 9 -13 16 -50 21 -50
6z"/>
<path d="M4927 4613 c-28 -4 -28 -23 0 -23 9 0 25 -7 35 -16 16 -16 18 -16 24
0 6 16 -12 48 -25 45 -3 -1 -18 -4 -34 -6z"/>
<path d="M5288 4569 c-2 -6 -27 -14 -56 -17 -29 -2 -52 -7 -52 -11 0 -3 -3
-16 -6 -28 -5 -19 -2 -23 15 -23 35 0 145 66 135 81 -7 13 -32 11 -36 -2z"/>
<path d="M5028 4548 c-4 -9 -17 -18 -30 -20 -15 -2 -24 -11 -26 -25 -2 -13 1
-23 7 -23 19 0 12 -32 -9 -37 -11 -3 -20 -14 -20 -25 0 -16 -6 -19 -32 -16
-32 3 -33 2 -33 -34 0 -42 9 -48 27 -18 7 11 16 20 20 20 4 0 26 8 48 17 32
14 38 21 34 38 -6 24 19 51 36 40 7 -4 10 -15 7 -25 -2 -9 4 -22 14 -29 11 -6
20 -21 20 -34 1 -16 2 -18 6 -5 2 10 -2 27 -11 39 -9 14 -13 33 -9 50 5 24 2
29 -15 29 -17 0 -21 7 -24 38 -2 25 -5 32 -10 20z"/>
<path d="M4775 4444 c-7 -50 5 -78 27 -56 8 8 8 15 0 25 -7 8 -10 16 -8 18 2
2 6 16 10 32 5 20 3 27 -8 27 -9 0 -16 -16 -21 -46z"/>
<path d="M4904 4466 c-8 -22 3 -33 18 -18 9 9 9 15 0 24 -9 9 -13 7 -18 -6z"/>
<path d="M4507 4432 c-20 -22 -24 -53 -5 -34 7 7 21 12 31 12 15 0 18 -5 13
-24 -3 -12 -3 -26 0 -29 10 -10 44 12 44 28 0 23 45 18 56 -5 12 -27 39 -10
29 19 -5 18 -14 21 -61 21 -41 0 -54 4 -54 15 0 21 -33 19 -53 -3z"/>
<path d="M4820 4380 c0 -5 7 -10 15 -10 8 0 15 5 15 10 0 6 -7 10 -15 10 -8 0
-15 -4 -15 -10z"/>
<path d="M4467 4343 c-2 -5 -3 -30 -2 -58 1 -38 5 -51 18 -53 10 -2 17 3 17
12 0 24 17 28 50 11 35 -18 47 -40 32 -58 -7 -8 -8 -26 -2 -52 5 -22 10 -53
10 -69 0 -25 -3 -28 -25 -24 -32 7 -32 3 7 -33 25 -22 42 -29 73 -29 22 0 46
-4 54 -9 19 -12 67 12 73 37 4 15 1 18 -12 15 -20 -5 -86 32 -94 52 -3 8 -14
15 -24 15 -28 0 -31 8 -19 46 8 27 8 40 -2 56 -12 19 -10 23 10 39 l24 18 -37
15 c-20 9 -40 20 -43 26 -4 6 -10 8 -14 6 -4 -3 -18 6 -29 19 -21 24 -56 33
-65 18z"/>
<path d="M4629 4333 c-15 -17 2 -33 38 -33 34 0 36 17 4 33 -27 13 -32 13 -42
0z"/>
<path d="M5027 4288 l-38 -37 38 2 c31 2 40 -2 48 -20 5 -13 24 -30 42 -38 17
-8 34 -21 36 -28 4 -8 6 -8 6 -1 1 7 -15 26 -34 43 -40 35 -40 35 -21 54 13
13 11 17 -12 38 l-27 24 -38 -37z"/>
<path d="M4276 4265 c-3 -9 1 -32 10 -52 14 -27 15 -41 6 -69 -9 -32 -8 -36
15 -51 24 -16 26 -16 39 2 13 17 12 21 -5 35 -19 14 -28 69 -19 125 4 26 -36
34 -46 10z"/>
<path d="M4840 4270 c0 -5 5 -10 11 -10 5 0 7 5 4 10 -3 6 -8 10 -11 10 -2 0
-4 -4 -4 -10z"/>
<path d="M4364 4236 c-8 -22 3 -33 18 -18 9 9 9 15 0 24 -9 9 -13 7 -18 -6z"/>
<path d="M4806 4234 c-20 -19 -20 -25 -2 -18 8 3 17 12 20 20 7 18 1 18 -18
-2z"/>
<path d="M4716 4215 c-25 -20 -28 -26 -17 -39 17 -20 55 -21 71 -1 11 13 10
18 -2 28 -9 7 -17 17 -19 24 -3 7 -15 3 -33 -12z"/>
<path d="M4870 4222 c0 -14 8 -21 30 -24 23 -4 30 -1 30 12 0 9 -6 17 -12 17
-7 0 -21 4 -30 8 -14 5 -18 2 -18 -13z"/>
<path d="M4440 4180 c0 -14 -7 -20 -24 -20 -33 0 -49 -22 -33 -44 12 -17 15
-16 45 14 31 30 43 70 22 70 -5 0 -10 -9 -10 -20z"/>
<path d="M4540 4190 c0 -5 5 -10 10 -10 6 0 10 5 10 10 0 6 -4 10 -10 10 -5 0
-10 -4 -10 -10z"/>
<path d="M5098 4123 c3 -14 8 -21 11 -16 3 4 9 10 13 13 4 3 -1 11 -11 17 -16
10 -17 8 -13 -14z"/>
<path d="M5198 4103 c7 -3 16 -2 19 1 4 3 -2 6 -13 5 -11 0 -14 -3 -6 -6z"/>
<path d="M4396 4061 c-9 -14 2 -51 15 -51 11 0 12 30 0 49 -6 9 -11 10 -15 2z"/>
<path d="M4450 4035 c0 -8 7 -15 16 -15 14 0 14 3 4 15 -7 8 -14 15 -16 15 -2
0 -4 -7 -4 -15z"/>
<path d="M5180 3992 c0 -11 -3 -34 -6 -51 -4 -20 -3 -31 5 -31 6 0 11 9 11 20
0 10 7 23 16 28 20 11 14 46 -9 50 -11 2 -17 -3 -17 -16z"/>
<path d="M4518 3959 c-22 -23 -22 -29 -3 -29 12 0 35 28 35 44 0 11 -15 4 -32
-15z"/>
<path d="M4667 3964 c-4 -4 -4 -10 -1 -15 6 -10 34 0 34 12 0 10 -24 12 -33 3z"/>
<path d="M4250 3952 c0 -5 9 -21 20 -35 29 -36 26 -50 -9 -42 -23 5 -31 1 -45
-19 -18 -28 -20 -54 -7 -75 7 -12 14 -10 36 7 15 12 30 20 34 18 4 -3 5 -23 3
-45 -3 -30 -9 -41 -21 -41 -9 0 -22 -4 -30 -9 -11 -7 -11 -13 3 -32 21 -31 20
-44 -5 -79 -23 -30 -20 -60 6 -60 8 0 16 -6 16 -12 2 -18 1 -21 -6 -39 -5 -13
0 -15 24 -11 l31 4 -29 55 c-36 67 -32 83 19 83 31 0 39 -4 44 -22 7 -29 50
-50 79 -38 20 7 20 9 5 15 -24 9 -23 32 1 45 21 11 35 56 33 108 -1 26 3 35
24 42 14 6 38 10 53 10 35 0 51 17 51 52 0 19 -5 28 -16 28 -12 0 -15 6 -10
25 6 23 5 24 -20 15 -38 -15 -48 -12 -59 12 -11 26 -45 37 -45 16 0 -29 -20
-36 -63 -21 -23 8 -49 20 -57 28 -20 17 -60 29 -60 17z m175 -172 c0 -41 3
-78 7 -81 11 -7 -14 -57 -32 -63 -8 -4 -20 -9 -27 -12 -8 -3 -22 15 -37 47
-25 51 -25 52 -9 103 19 56 47 87 78 83 18 -2 20 -9 20 -77z m135 30 c0 -5 -4
-10 -10 -10 -5 0 -10 5 -10 10 0 6 5 10 10 10 6 0 10 -4 10 -10z"/>
<path d="M4360 3727 c0 -30 10 -40 26 -26 10 8 11 16 3 30 -14 26 -29 24 -29
-4z"/>
<path d="M5124 3845 c-3 -14 -3 -37 0 -51 6 -24 5 -26 -16 -19 -46 15 -82 11
-86 -9 -3 -16 0 -18 22 -12 19 5 28 1 36 -14 9 -16 6 -22 -15 -36 -26 -17 -34
-54 -12 -54 7 0 23 7 36 16 15 11 35 15 61 11 36 -5 38 -3 44 27 6 26 2 35
-20 52 -20 17 -25 27 -19 44 7 22 8 22 36 -11 24 -28 32 -32 46 -23 25 15 30
82 7 91 -10 4 -20 0 -26 -10 -11 -21 -47 -22 -54 -3 -10 26 -33 27 -40 1z"/>
<path d="M5088 3618 c-4 -43 -39 -50 -74 -17 -21 19 -28 21 -44 12 -13 -9 -28
-9 -51 -3 -24 7 -35 6 -41 -3 -15 -23 -8 -30 26 -24 26 4 40 0 57 -14 12 -10
28 -19 35 -19 7 0 16 -16 20 -35 4 -26 13 -37 30 -41 13 -3 28 -12 35 -20 6
-8 21 -14 34 -14 30 0 64 72 45 95 -10 12 -9 20 4 40 12 19 13 25 4 26 -7 1
-20 2 -28 3 -8 0 -15 10 -15 21 0 11 -8 21 -17 23 -12 2 -17 -5 -20 -30z"/>
<path d="M5192 3508 c5 -32 28 -35 28 -4 0 17 -5 26 -16 26 -10 0 -14 -7 -12
-22z"/>
<path d="M4458 3512 c-10 -2 -18 -10 -18 -18 0 -10 10 -13 33 -12 26 3 31 0
29 -14 -2 -14 4 -18 24 -18 21 0 25 3 19 18 -5 9 -8 24 -9 34 0 16 -27 19 -78
10z"/>
<path d="M4616 3402 c-3 -6 -1 -14 5 -17 15 -10 25 3 12 16 -7 7 -13 7 -17 1z"/>
<path d="M4440 3380 c0 -11 7 -20 15 -20 17 0 18 2 9 24 -9 23 -24 20 -24 -4z"/>
<path d="M4311 3377 c-6 -8 -8 -17 -4 -20 7 -8 33 11 33 24 0 13 -16 11 -29
-4z"/>
<path d="M4611 2961 c-11 -21 -27 -41 -36 -44 -19 -8 -19 -47 0 -94 14 -32 14
-39 1 -51 -18 -19 -36 -7 -36 24 0 14 -6 24 -14 24 -26 0 -29 -21 -7 -41 12
-11 21 -27 21 -36 0 -9 7 -24 16 -34 15 -16 15 -22 -1 -71 -22 -65 -29 -74
-63 -81 -21 -4 -35 2 -61 26 -19 18 -31 27 -28 21 8 -14 -17 -26 -38 -18 -9 4
-15 0 -15 -10 0 -19 36 -22 43 -3 3 9 10 7 23 -6 16 -15 17 -20 5 -39 -11 -18
-11 -22 3 -30 21 -12 20 -47 -1 -54 -37 -12 -59 -26 -101 -63 -38 -34 -41 -41
-36 -70 7 -34 45 -67 67 -58 7 3 37 22 65 43 51 38 62 57 41 69 -7 5 -5 15 5
30 9 13 13 31 10 39 -7 17 32 41 59 37 15 -2 17 2 13 17 -5 14 3 28 29 51 20
17 40 31 45 31 6 0 10 6 10 14 0 8 10 22 22 30 20 14 21 18 8 55 -11 35 -16
40 -37 35 -29 -8 -29 3 -1 33 20 21 21 27 10 56 -15 42 -15 47 1 47 16 0 67
-52 67 -68 0 -7 -5 -21 -11 -31 -10 -15 -8 -22 9 -39 21 -21 52 -21 52 0 0 18
24 1 30 -21 10 -45 25 -19 25 47 0 52 5 75 23 102 12 19 22 47 22 62 0 21 4
26 16 21 12 -4 14 0 9 20 -4 14 -2 35 5 46 6 12 7 21 2 21 -16 0 -101 -80
-107 -100 -8 -26 -42 -26 -50 1 -6 18 -12 20 -47 14 -40 -7 -41 -6 -34 16 18
58 19 69 2 69 -8 0 -24 -17 -35 -39z m149 -136 c0 -8 -9 -15 -20 -15 -20 0
-26 11 -13 23 12 13 33 7 33 -8z m20 -59 c0 -18 -20 -32 -47 -34 -27 -1 -29 5
-6 30 19 21 53 24 53 4z m-295 -246 c3 -5 2 -10 -4 -10 -5 0 -13 5 -16 10 -3
6 -2 10 4 10 5 0 13 -4 16 -10z m-55 -120 c0 -13 -7 -20 -20 -20 -23 0 -26 10
-8 28 18 18 28 15 28 -8z"/>
<path d="M4380 2892 c0 -12 19 -26 26 -19 2 2 -2 10 -11 17 -9 8 -15 8 -15 2z"/>
<path d="M4710 2619 c0 -5 5 -7 10 -4 6 3 10 8 10 11 0 2 -4 4 -10 4 -5 0 -10
-5 -10 -11z"/>
<path d="M4820 2540 c0 -5 5 -10 11 -10 5 0 7 5 4 10 -3 6 -8 10 -11 10 -2 0
-4 -4 -4 -10z"/>
<path d="M4876 2458 c-9 -12 -16 -37 -16 -55 0 -26 -4 -33 -19 -33 -10 0 -29
-8 -42 -19 -20 -16 -23 -27 -22 -76 1 -36 7 -63 17 -74 9 -10 16 -24 16 -32 0
-8 5 -20 11 -26 23 -23 -1 -34 -63 -27 l-60 7 -49 -49 c-59 -58 -68 -90 -17
-63 18 10 19 8 13 -13 -4 -12 -16 -30 -27 -39 -12 -9 -24 -35 -28 -60 -4 -24
-9 -51 -11 -58 -3 -11 9 -18 39 -25 60 -13 68 -2 47 66 l-18 55 28 47 c26 44
28 46 45 31 11 -10 26 -14 38 -11 11 4 31 1 46 -5 31 -15 41 -8 27 19 -13 23
-3 62 15 62 8 0 14 9 14 20 0 11 7 23 16 27 13 5 15 15 9 58 -7 62 6 78 54 69
35 -7 37 -27 3 -32 -17 -3 -22 -10 -22 -31 0 -16 7 -35 16 -42 13 -11 17 -10
26 4 9 17 14 22 55 55 31 24 33 111 4 167 -12 21 -21 45 -21 52 0 21 -23 27
-36 8 -12 -17 -15 -16 -31 14 -21 37 -36 39 -57 9z m24 -78 c0 -5 -4 -10 -10
-10 -5 0 -10 5 -10 10 0 6 5 10 10 10 6 0 10 -4 10 -10z m-24 -56 c-8 -22 25
-30 39 -11 15 21 29 21 45 1 23 -27 -6 -43 -67 -37 -46 5 -53 8 -53 27 0 25
19 48 32 40 5 -3 7 -12 4 -20z"/>
<path d="M4680 2455 c0 -8 7 -15 16 -15 14 0 14 3 4 15 -7 8 -14 15 -16 15 -2
0 -4 -7 -4 -15z"/>
<path d="M4510 2390 c0 -5 6 -10 14 -10 8 0 18 5 21 10 3 6 -3 10 -14 10 -12
0 -21 -4 -21 -10z"/>
<path d="M4590 2201 c0 -5 12 -18 26 -28 24 -17 25 -22 13 -41 -17 -27 -4 -41
18 -19 13 13 15 24 7 54 -7 31 -14 39 -36 41 -16 2 -28 -1 -28 -7z"/>
<path d="M5000 2072 c0 -22 -4 -29 -17 -28 -12 1 -19 -7 -21 -22 -3 -20 0 -23
19 -20 19 2 25 -3 29 -27 5 -24 10 -29 28 -28 26 3 32 -31 7 -41 -8 -3 -15
-14 -15 -24 0 -27 -53 -82 -78 -82 -13 0 -22 -6 -22 -15 0 -9 -9 -19 -21 -23
l-20 -8 20 -18 c12 -11 29 -16 41 -13 27 7 36 -10 10 -18 -12 -4 -28 -1 -36 6
-9 7 -32 10 -64 6 -27 -3 -52 -2 -55 4 -4 5 -17 9 -31 9 -24 0 -24 -1 -8 -26
15 -22 22 -24 54 -19 22 4 53 0 81 -9 24 -9 57 -16 73 -16 21 0 27 -4 22 -16
-3 -9 -6 -18 -6 -20 0 -2 -16 -4 -35 -4 -39 0 -42 -4 -19 -28 14 -13 21 -14
48 -3 17 7 38 13 46 14 8 1 19 8 23 15 14 21 53 14 67 -13 17 -31 12 -35 -42
-41 -57 -7 -64 -16 -29 -41 27 -21 30 -21 64 -6 25 12 37 25 41 44 4 23 13 30
48 40 59 15 122 41 130 54 14 18 8 25 -21 25 -24 0 -29 5 -35 30 -7 37 -96
135 -135 148 -16 6 -34 6 -42 2 -8 -5 -19 -4 -26 2 -19 16 -16 28 7 28 11 0
23 8 26 18 3 9 12 33 20 52 25 61 -14 117 -93 135 -31 6 -33 5 -33 -23z m175
-290 c73 -35 84 -75 36 -123 -33 -33 -80 -39 -106 -13 -25 26 -12 39 39 40 54
2 64 8 46 29 -9 10 -17 12 -30 5 -11 -6 -30 -6 -51 0 -19 6 -45 8 -59 5 -14
-3 -31 -1 -38 3 -19 12 2 60 30 71 29 11 94 3 133 -17z"/>
<path d="M4870 1926 c0 -9 7 -16 16 -16 17 0 14 22 -4 28 -7 2 -12 -3 -12 -12z"/>
<path d="M4331 1647 c28 -21 139 -41 152 -28 22 22 -11 36 -91 38 -61 1 -74
-1 -61 -10z"/>
<path d="M1632 1628 c-5 -7 -21 -37 -36 -65 -14 -29 -31 -53 -36 -53 -6 0 -10
-4 -10 -8 0 -22 35 -5 63 30 16 21 39 38 49 38 22 0 23 -13 3 -30 -8 -6 -27
-33 -42 -58 -19 -34 -28 -42 -31 -30 -3 14 -7 16 -23 8 -26 -15 -26 -50 1 -43
17 5 20 0 20 -26 0 -35 8 -38 36 -13 72 66 118 73 238 37 55 -17 61 -17 87 -2
36 20 47 5 18 -24 -17 -17 -29 -20 -60 -16 -69 9 -57 -25 14 -38 20 -4 37 -11
37 -16 0 -12 -42 -39 -62 -39 -10 0 -17 -3 -17 -7 5 -31 -4 -43 -36 -49 -38
-7 -49 -18 -50 -48 0 -15 -16 -26 -65 -44 -36 -13 -80 -28 -98 -32 -19 -5 -41
-15 -51 -24 -35 -32 -202 -15 -226 24 -11 19 0 21 46 11 33 -8 61 -6 109 5 36
8 83 18 105 23 22 4 51 13 64 20 24 13 24 14 6 27 -10 8 -24 14 -29 14 -16 1
34 40 49 40 16 0 29 35 20 50 -7 12 -54 -10 -74 -34 -18 -22 -38 -20 -44 4 -3
11 -9 20 -14 19 -27 -5 -33 2 -23 21 26 48 -38 54 -119 10 -52 -28 -56 -28
-90 -14 -46 19 -108 62 -114 79 -9 23 -130 37 -200 24 -75 -14 -81 -18 -68
-52 9 -23 7 -29 -16 -47 -33 -25 -68 -26 -100 0 -14 11 -43 23 -64 26 -21 4
-44 13 -50 20 -9 11 -16 10 -39 -6 -35 -25 -70 -80 -70 -109 0 -25 47 -93 84
-122 15 -12 25 -28 24 -37 -2 -12 3 -16 20 -14 12 2 22 -1 22 -7 0 -5 26 -23
59 -39 58 -29 59 -29 177 -21 66 4 144 15 174 23 61 18 157 21 180 6 8 -5 15
-20 15 -32 0 -22 4 -23 95 -26 147 -4 441 17 467 34 12 8 30 14 40 14 15 0 15
-2 3 -9 -8 -6 -18 -7 -22 -5 -4 3 -8 -4 -8 -15 0 -15 14 -24 65 -40 79 -26 85
-26 85 -1 0 26 18 25 54 -4 l28 -24 54 32 c46 26 53 35 49 54 -5 19 -1 23 24
28 20 4 37 18 50 40 17 29 26 34 57 34 20 0 58 -11 86 -25 27 -14 58 -25 68
-25 31 0 69 22 76 43 4 12 16 29 28 38 11 10 19 19 16 21 -3 2 -20 16 -38 31
-26 21 -44 27 -80 27 -26 0 -60 7 -76 15 -15 8 -48 15 -72 15 -23 0 -46 5 -49
10 -6 10 1 14 48 24 27 6 27 7 12 36 -11 21 -23 30 -40 30 -25 0 -51 -32 -40
-50 7 -11 -46 -40 -73 -40 -18 0 -42 18 -42 32 0 4 16 8 35 8 38 0 47 15 15
25 -25 8 -26 23 -2 32 9 4 30 19 46 35 23 22 27 31 18 40 -7 7 -12 20 -12 29
0 22 -47 79 -66 79 -8 0 -14 5 -14 10 0 6 12 10 27 10 20 0 24 3 16 11 -7 7
-66 12 -150 14 -76 2 -162 7 -191 10 -33 5 -57 3 -66 -4 -10 -9 -30 -3 -84 24
-57 28 -83 35 -130 35 -36 0 -64 -5 -70 -12z m196 -47 c3 -8 -1 -12 -9 -9 -7
2 -15 10 -17 17 -3 8 1 12 9 9 7 -2 15 -10 17 -17z m210 -42 c-2 -13 -26 -35
-62 -57 -53 -33 -65 -37 -120 -35 -33 2 -64 7 -70 13 -5 5 -25 10 -42 10 -64
0 -54 31 16 49 90 24 100 24 100 2 0 -11 -5 -23 -11 -27 -8 -4 -8 -9 0 -17 7
-7 18 -3 35 16 14 15 31 27 39 27 8 0 22 9 32 20 11 13 31 20 52 20 29 0 34
-3 31 -21z m202 -14 c-28 -16 -70 -20 -70 -6 0 11 24 18 65 19 l30 1 -25 -14z
m-97 -2 c-7 -2 -21 -2 -30 0 -10 3 -4 5 12 5 17 0 24 -2 18 -5z m137 -78 c0
-10 -10 -15 -27 -15 -27 1 -27 1 -9 15 25 19 36 19 36 0z m-101 -18 c6 -8 8
-17 4 -20 -11 -12 -41 -7 -46 7 -10 27 22 36 42 13z m-1034 -77 c0 -23 -29
-23 -43 0 -12 20 -11 21 15 18 17 -2 28 -9 28 -18z m1088 -32 c-3 -18 -7 -34
-7 -35 -1 -1 -27 1 -59 4 -47 5 -55 8 -46 19 6 8 19 14 28 14 10 0 26 7 37 15
10 8 27 15 36 15 14 0 16 -6 11 -32z m-1415 -29 c23 -17 42 -34 42 -39 0 -5
-14 -11 -31 -15 -22 -5 -36 -2 -49 10 -23 20 -34 50 -25 65 9 15 18 13 63 -21z
m236 -26 c-3 -10 2 -27 10 -38 l15 -20 6 20 c12 38 23 50 41 48 61 -6 144 -20
149 -25 3 -3 -10 -19 -30 -37 -30 -26 -44 -31 -85 -31 -58 0 -66 -17 -23 -48
l27 -19 -23 -8 c-15 -5 -20 -12 -16 -25 5 -15 -4 -19 -58 -29 -91 -16 -167
-15 -167 3 0 18 53 28 84 16 27 -10 36 -5 36 23 0 20 5 20 55 2 16 -6 16 -3
-5 15 -22 18 -34 20 -98 17 -63 -4 -74 -2 -83 14 -10 20 -54 26 -64 9 -8 -13
-62 -13 -70 -1 -7 12 26 31 54 31 11 0 31 10 45 23 26 24 87 47 123 47 11 0
26 7 33 15 18 21 49 20 44 -2z m331 -24 c22 -41 14 -58 -13 -31 -22 22 -30 62
-12 62 5 0 17 -14 25 -31z m595 -24 c7 -8 23 -15 36 -15 16 0 24 -6 24 -18 0
-10 5 -23 11 -29 15 -15 -53 -36 -101 -31 -45 4 -49 33 -5 33 35 0 36 17 3 53
l-21 22 20 0 c11 0 26 -7 33 -15z m270 -17 c0 -4 -16 -8 -35 -8 -35 0 -51 23
-22 33 15 5 57 -13 57 -25z m-740 12 c12 -8 11 -10 -7 -10 -13 0 -23 5 -23 10
0 13 11 13 30 0z m-174 -67 c-4 -4 -11 -1 -16 7 -16 25 -11 35 7 17 9 -9 13
-20 9 -24z m1279 -3 c3 -5 -3 -10 -14 -10 -12 0 -21 5 -21 10 0 6 6 10 14 10
8 0 18 -4 21 -10z m-1745 -50 c0 -5 -2 -10 -4 -10 -3 0 -8 5 -11 10 -3 6 -1
10 4 10 6 0 11 -4 11 -10z m1226 -41 c3 -6 1 -16 -5 -22 -13 -13 -42 0 -49 21
-5 15 44 16 54 1z m-532 -35 c29 -11 5 -24 -44 -24 -46 0 -67 9 -53 24 8 8 76
8 97 0z"/>
<path d="M1040 1170 c0 -5 5 -10 10 -10 6 0 10 5 10 10 0 6 -4 10 -10 10 -5 0
-10 -4 -10 -10z"/>
<path d="M5396 1624 c-4 -11 -13 -14 -30 -10 -23 6 -23 4 -18 -41 5 -43 29
-83 52 -83 10 0 50 76 50 95 0 6 -11 22 -24 34 -21 20 -24 20 -30 5z"/>
<path d="M4798 1623 c12 -2 32 -2 45 0 12 2 2 4 -23 4 -25 0 -35 -2 -22 -4z"/>
<path d="M5206 1573 c-12 -12 -6 -33 9 -33 8 0 15 6 15 14 0 17 -14 28 -24 19z"/>
<path d="M3575 1546 c33 -28 80 -34 88 -11 8 19 -3 25 -65 31 l-53 6 30 -26z"/>
<path d="M3413 1534 c-18 -8 -33 -19 -33 -24 0 -7 7 -7 21 1 12 6 35 8 53 6
82 -15 124 -26 154 -41 34 -18 44 -41 15 -32 -37 11 -93 18 -93 12 0 -3 9 -15
20 -26 32 -32 25 -43 -21 -36 -27 4 -46 2 -57 -6 -10 -9 -44 -12 -106 -11 -72
2 -87 0 -72 -9 11 -6 29 -11 40 -12 12 -1 22 -9 24 -20 3 -15 0 -17 -14 -11
-11 5 -32 9 -49 9 -24 1 -31 -4 -33 -23 -2 -13 -12 -25 -21 -28 -10 -2 -25
-18 -35 -34 -9 -16 -23 -29 -30 -29 -8 0 -27 -7 -42 -15 -16 -8 -40 -15 -54
-15 -25 -1 -25 -1 8 -29 38 -33 82 -38 82 -11 0 25 25 43 50 35 29 -9 25 -20
-15 -39 -19 -9 -35 -23 -35 -31 0 -19 29 -47 42 -39 5 4 42 8 81 9 40 2 78 3
85 4 21 2 13 19 -10 23 -12 2 -24 10 -26 18 -3 8 -2 12 2 8 4 -3 23 0 41 8 48
20 55 18 55 -16 0 -24 4 -30 21 -30 12 0 23 8 26 20 3 11 12 20 19 20 18 0 18
-9 0 -29 -24 -27 -24 -56 1 -59 34 -5 43 -23 33 -66 -10 -43 -8 -41 -37 -50
-14 -5 -23 -3 -23 3 0 6 5 11 10 11 6 0 10 14 10 30 0 36 -16 39 -53 10 -14
-11 -37 -20 -51 -20 -28 0 -35 -17 -11 -26 8 -4 15 -12 15 -18 0 -16 43 -36
75 -36 14 0 25 5 25 11 0 15 67 3 98 -17 18 -12 23 -12 26 -2 12 39 14 41 15
19 1 -31 98 -127 138 -137 27 -7 28 -6 11 13 -27 29 -22 36 12 16 17 -9 30
-21 30 -26 0 -4 14 -13 30 -19 36 -12 35 -28 -5 -47 l-29 -14 24 -9 c14 -5 32
-7 42 -5 9 3 18 2 20 -2 2 -4 32 -4 68 -1 36 4 91 3 122 -2 34 -5 92 -4 144 2
60 6 93 6 106 -1 11 -6 34 -8 52 -5 24 5 36 1 49 -15 15 -17 25 -20 55 -14 20
4 49 17 65 31 15 13 50 31 77 41 54 19 80 55 80 110 0 19 9 38 25 53 33 31 32
41 -4 34 -23 -5 -32 -1 -50 22 -21 27 -22 37 -5 78 6 17 4 18 -20 12 -26 -6
-97 24 -137 60 -8 8 -30 14 -47 14 -28 0 -32 3 -32 28 0 55 32 61 81 15 14
-13 39 -27 55 -32 16 -4 33 -17 39 -29 14 -33 44 -38 69 -13 32 33 12 56 -50
57 -66 1 -88 10 -104 39 -13 24 -60 55 -85 55 -6 0 -24 -13 -40 -30 -33 -34
-52 -38 -71 -12 -10 14 -29 17 -101 19 -77 1 -89 4 -102 22 -8 13 -24 21 -40
21 -49 0 -158 36 -206 69 -47 32 -51 33 -155 33 -96 -1 -107 1 -119 20 -11 17
-10 22 8 35 12 8 21 23 21 34 0 18 4 20 33 14 39 -8 121 -33 162 -48 17 -7 34
-10 39 -9 5 2 38 -9 73 -23 65 -26 123 -33 123 -15 0 6 -14 10 -30 10 -17 0
-58 12 -93 26 -77 32 -250 89 -297 99 -19 4 -45 13 -57 21 -33 21 -125 54
-148 53 -11 0 -35 -7 -52 -15z m220 -202 l27 -28 -25 -24 c-16 -15 -43 -26
-74 -30 l-48 -6 8 29 c7 26 5 30 -21 40 -55 21 -30 33 91 45 8 1 27 -11 42
-26z m-292 -77 c0 -5 -9 -11 -21 -13 -20 -3 -27 8 -13 22 10 9 34 3 34 -9z
m149 -49 c0 -8 -31 -36 -41 -36 -5 0 -9 9 -9 20 0 15 7 20 25 20 14 0 25 -2
25 -4z m-200 -42 c0 -8 -19 -13 -24 -6 -3 5 1 9 9 9 8 0 15 -2 15 -3z m1012
-4 c31 0 40 -4 47 -22 5 -15 4 -26 -2 -30 -18 -11 -259 4 -294 18 -73 29 -24
45 121 38 49 -2 107 -4 128 -4z m278 -206 c0 -25 -15 -33 -23 -11 -6 18 4 48
14 41 5 -3 9 -16 9 -30z m-861 -58 c25 -14 54 -27 64 -30 23 -7 22 -28 -3 -44
-29 -18 -70 6 -97 57 -12 23 -20 41 -16 41 3 0 26 -11 52 -24z m954 -26 c15
-17 27 -37 27 -45 0 -14 -54 -55 -72 -55 -13 0 -39 32 -35 44 6 19 38 19 53
-1 13 -17 14 -16 12 12 -3 28 -31 51 -82 68 -5 2 -6 8 -3 14 12 18 69 -3 100
-37z m-146 -22 c-3 -8 -6 -5 -6 6 -1 11 2 17 5 13 3 -3 4 -12 1 -19z"/>
<path d="M3998 1543 c6 -2 18 -2 25 0 6 3 1 5 -13 5 -14 0 -19 -2 -12 -5z"/>
<path d="M5315 1509 c-4 -6 -5 -13 -2 -16 7 -7 27 6 27 18 0 12 -17 12 -25 -2z"/>
<path d="M3192 1487 c3 -6 22 -13 44 -15 46 -4 36 12 -14 22 -24 4 -32 2 -30
-7z"/>
<path d="M1478 1473 c12 -2 30 -2 40 0 9 3 -1 5 -23 4 -22 0 -30 -2 -17 -4z"/>
<path d="M4985 1470 c-12 -20 15 -40 44 -33 36 8 39 13 17 29 -23 17 -52 18
-61 4z"/>
<path d="M1300 1455 c-8 -9 -8 -15 -2 -15 12 0 26 19 19 26 -2 2 -10 -2 -17
-11z"/>
<path d="M3398 1442 c-24 -5 -23 -18 4 -36 16 -11 25 -13 35 -4 29 24 4 50
-39 40z"/>
<path d="M4928 1419 c-27 -46 -23 -86 11 -120 16 -16 39 -29 50 -29 11 0 23
-4 26 -10 9 -14 58 -13 73 2 25 25 3 112 -27 106 -15 -3 -19 -26 -10 -57 6
-21 -19 -25 -25 -3 -4 10 -23 27 -44 38 -41 22 -51 46 -28 70 19 19 21 34 4
34 -7 0 -21 -14 -30 -31z"/>
<path d="M1305 1387 c-17 -13 -17 -14 4 -20 16 -4 21 -1 21 14 0 23 -1 23 -25
6z"/>
<path d="M3086 1331 c-13 -20 30 -53 69 -55 45 -1 54 15 26 43 -22 22 -85 29
-95 12z"/>
<path d="M1623 1313 c-18 -7 -16 -33 2 -33 8 0 15 2 15 4 0 2 3 11 6 20 6 16
0 19 -23 9z"/>
<path d="M2915 1300 c-3 -5 1 -10 9 -10 8 0 18 5 21 10 3 6 -1 10 -9 10 -8 0
-18 -4 -21 -10z"/>
<path d="M4095 1300 c3 -5 18 -10 33 -10 21 0 24 2 12 10 -20 13 -53 13 -45 0z"/>
<path d="M1796 1284 c-5 -12 1 -15 26 -12 42 4 50 28 10 28 -18 0 -32 -6 -36
-16z"/>
<path d="M5600 1289 c-41 -5 -92 -6 -113 -3 -29 5 -51 0 -95 -22 -65 -32 -55
-41 29 -25 64 13 219 6 254 -12 11 -5 30 -19 42 -30 24 -22 53 -20 119 8 37
15 37 15 18 36 -41 46 -129 63 -254 48z"/>
<path d="M2940 1241 c-39 -34 -43 -41 -30 -55 27 -33 44 -35 93 -12 46 23 46
23 27 41 -11 10 -20 29 -20 42 0 32 -18 28 -70 -16z"/>
<path d="M9681 1267 c-8 -11 13 -38 100 -126 98 -100 113 -111 126 -98 11 11
12 20 5 33 -14 26 -197 204 -209 204 -6 0 -16 -6 -22 -13z"/>
<path d="M4390 1250 c0 -5 5 -10 11 -10 5 0 7 5 4 10 -3 6 -8 10 -11 10 -2 0
-4 -4 -4 -10z"/>
<path d="M5290 1211 c-14 -8 -75 -22 -113 -26 -22 -2 -43 -22 -34 -32 4 -4 22
-2 40 5 17 6 43 9 56 5 16 -4 26 -1 33 11 5 9 15 16 22 16 8 0 16 7 20 15 6
17 -1 19 -24 6z"/>
<path d="M9605 1200 c-19 -21 -18 -21 98 -138 l117 -117 20 20 20 20 -118 118
-118 118 -19 -21z"/>
<path d="M5540 1192 c0 -17 65 -52 99 -52 28 0 31 -3 31 -29 0 -30 19 -45 45
-35 15 6 15 16 -5 69 -4 12 -15 26 -23 33 -19 17 -147 29 -147 14z"/>
<path d="M5420 1144 c0 -21 -91 -105 -110 -102 -8 2 -17 14 -20 28 -6 22 -11
25 -51 23 -47 -1 -128 -33 -148 -57 -9 -11 -9 -19 1 -36 12 -18 10 -23 -12
-40 -14 -11 -42 -23 -62 -26 -35 -6 -38 -9 -40 -43 -2 -54 -3 -59 -10 -66 -11
-12 -21 43 -16 89 l5 42 -69 12 c-84 15 -138 15 -138 2 0 -6 3 -9 8 -9 23 4
50 -4 71 -20 23 -18 24 -21 13 -59 -11 -36 -16 -40 -40 -39 -23 2 -27 -2 -30
-29 -2 -19 3 -36 12 -44 9 -7 16 -9 16 -6 0 4 9 2 20 -4 38 -21 24 -40 -30
-40 -55 0 -120 -26 -120 -48 0 -10 5 -12 18 -6 13 5 173 43 190 44 1 0 1 6 0
13 -4 17 49 21 95 7 43 -13 67 -2 67 31 0 21 54 59 82 59 9 0 25 -13 34 -29
13 -22 28 -32 56 -36 21 -4 40 -11 44 -16 7 -12 24 -11 24 1 0 23 -81 120
-100 120 -11 0 -20 -4 -20 -10 0 -19 -25 -10 -35 12 -13 29 -43 35 -59 13 -13
-18 -57 -17 -63 1 -6 17 60 44 106 44 23 0 49 4 59 10 9 5 37 18 62 28 25 10
67 36 94 57 58 44 121 74 155 75 25 0 25 0 -9 35 -37 38 -50 43 -50 19z"/>
<path d="M2900 1119 c0 -16 71 -59 97 -59 21 1 53 23 53 37 0 6 -19 13 -42 17
-24 3 -58 9 -75 12 -24 5 -33 3 -33 -7z"/>
<path d="M4960 1095 c0 -20 36 -39 43 -22 7 20 -4 37 -24 37 -10 0 -19 -7 -19
-15z"/>
<path d="M166 1085 c-73 -15 -116 -37 -116 -59 0 -7 -6 -19 -14 -25 -12 -10
-14 -9 -10 7 3 10 -2 24 -10 31 -14 12 -16 9 -16 -23 0 -33 7 -41 33 -37 15 2
6 -19 -13 -31 -20 -13 -20 -24 -20 -480 l0 -468 1200 0 c1142 0 1200 1 1200
18 0 19 -67 39 -167 49 -29 3 -53 10 -53 15 0 6 -7 7 -15 4 -9 -3 -18 0 -21 8
-6 16 -89 33 -190 40 -79 5 -174 21 -249 41 -61 16 -141 33 -220 46 -33 5 -64
15 -70 22 -11 13 -27 17 -100 23 -27 3 -61 7 -75 11 l-25 6 30 13 c17 7 51 13
77 14 50 0 78 7 78 20 0 7 -48 11 -289 23 -49 2 -64 11 -62 33 1 3 72 7 159 9
148 2 232 15 232 35 0 4 -18 11 -41 15 -52 9 -46 27 14 39 26 5 47 13 47 16 0
4 -22 10 -48 14 -27 3 -57 13 -68 21 -29 22 -50 18 -76 -13 -40 -48 -147 -72
-149 -34 -3 36 -2 64 5 117 7 62 -1 68 -38 28 -17 -18 -22 -31 -16 -37 13 -13
13 -46 -1 -46 -6 0 -19 5 -31 11 -16 9 -24 7 -43 -11 -20 -19 -47 -27 -103
-29 -9 -1 -12 -11 -10 -28 2 -16 -2 -28 -11 -31 -10 -3 -12 3 -7 26 6 27 4 31
-25 41 -33 12 -54 6 -43 -11 5 -7 -2 -9 -22 -4 -16 3 -40 9 -53 11 -12 3 -28
1 -35 -4 -27 -23 -122 32 -110 64 5 11 -1 15 -25 15 -22 0 -31 5 -31 16 0 10
-6 14 -15 10 -18 -7 -47 3 -40 14 10 16 -46 50 -70 44 -13 -3 -32 -1 -42 5
-11 7 -13 11 -4 11 7 0 11 6 7 15 -3 8 3 19 14 25 25 14 30 13 24 -5 -7 -17
11 -21 21 -5 3 6 20 10 36 10 22 0 32 -6 39 -25 11 -30 50 -50 114 -59 27 -3
55 -11 62 -17 8 -6 30 -8 58 -4 41 6 51 4 96 -25 28 -18 53 -30 56 -27 3 2 -5
26 -18 53 -19 39 -29 49 -56 55 -18 4 -36 10 -40 13 -10 11 20 26 54 26 33 0
56 -20 93 -81 11 -20 28 -42 36 -49 13 -10 14 -7 12 26 -1 25 -8 41 -18 46 -9
3 -31 29 -49 56 -30 47 -35 50 -83 55 -29 3 -93 10 -143 17 l-92 11 -43 -30
c-33 -22 -45 -26 -47 -15 -4 17 -26 18 -51 2 -10 -6 -27 -8 -37 -4 -16 6 -16
9 -4 16 8 6 25 10 38 10 17 0 22 6 22 24 0 28 -16 36 -71 36 -50 0 -51 17 -1
25 72 12 107 22 92 27 -8 3 -28 9 -44 14 -23 7 -30 16 -32 42 -4 33 -3 33 28
27 44 -9 74 -29 95 -63 9 -15 17 -28 17 -29 1 -1 26 4 56 11 49 11 56 16 64
44 13 48 -5 82 -45 82 -22 0 -32 6 -36 18 -3 14 -15 19 -40 20 -19 1 -41 6
-48 12 -22 18 -241 21 -319 5z m354 -91 c40 -36 50 -54 30 -54 -12 0 -120 77
-120 85 0 3 11 5 25 5 15 0 41 -15 65 -36z m-168 -1 c-10 -4 -9 -8 4 -17 9 -7
14 -18 10 -24 -8 -14 -16 -15 -35 -3 -10 7 -11 13 -2 30 7 11 17 21 24 20 8 0
8 -2 -1 -6z m-72 -73 c0 -5 -9 -10 -20 -10 -11 0 -20 5 -20 10 0 6 9 10 20 10
11 0 20 -4 20 -10z m-180 -31 c0 -6 -4 -7 -10 -4 -5 3 -10 11 -10 16 0 6 5 7
10 4 6 -3 10 -11 10 -16z m165 -139 c3 -6 -5 -10 -19 -10 -14 0 -28 5 -31 10
-3 6 5 10 19 10 14 0 28 -4 31 -10z m420 -20 c18 -20 17 -20 -8 -20 -28 0 -42
14 -32 30 9 15 20 12 40 -10z m319 -282 c21 -30 20 -38 -4 -38 -12 0 -24 10
-30 23 -5 12 -9 16 -9 8 -1 -11 -4 -11 -17 0 -15 12 -14 14 7 20 37 11 37 10
53 -13z"/>
<path d="M5590 1075 c-11 -13 -9 -15 15 -15 16 0 25 5 23 12 -7 19 -24 20 -38
3z"/>
<path d="M4820 1070 c-17 -11 -8 -15 52 -23 40 -6 49 -2 41 19 -6 16 -70 19
-93 4z"/>
<path d="M3173 1043 c-18 -7 -16 -30 3 -37 26 -10 64 -7 64 5 0 25 -40 44 -67
32z"/>
<path d="M3343 1027 c-50 -26 -53 -34 -15 -39 27 -4 115 32 127 52 12 19 -69
9 -112 -13z"/>
<path d="M9537 1007 c-120 -67 -257 -237 -257 -318 0 -42 26 -62 69 -54 156
29 401 321 329 393 -22 22 -81 13 -141 -21z"/>
<path d="M5745 1010 c-3 -6 1 -7 9 -4 18 7 21 14 7 14 -6 0 -13 -4 -16 -10z"/>
<path d="M6019 990 c24 -21 51 -26 51 -12 0 5 -17 14 -37 20 l-38 11 24 -19z"/>
<path d="M1220 973 c0 -11 55 -23 108 -23 17 0 32 5 32 10 0 6 -11 10 -24 10
-13 0 -44 3 -70 6 -28 4 -46 3 -46 -3z"/>
<path d="M5855 970 c-4 -6 8 -10 29 -10 20 0 36 5 36 10 0 6 -13 10 -29 10
-17 0 -33 -4 -36 -10z"/>
<path d="M5367 948 c-9 -7 -19 -25 -22 -39 -5 -21 0 -30 28 -52 76 -57 138
-67 195 -31 34 22 26 101 -12 126 -19 13 -171 9 -189 -4z"/>
<path d="M6087 913 c-4 -3 -7 -16 -7 -28 0 -23 -17 -45 -36 -45 -12 0 -30 37
-26 53 4 13 -16 8 -33 -9 -28 -28 -15 -49 34 -52 76 -6 91 2 91 48 0 38 -8 49
-23 33z"/>
<path d="M1140 889 c-19 -5 -51 -10 -70 -10 -48 -1 -51 -5 -34 -38 17 -34 83
-61 149 -61 29 0 47 -6 60 -20 14 -15 31 -20 74 -20 41 0 68 -7 100 -25 42
-25 95 -33 105 -17 3 5 -11 17 -31 26 -29 14 -34 20 -22 27 19 12 48 2 87 -32
18 -16 42 -31 55 -33 94 -18 145 -31 162 -43 12 -8 48 -13 92 -13 75 0 90 -9
51 -28 -21 -9 -18 -11 20 -11 33 -1 49 5 68 24 13 13 45 32 72 41 62 22 96 63
87 104 -10 45 -36 55 -80 28 -36 -20 -41 -21 -158 -9 -67 6 -150 11 -184 11
-66 0 -79 9 -40 28 17 9 3 10 -65 5 -93 -6 -99 -3 -77 39 11 21 11 21 -127 15
-77 -4 -155 -3 -174 2 -66 17 -85 18 -120 10z m148 -76 c2 -8 -5 -13 -17 -13
-21 0 -35 13 -24 24 10 10 36 3 41 -11z m186 2 c0 -5 -21 -18 -47 -27 -39 -15
-47 -15 -57 -3 -25 30 -4 46 52 43 29 -2 53 -7 52 -13z m437 -78 c-5 -5 -17
-4 -30 3 -30 15 -16 32 15 18 15 -7 21 -15 15 -21z"/>
<path d="M1753 888 c6 -4 42 -8 78 -8 37 0 89 -8 120 -18 30 -11 69 -22 88
-25 33 -7 34 -6 17 11 -9 11 -35 25 -59 32 -44 14 -265 21 -244 8z"/>
<path d="M3390 862 c-37 -12 -40 -59 -5 -72 14 -5 25 -16 25 -24 0 -29 24 -67
39 -64 9 2 16 10 16 18 0 8 10 16 22 18 30 4 45 26 41 57 -2 20 -12 30 -38 40
-19 7 -46 17 -60 22 -14 6 -32 8 -40 5z"/>
<path d="M537 843 c-5 -7 -19 -13 -32 -13 -35 0 -26 -35 9 -36 29 -1 40 13 34
43 -2 13 -6 15 -11 6z"/>
<path d="M2953 827 c-54 -14 -55 -22 -1 -26 38 -2 57 9 58 32 0 8 1 8 -57 -6z"/>
<path d="M2707 773 c-3 -3 -3 -11 0 -18 5 -14 33 -9 33 5 0 10 -26 20 -33 13z"/>
<path d="M9125 720 c-19 -21 -18 -21 98 -138 l117 -117 20 20 20 20 -118 118
-118 118 -19 -21z"/>
<path d="M1042 708 c-19 -19 -14 -28 16 -28 27 0 52 15 52 32 0 13 -55 9 -68
-4z"/>
<path d="M3370 680 c-11 -7 -7 -10 18 -10 17 0 32 5 32 10 0 13 -30 13 -50 0z"/>
<path d="M5015 670 c-10 -16 4 -30 31 -30 22 0 23 3 14 20 -11 21 -35 27 -45
10z"/>
<path d="M5110 661 c0 -11 -6 -22 -12 -24 -9 -4 -5 -12 12 -26 14 -12 31 -18
40 -14 8 4 49 9 90 12 l75 6 3 33 3 32 -105 0 c-98 0 -106 -1 -106 -19z"/>
<path d="M4867 654 c-14 -14 6 -24 49 -24 32 0 44 4 42 13 -5 13 -79 22 -91
11z"/>
<path d="M3590 629 c-30 -10 -59 -24 -64 -29 -17 -17 15 -11 63 10 24 11 56
20 72 20 16 0 29 5 29 10 0 15 -39 11 -100 -11z"/>
<path d="M9052 638 c-7 -7 -8 -17 -1 -29 10 -19 -16 -93 -67 -189 l-24 -44 22
-23 c12 -13 26 -23 32 -23 6 0 53 18 104 41 66 29 103 40 125 36 17 -2 37 1
43 8 10 9 -12 36 -99 123 -62 62 -115 112 -118 112 -3 0 -10 -5 -17 -12z"/>
<path d="M2414 611 c-18 -11 -35 -24 -39 -30 -9 -16 23 -25 39 -12 8 7 20 11
28 10 32 -4 43 2 44 26 2 31 -27 34 -72 6z"/>
<path d="M2670 610 c27 -21 27 -21 -47 -40 -25 -6 -47 -19 -54 -31 -7 -14 -17
-19 -31 -16 -14 4 -18 2 -14 -10 3 -8 6 -19 6 -24 0 -4 12 -4 27 2 29 11 72
-5 126 -48 15 -12 48 -25 75 -29 80 -11 207 -41 229 -53 12 -6 30 -11 41 -11
11 0 48 -9 83 -21 70 -22 271 -31 290 -12 15 15 1 40 -31 53 -15 6 -41 24 -57
40 -46 45 -218 127 -314 149 -48 11 -102 27 -120 34 -67 29 -107 37 -170 37
l-64 0 25 -20z"/>
<path d="M680 585 c0 -26 14 -32 40 -15 13 8 12 10 -2 10 -10 0 -18 7 -18 15
0 8 -4 15 -10 15 -5 0 -10 -11 -10 -25z"/>
<path d="M1505 570 c4 -6 11 -8 16 -5 14 9 11 15 -7 15 -8 0 -12 -5 -9 -10z"/>
<path d="M3923 554 c-21 -9 -15 -21 12 -28 14 -4 25 -13 25 -21 0 -19 2 -19
47 0 40 17 123 20 123 5 0 -23 -48 -35 -137 -34 -51 1 -90 -2 -88 -7 8 -11 -7
-18 -48 -21 -21 -1 -37 -5 -37 -9 0 -3 -15 -10 -32 -16 l-33 -9 41 -27 c23
-14 54 -27 70 -29 28 -3 32 1 64 72 11 24 55 23 158 -1 95 -22 96 -22 131 -3
49 27 61 51 37 70 -11 8 -31 14 -46 14 -14 0 -41 8 -60 19 -35 18 -201 37
-227 25z"/>
<path d="M5050 550 c-8 -5 -25 -10 -38 -10 -15 0 -22 -5 -19 -12 4 -14 87 -19
87 -5 0 4 11 7 25 7 16 0 25 6 25 15 0 17 -56 21 -80 5z"/>
<path d="M1720 529 c0 -5 6 -9 14 -9 23 0 29 -20 12 -39 -20 -22 -20 -47 0
-55 9 -3 53 -6 99 -6 99 0 123 15 86 54 -33 35 -211 81 -211 55z"/>
<path d="M3555 500 c3 -5 11 -10 16 -10 6 0 7 5 4 10 -3 6 -11 10 -16 10 -6 0
-7 -4 -4 -10z"/>
<path d="M2195 420 c-4 -6 8 -10 29 -10 19 0 38 5 41 10 4 6 -8 10 -29 10 -19
0 -38 -4 -41 -10z"/>
<path d="M1590 399 c-30 -3 -68 -11 -85 -18 -27 -11 -28 -13 -11 -23 30 -17
185 -13 203 5 32 32 -11 46 -107 36z"/>
<path d="M2128 403 c7 -3 16 -2 19 1 4 3 -2 6 -13 5 -11 0 -14 -3 -6 -6z"/>
<path d="M2038 393 c7 -3 16 -2 19 1 4 3 -2 6 -13 5 -11 0 -14 -3 -6 -6z"/>
<path d="M4440 392 c0 -6 15 -15 34 -22 46 -15 70 -43 62 -73 -5 -23 -3 -24
90 -37 52 -7 97 -11 99 -8 3 2 6 15 7 28 3 20 -3 25 -37 32 -22 5 -72 24 -111
44 -75 37 -144 54 -144 36z"/>
<path d="M4720 382 c0 -13 55 -32 95 -32 17 0 40 7 51 15 17 13 14 14 -41 15
-33 0 -70 3 -82 6 -13 4 -23 2 -23 -4z"/>
<path d="M4215 313 c-114 -8 -80 -26 73 -39 117 -10 115 -26 -3 -36 -48 -5
-39 -33 10 -33 22 0 48 -4 58 -9 9 -4 28 -5 41 -2 18 4 25 14 28 42 4 34 2 36
-47 60 -29 13 -65 23 -81 22 -16 -1 -51 -3 -79 -5z"/>
<path d="M10200 300 c0 -5 -9 -10 -20 -10 -13 0 -20 -7 -20 -20 0 -13 -7 -20
-20 -20 -11 0 -20 -4 -20 -10 0 -5 -17 -10 -37 -11 -31 0 -34 -2 -18 -9 15 -6
7 -9 -31 -9 -52 -1 -144 -30 -96 -31 12 0 22 -4 22 -10 0 -5 -11 -10 -24 -10
-35 0 -56 -10 -56 -26 0 -8 -9 -14 -20 -14 -11 0 -20 -4 -20 -10 0 -5 -19 -10
-43 -10 -45 0 -87 -22 -87 -46 0 -9 -11 -14 -35 -14 -28 0 -35 -4 -35 -20 0
-20 7 -20 300 -20 l300 0 0 155 c0 148 -1 155 -20 155 -11 0 -20 -4 -20 -10z"/>
<path d="M3920 295 c0 -2 15 -12 33 -21 17 -9 45 -27 60 -40 24 -20 40 -24 95
-24 37 0 74 5 82 10 8 5 13 10 10 11 -3 0 -45 4 -95 8 -78 6 -94 11 -119 34
-25 23 -66 37 -66 22z"/>
</g>
</svg>
