<svg xmlns="http://www.w3.org/2000/svg" xmlns:xlink="http://www.w3.org/1999/xlink" width="83.497" height="83.498" viewBox="0 0 83.497 83.498">
  <defs>
    <linearGradient id="linear-gradient" x1="0.5" x2="0.5" y2="1" gradientUnits="objectBoundingBox">
      <stop offset="0" stop-color="#14aad5"/>
      <stop offset="1" stop-color="#38b6bf"/>
    </linearGradient>
  </defs>
  <g id="Group_2720" data-name="Group 2720" transform="translate(2288.338 -6490.807)">
    <path id="Path_3985" data-name="Path 3985" d="M2323.983,3699.451a41.749,41.749,0,1,0,41.748-41.748,41.749,41.749,0,0,0-41.748,41.748" transform="translate(-4612.321 2833.104)" fill="url(#linear-gradient)"/>
    <path id="Path_3986" data-name="Path 3986" d="M2353.02,3701.985c2.635,1.482,6.812,3.253,8.494,6.015a3.111,3.111,0,0,0-1.225.467c-1.54,1.09-2.952,1.988-2.952,1.988l-3.208,2.31a6.544,6.544,0,0,0-1.835,2.63h-5.154v5.133h33.748V3715.4h-5.151a3.945,3.945,0,0,1-.435-1.09c-.128-1.027-1.668-2.245-2.63-2.823s-2.824-1.155-3.465-1.6-1.668-1.733-2.631-1.733c-.144,0-.353-.017-.607-.043,1.742-3.742,7.275-6.059,10.684-7.977,4.107-2.309,11.293-9.5,9.881-9.93a20.232,20.232,0,0,0-16.3,2.808,16.18,16.18,0,0,0-6.877,8.857,13.65,13.65,0,0,0-5.065-5.73,16.637,16.637,0,0,0-13.4-2.31c-1.16.358,4.748,6.265,8.124,8.165" transform="translate(-4612.321 2833.104)" fill="#fff"/>
    <path id="Path_3987" data-name="Path 3987" d="M2360.174,3689c.244-.244.737-.147,1.1.215s.46.857.215,1.1-.737.147-1.1-.215-.46-.857-.215-1.1m1.353-.968c.173-.173.521-.1.778.152s.325.606.152.78-.521.1-.778-.153-.325-.6-.152-.779m1.026,4.134a4.324,4.324,0,0,0,4.324-4.324c0-3.795-4.324-9.47-4.324-9.47s-4.324,5.675-4.324,9.47a4.324,4.324,0,0,0,4.324,4.324" transform="translate(-4612.321 2833.104)" fill="#fff"/>
  </g>
</svg>
