<svg xmlns="http://www.w3.org/2000/svg" xmlns:xlink="http://www.w3.org/1999/xlink" width="83.497" height="83.498" viewBox="0 0 83.497 83.498">
  <defs>
    <linearGradient id="linear-gradient" x1="0.5" x2="0.5" y2="1" gradientUnits="objectBoundingBox">
      <stop offset="0" stop-color="#14aad5"/>
      <stop offset="1" stop-color="#38b6bf"/>
    </linearGradient>
  </defs>
  <g id="Group_2726" data-name="Group 2726" transform="translate(2055.737 -6632.886)">
    <path id="Path_9124" data-name="Path 9124" d="M2556.584,3841.532a41.749,41.749,0,1,0,41.748-41.75,41.748,41.748,0,0,0-41.748,41.75" transform="translate(-4612.321 2833.104)" fill="url(#linear-gradient)"/>
    <path id="Path_9125" data-name="Path 9125" d="M2577.269,3847.037a7.754,7.754,0,0,0,10.022.515,19.2,19.2,0,0,1,6.486-3.331,5.382,5.382,0,0,1-.822-3.722c-4.268.632-9.645-.207-13.275-6.581,0,0-5.865,1.748-4.742,8.738a7.677,7.677,0,0,0,2.25,4.3l.081.078" transform="translate(-4612.321 2833.104)" fill="#fff"/>
    <path id="Path_9126" data-name="Path 9126" d="M2597.207,3818.136a7.678,7.678,0,0,0-4.3,2.251c-.026.026-.051.053-.076.079a7.753,7.753,0,0,0-.517,10.023,19.486,19.486,0,0,1,3.235,6.141,5.38,5.38,0,0,1,2.753-.756,5.3,5.3,0,0,1,1.038.1c-.579-4.239.322-9.516,6.608-13.1,0,0-1.746-5.866-8.738-4.742" transform="translate(-4612.321 2833.104)" fill="#fff"/>
    <path id="Path_9127" data-name="Path 9127" d="M2600.985,3845.956a5.389,5.389,0,0,1-3.738.616c.724,4.318.017,9.884-6.527,13.612,0,0,1.746,5.867,8.738,4.742a7.683,7.683,0,0,0,4.3-2.25l.076-.081a7.752,7.752,0,0,0,.515-10.022,19.135,19.135,0,0,1-3.367-6.617" transform="translate(-4612.321 2833.104)" fill="#fff"/>
    <path id="Path_9128" data-name="Path 9128" d="M2619.478,3836.1l-.081-.076a7.752,7.752,0,0,0-10.022-.515,19.418,19.418,0,0,1-6.285,3.278,5.391,5.391,0,0,1,.447,3.8c4.295-.678,9.768.095,13.449,6.554,0,0,5.865-1.746,4.742-8.738a7.679,7.679,0,0,0-2.25-4.3" transform="translate(-4612.321 2833.104)" fill="#fff"/>
    <path id="Path_9129" data-name="Path 9129" d="M2601.5,3841.274a3.206,3.206,0,1,0-3.206,3.206,3.206,3.206,0,0,0,3.206-3.206" transform="translate(-4612.321 2833.104)" fill="#fff"/>
    <path id="Path_9130" data-name="Path 9130" d="M2617.157,3832.207a21.15,21.15,0,0,0-8.878-9.179,1.172,1.172,0,0,1-.543,1.354l-.706.4c0,.031,0,.037,0,.067a18.944,18.944,0,0,1,7.358,6.879,9.8,9.8,0,0,1,2.768.478" transform="translate(-4612.321 2833.104)" fill="#fff"/>
    <path id="Path_9131" data-name="Path 9131" d="M2615.48,3850.934l-.4-.705h-.065a18.926,18.926,0,0,1-6.864,7.348,9.782,9.782,0,0,1-.48,2.771,21.147,21.147,0,0,0,9.165-8.871,1.175,1.175,0,0,1-1.354-.544" transform="translate(-4612.321 2833.104)" fill="#fff"/>
    <path id="Path_9132" data-name="Path 9132" d="M2579.508,3850.858a21.169,21.169,0,0,0,8.878,9.176,1.177,1.177,0,0,1,.546-1.357l.7-.4c0-.03,0-.036,0-.065a18.94,18.94,0,0,1-7.358-6.88,9.957,9.957,0,0,1-2.768-.474" transform="translate(-4612.321 2833.104)" fill="#fff"/>
    <path id="Path_9133" data-name="Path 9133" d="M2589,3822.713a21.149,21.149,0,0,0-9.165,8.872,1.173,1.173,0,0,1,1.356.544l.4.7h.064a18.939,18.939,0,0,1,6.865-7.348,9.749,9.749,0,0,1,.479-2.771" transform="translate(-4612.321 2833.104)" fill="#fff"/>
    <path id="Path_9134" data-name="Path 9134" d="M2609.521,3832.837a10.123,10.123,0,0,1,2.135-.807,16.439,16.439,0,0,0-6.978-5.587,10.154,10.154,0,0,0-1.583,1.738,14.223,14.223,0,0,1,6.426,4.656" transform="translate(-4612.321 2833.104)" fill="#fff"/>
    <path id="Path_9135" data-name="Path 9135" d="M2591.976,3856.614a10.328,10.328,0,0,0,1.571-1.741,14.233,14.233,0,0,1-6.4-4.648,10.135,10.135,0,0,1-2.134.807,16.459,16.459,0,0,0,6.966,5.582" transform="translate(-4612.321 2833.104)" fill="#fff"/>
    <path id="Path_9136" data-name="Path 9136" d="M2611.681,3846.3a14.208,14.208,0,0,1-4.651,6.418,9.869,9.869,0,0,1,.815,2.129,16.458,16.458,0,0,0,5.576-6.968,10.017,10.017,0,0,0-1.74-1.579" transform="translate(-4612.321 2833.104)" fill="#fff"/>
    <path id="Path_9137" data-name="Path 9137" d="M2584.982,3836.765a14.226,14.226,0,0,1,4.651-6.419,9.84,9.84,0,0,1-.814-2.13,16.457,16.457,0,0,0-5.575,6.968,10.149,10.149,0,0,0,1.738,1.581" transform="translate(-4612.321 2833.104)" fill="#fff"/>
  </g>
</svg>
