<svg xmlns="http://www.w3.org/2000/svg" xmlns:xlink="http://www.w3.org/1999/xlink" width="83.497" height="83.498" viewBox="0 0 83.497 83.498">
  <defs>
    <linearGradient id="linear-gradient" x1="0.5" x2="0.5" y2="1" gradientUnits="objectBoundingBox">
      <stop offset="0" stop-color="#14aad5"/>
      <stop offset="1" stop-color="#38b6bf"/>
    </linearGradient>
  </defs>
  <g id="Group_2722" data-name="Group 2722" transform="translate(2056.455 -6490.807)">
    <path id="Path_9114" data-name="Path 9114" d="M2555.866,3699.451a41.749,41.749,0,1,0,41.749-41.748,41.75,41.75,0,0,0-41.749,41.748" transform="translate(-4612.321 2833.104)" fill="url(#linear-gradient)"/>
    <path id="Path_9115" data-name="Path 9115" d="M2602.724,3701.861l-.429-.1a104.11,104.11,0,0,0-16.839-2.432,106.556,106.556,0,0,0-14.758.114v2.07a103.627,103.627,0,0,1,14.33,1.477,100.1,100.1,0,0,1,10.646,2.461q-2.759,1.533-5.432,3.238-2.825-.708-5.687-1.259a85.178,85.178,0,0,0-8.5-1.2c-1.782-.156-3.571-.247-5.361-.262v1.921c1.689.179,3.369.429,5.037.738a82.459,82.459,0,0,1,8.068,1.933q1.252.368,2.5.768-2.022,1.422-3.981,2.943c-.014.01-.026.021-.039.031q-.957-.229-1.917-.436a69.043,69.043,0,0,0-9.664-1.384v1.806a66.483,66.483,0,0,1,8.851,2.217q-2.864,2.391-5.557,5h8.935q1.466-1.562,3.012-3.061a100.375,100.375,0,0,1,12.686-10.424,105.556,105.556,0,0,1,25.907-13.087v-.473a107.374,107.374,0,0,0-21.808,7.394" transform="translate(-4612.321 2833.104)" fill="#fff"/>
    <path id="Path_9116" data-name="Path 9116" d="M2624.531,3700.723v.81l-.124.038a46.779,46.779,0,0,0-7.742,3.269,63.467,63.467,0,0,0-7.13,4.409,83.334,83.334,0,0,0-6.569,5.2c-2.553,2.233-4.986,4.6-7.308,7.067h-6.238a112.823,112.823,0,0,1,11.545-9.595,86.058,86.058,0,0,1,7.267-4.707,65.932,65.932,0,0,1,7.752-3.832,47.957,47.957,0,0,1,8.218-2.588l.329-.068" transform="translate(-4612.321 2833.104)" fill="#fff"/>
    <path id="Path_9117" data-name="Path 9117" d="M2624.531,3706.811v.9a47.249,47.249,0,0,0-4.528,2.365,63.4,63.4,0,0,0-10.693,8.079q-1.757,1.627-3.412,3.356h-4.917c2.1-1.931,4.285-3.765,6.558-5.479a65.509,65.509,0,0,1,11.823-7.181,48.169,48.169,0,0,1,5.169-2.042" transform="translate(-4612.321 2833.104)" fill="#fff"/>
    <path id="Path_9118" data-name="Path 9118" d="M2595.713,3680.262a2.871,2.871,0,0,0-5.742,0v.348h5.742Z" transform="translate(-4612.321 2833.104)" fill="#fff"/>
    <path id="Path_9119" data-name="Path 9119" d="M2599.048,3683.072a2.459,2.459,0,0,0-3.008-2.4v2.7h3.008Z" transform="translate(-4612.321 2833.104)" fill="#fff"/>
    <path id="Path_9120" data-name="Path 9120" d="M2578.426,3688.641l4.9-2.422,5.011,2.326,3.342,5.137.294-.769-2.043-3.078-1.34-2.018-5.382-2.461-5.163,2.595-3.6,5.1.347.655Z" transform="translate(-4612.321 2833.104)" fill="#fff"/>
    <path id="Path_9121" data-name="Path 9121" d="M2599.385,3700.009h-.337v-16.278h-3.008v16.278h-.315q1.84.3,3.66.659Z" transform="translate(-4612.321 2833.104)" fill="#fff"/>
    <path id="Path_9122" data-name="Path 9122" d="M2579.694,3698.67V3694.2l1.62,2.686-1.058,1.789.263,0,.929-1.57.975,1.617.271.011-1.115-1.85,1.558-2.633v4.5l.314.012v-4.5l1.579,2.618-1.123,1.9.256.013,1-1.689,1.093,1.813.277.018-1.239-2.053,1.6-2.7v4.784q2.047.155,4.084.389v-6.025l-2.811-4.618-4.809-2.067-4.817,2.216-2.938,4.557v5.3c1.1-.034,2.2-.052,3.3-.052.265,0,.531,0,.8.007m7.125-4.81-1.658,2.8-1.691-2.8Zm-3.715,0-1.659,2.8-1.691-2.8Z" transform="translate(-4612.321 2833.104)" fill="#fff"/>
    <path id="Path_9123" data-name="Path 9123" d="M2595.713,3681.029h-5.742v8.054l2.505,3.774-.7,1.816-.35-.538v5.271q2.15.258,4.282.6Z" transform="translate(-4612.321 2833.104)" fill="#fff"/>
  </g>
</svg>
