<svg xmlns="http://www.w3.org/2000/svg" xmlns:xlink="http://www.w3.org/1999/xlink" width="83.498" height="83.497" viewBox="0 0 83.498 83.497">
  <defs>
    <linearGradient id="linear-gradient" x1="0.5" x2="0.5" y2="1" gradientUnits="objectBoundingBox">
      <stop offset="0" stop-color="#14aad5"/>
      <stop offset="1" stop-color="#38b6bf"/>
    </linearGradient>
  </defs>
  <g id="Group_2730" data-name="Group 2730" transform="translate(2054.209 -6780.743)">
    <path id="Path_4031" data-name="Path 4031" d="M2558.112,3989.388a41.749,41.749,0,1,0,41.749-41.749,41.748,41.748,0,0,0-41.749,41.749" transform="translate(-4612.321 2833.104)" fill="url(#linear-gradient)"/>
    <path id="Path_4032" data-name="Path 4032" d="M2623.831,3982.181a1.563,1.563,0,0,0-2.6-.653l-16.017,16.017a6.308,6.308,0,0,1-6.832,8.112.561.561,0,0,1-.327-.953l2.93-2.93-.632-3.542-3.542-.632-2.93,2.93a.561.561,0,0,1-.953-.327,6.308,6.308,0,0,1,8.112-6.832l17.723-17.723a1.881,1.881,0,0,0,.09-2.558,25.032,25.032,0,0,0-43.035,23.248,1.564,1.564,0,0,0,2.608.669l15.775-15.775a6.308,6.308,0,0,1,6.832-8.112.561.561,0,0,1,.327.953l-2.93,2.93.632,3.541,3.542.632,2.93-2.929a.561.561,0,0,1,.953.327,6.308,6.308,0,0,1-8.112,6.831l-17.554,17.554a1.879,1.879,0,0,0-.107,2.538,25.031,25.031,0,0,0,43.12-23.316" transform="translate(-4612.321 2833.104)" fill="#fff"/>
  </g>
</svg>
