<svg xmlns="http://www.w3.org/2000/svg" xmlns:xlink="http://www.w3.org/1999/xlink" width="83.498" height="83.475" viewBox="0 0 83.498 83.475">
  <defs>
    <linearGradient id="linear-gradient" x1="0.5" x2="0.5" y2="1" gradientUnits="objectBoundingBox">
      <stop offset="0" stop-color="#14aad5"/>
      <stop offset="1" stop-color="#38b6bf"/>
    </linearGradient>
  </defs>
  <g id="Group_2717" data-name="Group 2717" transform="translate(2171.397 -6343.023)">
    <path id="Path_3931" data-name="Path 3931" d="M2480.263,3509.919a41.75,41.75,0,1,0,2.819,0Z" transform="translate(-4611.321 2833.104)" fill="url(#linear-gradient)"/>
    <path id="Path_3932" data-name="Path 3932" d="M2481.673,3564.156a1.312,1.312,0,0,1,1.081.569l1.083,1.571.474-.688v-4.534a4.682,4.682,0,0,0,7.03-4.051v0a14.289,14.289,0,0,0-2.956-21.919,4.68,4.68,0,0,1-7.015-3.519,4.686,4.686,0,0,1-6.409,3.519,4.682,4.682,0,0,0-4.682,4.684,4.74,4.74,0,0,0,.056.727,37.309,37.309,0,0,1-4.076,11.948,4.68,4.68,0,0,0,5.746,4.56v0a4.682,4.682,0,0,0,7.639,3.63v5.448l.948-1.376a1.312,1.312,0,0,1,1.081-.569" transform="translate(-4611.321 2833.104)" fill="#fff"/>
    <path id="Path_3933" data-name="Path 3933" d="M2503.549,3565.3a.3.3,0,0,0-.488,0l-1.894,2.749h-.053l-1.892-2.75a.3.3,0,0,0-.488,0l-1.893,2.75h-.051l-1.892-2.749a.3.3,0,0,0-.245-.129.3.3,0,0,0-.244.129l-1.894,2.749h-.051l-1.893-2.749a.3.3,0,0,0-.488,0l-1.894,2.749h-.051l-1.894-2.749a.3.3,0,0,0-.244-.129.3.3,0,0,0-.245.129l-1.893,2.749h-.051l-1.894-2.749a.3.3,0,0,0-.488,0l-1.894,2.749h-.052l-1.893-2.749a.3.3,0,0,0-.244-.129.294.294,0,0,0-.244.129l-1.894,2.749h-.052l-1.893-2.749a.3.3,0,0,0-.489,0l-1.893,2.749h-.051l-1.894-2.749a.294.294,0,0,0-.244-.129.3.3,0,0,0-.244.129l-1.893,2.749h-.051l-1.892-2.75a.3.3,0,0,0-.489,0l-1.893,2.75h-.051l-1.894-2.749a.3.3,0,0,0-.488,0l-1.982,2.877a.3.3,0,0,0-.052.169v3.064a.3.3,0,0,0,.3.3h47.228a.3.3,0,0,0,.3-.3v-3.064a.3.3,0,0,0-.053-.169Z" transform="translate(-4611.321 2833.104)" fill="#fff"/>
  </g>
</svg>
