<svg xmlns="http://www.w3.org/2000/svg" xmlns:xlink="http://www.w3.org/1999/xlink" width="83.497" height="83.498" viewBox="0 0 83.497 83.498">
  <defs>
    <linearGradient id="linear-gradient" x1="0.5" x2="0.5" y2="1" gradientUnits="objectBoundingBox">
      <stop offset="0" stop-color="#14aad5"/>
      <stop offset="1" stop-color="#38b6bf"/>
    </linearGradient>
  </defs>
  <g id="Group_2724" data-name="Group 2724" transform="translate(2288.338 -6632.886)">
    <path id="Path_4018" data-name="Path 4018" d="M2323.983,3841.532a41.749,41.749,0,1,0,41.748-41.75,41.748,41.748,0,0,0-41.748,41.75" transform="translate(-4612.321 2833.104)" fill="url(#linear-gradient)"/>
    <path id="Path_4019" data-name="Path 4019" d="M2387.549,3859.543h-.909V3846.4a.277.277,0,0,0-.277-.277h-4.541a.278.278,0,0,0-.278.277v1.948a.277.277,0,0,1-.277.277h-3.016a.277.277,0,0,0-.278.278v3.2a.277.277,0,0,1-.277.277h-2.5a.279.279,0,0,0-.278.278v6.883h-1.891v-23.859a.277.277,0,0,0-.277-.277h-11.168a.277.277,0,0,0-.277.277v23.859h-2.992v-25.506h.8a.277.277,0,0,0,.277-.278v-1.275h19.939v.4a.277.277,0,0,0,.277.278h1.123v6.4h-1.593a.278.278,0,0,0-.278.278v4.348a.278.278,0,0,0,.278.278h4.348a.278.278,0,0,0,.278-.278v-4.348a.278.278,0,0,0-.278-.278h-1.592v-6.4h1.122a.277.277,0,0,0,.277-.278v-3.407a.277.277,0,0,0-.277-.278h-1.85l-24.373-9.106a.643.643,0,0,0-.44-.175.653.653,0,0,0-.577.355l-8.838,7.4h-3.084a.278.278,0,0,0-.278.278v6.469a.278.278,0,0,0,.278.278h3.408a.277.277,0,0,0,.277-.278v-1.929h7.08v1.275a.277.277,0,0,0,.278.278h.8v25.506h-2.785V3853.8a.337.337,0,0,0-.337-.338h-3.04V3848.8a.337.337,0,0,0-.338-.337h-4.1a.337.337,0,0,0-.337.337v10.74h-.851a.338.338,0,0,0-.338.338v2.927a.338.338,0,0,0,.338.337h43.635a.338.338,0,0,0,.338-.337v-2.927a.338.338,0,0,0-.338-.338m-31.849-32.6h-.8a.277.277,0,0,0-.278.277v2.655h-7.08v-1.193l8.161-6.829Zm1.306-5.53,22.325,8.342v.12h-19.939v-2.655a.277.277,0,0,0-.277-.277h-2.109Zm9.443,34.316a.28.28,0,0,1-.28.28h-2.434a.28.28,0,0,1-.281-.28v-2.434a.28.28,0,0,1,.281-.281h2.434a.28.28,0,0,1,.28.281Zm0-5.181a.28.28,0,0,1-.28.281h-2.434a.281.281,0,0,1-.281-.281v-2.434a.281.281,0,0,1,.281-.281h2.434a.28.28,0,0,1,.28.281Zm0-5.18a.28.28,0,0,1-.28.281h-2.434a.281.281,0,0,1-.281-.281v-2.434a.281.281,0,0,1,.281-.281h2.434a.281.281,0,0,1,.28.281Zm0-5.18a.28.28,0,0,1-.28.281h-2.434a.281.281,0,0,1-.281-.281v-2.434a.281.281,0,0,1,.281-.281h2.434a.28.28,0,0,1,.28.281Zm4.619,15.541a.281.281,0,0,1-.281.28h-2.434a.28.28,0,0,1-.281-.28v-2.434a.281.281,0,0,1,.281-.281h2.434a.281.281,0,0,1,.281.281Zm0-5.181a.281.281,0,0,1-.281.281h-2.434a.281.281,0,0,1-.281-.281v-2.434a.281.281,0,0,1,.281-.281h2.434a.281.281,0,0,1,.281.281Zm0-5.18a.281.281,0,0,1-.281.281h-2.434a.281.281,0,0,1-.281-.281v-2.434a.281.281,0,0,1,.281-.281h2.434a.282.282,0,0,1,.281.281Zm0-5.18a.281.281,0,0,1-.281.281h-2.434a.281.281,0,0,1-.281-.281v-2.434a.281.281,0,0,1,.281-.281h2.434a.281.281,0,0,1,.281.281Z" transform="translate(-4612.321 2833.104)" fill="#fff"/>
  </g>
</svg>
