<svg xmlns="http://www.w3.org/2000/svg" xmlns:xlink="http://www.w3.org/1999/xlink" width="83.497" height="83.498" viewBox="0 0 83.497 83.498">
  <defs>
    <linearGradient id="linear-gradient" x1="0.5" x2="0.5" y2="1" gradientUnits="objectBoundingBox">
      <stop offset="0" stop-color="#14aad5"/>
      <stop offset="1" stop-color="#38b6bf"/>
    </linearGradient>
  </defs>
  <g id="Group_2727" data-name="Group 2727" transform="translate(1939.795 -6632.886)">
    <path id="Path_4020" data-name="Path 4020" d="M2672.526,3841.532a41.749,41.749,0,1,0,41.749-41.75,41.748,41.748,0,0,0-41.749,41.75" transform="translate(-4612.321 2833.104)" fill="url(#linear-gradient)"/>
    <path id="Path_4021" data-name="Path 4021" d="M2730.641,3862.2v-29.887h-2.846v-4.6a2.657,2.657,0,0,0-2.657-2.656h-21.727a2.657,2.657,0,0,0-2.657,2.656v4.6h-2.846V3862.2h-2.325v2.04h37.383v-2.04Zm-9.275-34.99h.6v4.121h1.975v.5h-2.571Zm-3.375,0h2.5v.5h-1.9v1.461h1.8v.494h-1.8v1.666h2v.5h-2.6Zm-3.936,0h3.422v.507h-1.412v4.115h-.6v-4.115h-1.406Zm-2.153-.076a2.1,2.1,0,0,1,2.078,2.339,2.165,2.165,0,0,1-2.147,2.434,2.119,2.119,0,0,1-2.078-2.345,2.2,2.2,0,0,1,2.147-2.428m-6.343.076h.6v1.934h2.236v-1.934h.6v4.622h-.6v-2.167h-2.236v2.167h-.6Zm2.311,7.665h5.693v5.693h-5.693Zm5.693,12.808h-5.693v-5.693h5.693Zm-7.116,8.4h-5.693v-5.693h5.693Zm0-8.4h-5.693v-5.693h5.693Zm0-7.116h-5.693v-5.693h5.693Zm7.414,20.352h-5.991v-10.531h5.991Zm6.818,0h-5.991v-10.531h5.991Zm0-13.236h-5.693v-5.693h5.693Zm0-7.116h-5.693v-5.693h5.693Zm7.116,15.513H2722.1v-5.693h5.693Zm0-8.4H2722.1v-5.693h5.693Zm0-7.116H2722.1v-5.693h5.693Z" transform="translate(-4612.321 2833.104)" fill="#fff"/>
    <path id="Path_4022" data-name="Path 4022" d="M2711.868,3831.423c.945,0,1.481-.871,1.481-1.92,0-.919-.48-1.879-1.474-1.879s-1.482.912-1.482,1.927c0,.987.535,1.872,1.475,1.872" transform="translate(-4612.321 2833.104)" fill="#fff"/>
    <path id="Path_4023" data-name="Path 4023" d="M2707.95,3818.82l.745,1.509,1.665.242-1.2,1.174.284,1.658-1.489-.783-1.489.783.284-1.658-1.2-1.174,1.665-.242Z" transform="translate(-4612.321 2833.104)" fill="#fff"/>
    <path id="Path_4024" data-name="Path 4024" d="M2714.274,3818.82l.745,1.509,1.665.242-1.2,1.174.284,1.658-1.489-.783-1.489.783.284-1.658-1.2-1.174,1.665-.242Z" transform="translate(-4612.321 2833.104)" fill="#fff"/>
    <path id="Path_4025" data-name="Path 4025" d="M2720.6,3818.82l.745,1.509,1.665.242-1.2,1.174.284,1.658-1.489-.783-1.489.783.284-1.658-1.2-1.174,1.665-.242Z" transform="translate(-4612.321 2833.104)" fill="#fff"/>
  </g>
</svg>
