<svg xmlns="http://www.w3.org/2000/svg" xmlns:xlink="http://www.w3.org/1999/xlink" width="83.497" height="83.497" viewBox="0 0 83.497 83.497">
  <defs>
    <linearGradient id="linear-gradient" x1="0.5" x2="0.5" y2="1" gradientUnits="objectBoundingBox">
      <stop offset="0" stop-color="#14aad5"/>
      <stop offset="1" stop-color="#38b6bf"/>
    </linearGradient>
  </defs>
  <g id="Group_2731" data-name="Group 2731" transform="translate(1938.266 -6780.743)">
    <path id="Path_4033" data-name="Path 4033" d="M2674.055,3989.388a41.749,41.749,0,1,0,41.748-41.749,41.748,41.748,0,0,0-41.748,41.749" transform="translate(-4612.321 2833.104)" fill="url(#linear-gradient)"/>
    <path id="Path_4034" data-name="Path 4034" d="M2736.6,3975.572h-3.73v25.094h3.73a3.777,3.777,0,0,0,3.47-4.037v-16.975c0-2.235-1.546-4.082-3.47-4.082" transform="translate(-4612.321 2833.104)" fill="#fff"/>
    <path id="Path_4035" data-name="Path 4035" d="M2701.246,3979.8l-2.188,4.162v8.357l2.188,4.21h1.438l3.574,4.146v-25.069l-3.574,4.194Z" transform="translate(-4612.321 2833.104)" fill="#fff"/>
    <path id="Path_4036" data-name="Path 4036" d="M2697.271,3986.07a1.088,1.088,0,0,0-1.043,1.062h-4.693v2.068h4.693a1.14,1.14,0,0,0,1.043,1.037,1.167,1.167,0,0,0,1.059-1.26v-1.671a1.145,1.145,0,0,0-1.059-1.236" transform="translate(-4612.321 2833.104)" fill="#fff"/>
    <path id="Path_4037" data-name="Path 4037" d="M2706.986,4000.666h25.158v-25.094h-25.158Zm22.67-1.692h-20.139a.857.857,0,0,1,0-1.692h20.139a.857.857,0,0,1,0,1.692m0-3.289h-20.139a.857.857,0,0,1,0-1.692h20.139a.857.857,0,0,1,0,1.692m0-3.384h-20.139a.857.857,0,0,1,0-1.692h20.139a.857.857,0,0,1,0,1.692m-20.14-15.037h20.139a.857.857,0,0,1,0,1.691h-20.139a.857.857,0,0,1,0-1.691m0,3.383h20.139a.8.8,0,0,1,0,1.6h-20.139a.8.8,0,0,1,0-1.6m0,3.289h20.139a.857.857,0,0,1,0,1.692h-20.139a.857.857,0,0,1,0-1.692m0,3.384h20.139a.857.857,0,0,1,0,1.692h-20.139a.857.857,0,0,1,0-1.692" transform="translate(-4612.321 2833.104)" fill="#fff"/>
    <path id="Path_4038" data-name="Path 4038" d="M2724.944,3972.212a1.5,1.5,0,0,0-1.365-1.622h-7.988a1.527,1.527,0,0,0-1.406,1.622v2.514h10.759Zm-5.359,1.716a1.176,1.176,0,0,1-1.079-1.253,1.4,1.4,0,0,1,.107-.54l1.436,1.67a.948.948,0,0,1-.464.123m.973-.714-1.437-1.669a.945.945,0,0,1,.464-.124,1.176,1.176,0,0,1,1.079,1.254,1.422,1.422,0,0,1-.106.539" transform="translate(-4612.321 2833.104)" fill="#fff"/>
    <path id="Path_4039" data-name="Path 4039" d="M2730.962,4004c-.134-.006-.392-.024-.391-.024-3.518-.311-4.23-2.465-4.861-2.465h-12.25c-.654,0-1.394,2.319-5.272,2.492a.537.537,0,0,0-.474.565v3.052a.532.532,0,0,0,.493.564h22.756a.5.5,0,0,0,.453-.564v-3.052a.524.524,0,0,0-.454-.568" transform="translate(-4612.321 2833.104)" fill="#fff"/>
  </g>
</svg>
