<svg xmlns="http://www.w3.org/2000/svg" xmlns:xlink="http://www.w3.org/1999/xlink" width="83.498" height="83.475" viewBox="0 0 83.498 83.475">
  <defs>
    <linearGradient id="linear-gradient" x1="0.5" x2="0.5" y2="1" gradientUnits="objectBoundingBox">
      <stop offset="0" stop-color="#14aad5"/>
      <stop offset="1" stop-color="#38b6bf"/>
    </linearGradient>
    <linearGradient id="linear-gradient-2" x1="30.253" y1="-967.818" x2="30.299" y2="-967.818" gradientUnits="objectBoundingBox">
      <stop offset="0" stop-color="#30aec0"/>
      <stop offset="0.322" stop-color="#2cacc2"/>
      <stop offset="0.584" stop-color="#22a9c8"/>
      <stop offset="0.825" stop-color="#11a4d3"/>
      <stop offset="1" stop-color="#009fdf"/>
    </linearGradient>
    <linearGradient id="linear-gradient-3" x1="24.928" y1="-799.678" x2="24.966" y2="-799.678" xlink:href="#linear-gradient-2"/>
    <linearGradient id="linear-gradient-4" x1="49.631" y1="-879.677" x2="49.79" y2="-879.677" xlink:href="#linear-gradient-2"/>
    <linearGradient id="linear-gradient-5" x1="45.226" y1="-1038.819" x2="45.4" y2="-1038.819" xlink:href="#linear-gradient-2"/>
    <linearGradient id="linear-gradient-6" x1="51.984" y1="-879.677" x2="52.143" y2="-879.677" xlink:href="#linear-gradient-2"/>
    <linearGradient id="linear-gradient-7" x1="50.809" y1="-1038.819" x2="50.984" y2="-1038.819" xlink:href="#linear-gradient-2"/>
    <linearGradient id="linear-gradient-8" x1="38.279" y1="-1176.082" x2="38.472" y2="-1176.082" xlink:href="#linear-gradient-2"/>
  </defs>
  <g id="Group_2719" data-name="Group 2719" transform="translate(1940.514 -6343.023)">
    <path id="Path_3957" data-name="Path 3957" d="M2712.147,3509.919a41.748,41.748,0,1,0,2.819,0Z" transform="translate(-4612.321 2833.104)" fill="url(#linear-gradient)"/>
    <path id="Path_3958" data-name="Path 3958" d="M2704.683,3563.947a.955.955,0,0,1-.929.979h-3.677a.954.954,0,0,1-.928-.979l.654-25.961a.955.955,0,0,1,.929-.98h2.368a.955.955,0,0,1,.928.98Z" transform="translate(-4612.321 2833.104)" fill="#fff"/>
    <path id="Path_3959" data-name="Path 3959" d="M2720,3557.339a.756.756,0,0,1-.8.7h-3.159a.756.756,0,0,1-.8-.7l.562-18.692a.756.756,0,0,1,.8-.705h2.033a.755.755,0,0,1,.8.705Z" transform="translate(-4612.321 2833.104)" fill="#fff"/>
    <path id="Path_3960" data-name="Path 3960" d="M2725.784,3558.877a.68.68,0,0,1-.718.635h-2.842a.68.68,0,0,1-.718-.635l.506-16.823a.68.68,0,0,1,.718-.635h1.83a.679.679,0,0,1,.717.635Z" transform="translate(-4612.321 2833.104)" fill="#fff"/>
    <path id="Path_3961" data-name="Path 3961" d="M2709.655,3572.187l-16.62-.779v-18.641l16.62-1.991Z" transform="translate(-4612.321 2833.104)" fill="#fff"/>
    <path id="Path_3962" data-name="Path 3962" d="M2709.655,3573.16l-16.62-.779V3553.74l16.62-1.991Z" transform="translate(-4612.321 2833.104)" fill="#fff"/>
    <rect id="Rectangle_162" data-name="Rectangle 162" width="16.621" height="2.57" transform="translate(-1919.287 6390.101)" fill="url(#linear-gradient-2)"/>
    <path id="Path_3963" data-name="Path 3963" d="M2693.034,3558.068v1.5l16.621-.857V3557Z" transform="translate(-4612.321 2833.104)" fill="none"/>
    <path id="Path_3964" data-name="Path 3964" d="M2729.867,3570.2l-20.212,1.991v-21.411l20.212,3.783Z" transform="translate(-4612.321 2833.104)" fill="#fff"/>
    <path id="Path_3965" data-name="Path 3965" d="M2729.867,3571.176l-20.212,1.991v-21.411l20.212,3.783Z" transform="translate(-4612.321 2833.104)" fill="#fff"/>
    <rect id="Rectangle_164" data-name="Rectangle 164" width="20.211" height="3.004" transform="translate(-1902.667 6390.101)" fill="url(#linear-gradient-3)"/>
    <path id="Path_3966" data-name="Path 3966" d="M2709.655,3558.71l20.211,1.291v-1.055L2709.655,3557Z" transform="translate(-4612.321 2833.104)" fill="none"/>
    <rect id="Rectangle_165" data-name="Rectangle 165" width="4.765" height="2.783" transform="translate(-1899.477 6395.456)" fill="url(#linear-gradient-4)"/>
    <path id="Path_3967" data-name="Path 3967" d="M2712.844,3565.135h4.765v-2.569l-4.765-.214Z" transform="translate(-4612.321 2833.104)" fill="none"/>
    <rect id="Rectangle_166" data-name="Rectangle 166" width="4.344" height="2.431" transform="translate(-1893.001 6395.739)" fill="url(#linear-gradient-5)"/>
    <path id="Path_3968" data-name="Path 3968" d="M2719.32,3565.066h4.344v-2.322l-4.344-.109Z" transform="translate(-4612.321 2833.104)" fill="none"/>
    <rect id="Rectangle_167" data-name="Rectangle 167" width="4.764" height="2.783" transform="translate(-1910.653 6395.456)" fill="url(#linear-gradient-6)"/>
    <path id="Path_3969" data-name="Path 3969" d="M2701.668,3562.566v2.569h4.764v-2.783Z" transform="translate(-4612.321 2833.104)" fill="none"/>
    <rect id="Rectangle_168" data-name="Rectangle 168" width="4.345" height="2.431" transform="translate(-1917.294 6395.739)" fill="url(#linear-gradient-7)"/>
    <path id="Path_3970" data-name="Path 3970" d="M2695.027,3562.744v2.322h4.345v-2.431Z" transform="translate(-4612.321 2833.104)" fill="none"/>
    <rect id="Rectangle_169" data-name="Rectangle 169" width="3.923" height="2.199" transform="translate(-1887.44 6395.902)" fill="url(#linear-gradient-8)"/>
    <path id="Path_3971" data-name="Path 3971" d="M2724.881,3565h3.923v-2.078l-3.923-.121Z" transform="translate(-4612.321 2833.104)" fill="none"/>
    <path id="Path_3972" data-name="Path 3972" d="M2700.989,3534.016c-.671.418-.307,1.6.216,1.873a2.076,2.076,0,0,0,2.064-.1,2.946,2.946,0,0,0,.811-1.092,1.518,1.518,0,0,0,2.033-.223,1,1,0,0,0,1.636-.054,1.9,1.9,0,0,0,1.814,1.074,2.165,2.165,0,0,0,1.627-.8,1.767,1.767,0,0,0,1.2.024,1.81,1.81,0,0,0,1.058.3,1.327,1.327,0,0,0,1.074-.478,3.088,3.088,0,0,0,.814.048,1.673,1.673,0,0,0,1.327-1.168,1.262,1.262,0,0,0,.821-.612,1.61,1.61,0,0,0-.558-1.985,2.017,2.017,0,0,0-1.624-.187,1.6,1.6,0,0,0-1.676-.045,1.971,1.971,0,0,0-2.563.05,1.76,1.76,0,0,0-1.137.1,1.709,1.709,0,0,0-2.705.073,1.473,1.473,0,0,0-1.586-.1,1.871,1.871,0,0,0-2.306-.05,1.947,1.947,0,0,0-.933,1.881,1.55,1.55,0,0,0-1.035.4,1.359,1.359,0,0,0-.37,1.06" transform="translate(-4612.321 2833.104)" fill="#fff"/>
    <path id="Path_3973" data-name="Path 3973" d="M2717.084,3535.72c-.489.3-.224,1.166.158,1.366a1.513,1.513,0,0,0,1.5-.075,2.14,2.14,0,0,0,.591-.8,1.107,1.107,0,0,0,1.482-.163.731.731,0,0,0,1.193-.039,1.386,1.386,0,0,0,1.322.783,1.578,1.578,0,0,0,1.187-.581,1.28,1.28,0,0,0,.873.018,1.31,1.31,0,0,0,.771.221.961.961,0,0,0,.783-.348,2.23,2.23,0,0,0,.594.035,1.219,1.219,0,0,0,.967-.851.922.922,0,0,0,.6-.446,1.173,1.173,0,0,0-.407-1.448,1.474,1.474,0,0,0-1.183-.136,1.166,1.166,0,0,0-1.222-.033,1.409,1.409,0,0,0-.915-.327,1.4,1.4,0,0,0-.953.364,1.31,1.31,0,0,0-.3-.037,1.271,1.271,0,0,0-.527.113,1.245,1.245,0,0,0-1.972.053,1.072,1.072,0,0,0-1.156-.075,1.365,1.365,0,0,0-1.682-.037,1.421,1.421,0,0,0-.68,1.372,1.13,1.13,0,0,0-.754.294.991.991,0,0,0-.27.773" transform="translate(-4612.321 2833.104)" fill="#fff"/>
    <path id="Path_3974" data-name="Path 3974" d="M2723.162,3539.517c-.441.274-.2,1.05.142,1.229a1.362,1.362,0,0,0,1.354-.067,1.93,1.93,0,0,0,.532-.717.994.994,0,0,0,1.333-.146.659.659,0,0,0,1.075-.035,1.247,1.247,0,0,0,1.189.705,1.423,1.423,0,0,0,1.068-.524,1.157,1.157,0,0,0,.786.016,1.177,1.177,0,0,0,.694.2.871.871,0,0,0,.705-.313,2.018,2.018,0,0,0,.534.031,1.1,1.1,0,0,0,.87-.766.827.827,0,0,0,.539-.4,1.055,1.055,0,0,0-.366-1.3,1.324,1.324,0,0,0-1.065-.123,1.048,1.048,0,0,0-1.1-.029,1.294,1.294,0,0,0-1.682.032,1.2,1.2,0,0,0-.272-.032,1.145,1.145,0,0,0-.474.1,1.119,1.119,0,0,0-1.774.048.968.968,0,0,0-1.041-.068,1.228,1.228,0,0,0-1.513-.033,1.28,1.28,0,0,0-.613,1.234,1.02,1.02,0,0,0-.678.265.89.89,0,0,0-.243.7" transform="translate(-4612.321 2833.104)" fill="#fff"/>
  </g>
</svg>
