<svg xmlns="http://www.w3.org/2000/svg" xmlns:xlink="http://www.w3.org/1999/xlink" width="83.498" height="83.498" viewBox="0 0 83.498 83.498">
  <defs>
    <linearGradient id="linear-gradient" x1="0.5" x2="0.5" y2="1" gradientUnits="objectBoundingBox">
      <stop offset="0" stop-color="#14aad5"/>
      <stop offset="1" stop-color="#38b6bf"/>
    </linearGradient>
  </defs>
  <g id="Group_2723" data-name="Group 2723" transform="translate(1940.514 -6490.807)">
    <path id="Path_3998" data-name="Path 3998" d="M2671.807,3699.451a41.749,41.749,0,1,0,41.75-41.748,41.751,41.751,0,0,0-41.75,41.748" transform="translate(-4612.321 2833.104)" fill="url(#linear-gradient)"/>
    <path id="Path_3999" data-name="Path 3999" d="M2734.885,3716.823c-2-.711-5.042-1.867-7.276-2.671-1.635-.588-2.609,1.262-2.59,3,.02,1.677.634,3.3,2.59,3.3h7.29c1.73,0,1.992-2.911-.014-3.624" transform="translate(-4612.321 2833.104)" fill="#fff"/>
    <path id="Path_4000" data-name="Path 4000" d="M2736.135,3709.211l-4.213-2.218v-5.16l-3.681-1.8h-5.968l-1.172,5.519.57-4.7-3.012-6.3a8.272,8.272,0,0,0-4.108-4.3c-.393-.13-1.358-.454-2.3-.775l1.6.217-5.164-4.089-.254.32-4.5-3.562-1.038-2.712-2.167,11.855,1.677-13.054h-2.047a2.035,2.035,0,0,0-2.023,1.814l-2.192,21.511,3.387.626h-6.494a7.109,7.109,0,0,0,.817,10.984h.018l1.243.894.868-.894,1.244.894.867-.894,1.245.894.868-.894,1.243.894.868-.894,1.245.894.866-.894,1.245.894.868-.894c-3.353-3.924-1.868-10.3-1.868-10.3l-.28-.2-.107.1a9.87,9.87,0,0,0-2.751,5.267,7.288,7.288,0,0,1,2.181-5.853h-2.2l2.645-18.817,3.764,2.98-.253.321,2.292,1.815-5.446-1.769-.578,4.727,7.424,4.5a10.425,10.425,0,0,1,3.822,4.9l2.162,5.653h-5.031l-1.729,1.73v3.516l9.376.654h-9.376l2.238.775a4.171,4.171,0,0,1,1.894.205c.552.256,1.671.986,2.714,1.626-1.019-.377-2.025-.749-2.905-1.067-1.635-.587-2.609,1.261-2.59,3,.019,1.678.634,3.3,2.59,3.3h8.362l-.011,0c.033,0,.067,0,.1,0h2.407a4.451,4.451,0,0,1-1.182-3.289,4.683,4.683,0,0,1,1.042-3.118l-2.911,0c-1.243.035-1.964,1.611-1.946,3.107a4.359,4.359,0,0,0,.556,2.258,3.632,3.632,0,0,1-1.271-3.361c.317-1.808,1.453-2.788,2.638-2.821l4.782,0,0,0a2.568,2.568,0,0,1,.8.156c1.063.382,6.018,2.234,6.018,2.234l2.232,0-4.839-1.69,4.839,1.038Zm-22.207-13.315c-1.566-1.212-5.385-3.391-5.5-3.458a24.039,24.039,0,0,1,5.772,3.058,14.194,14.194,0,0,1,2.916,4.147,17.837,17.837,0,0,0-3.186-3.747m12.493,10.731v2.211h-4.75l0-2.039,1.263-5.946h4.715Zm4.682-.037-3.452-1.683.817-3.847,2.635,1.283Z" transform="translate(-4612.321 2833.104)" fill="#fff"/>
    <path id="Path_4001" data-name="Path 4001" d="M2711.115,3717.16a4.689,4.689,0,0,1,1.042-3.118h-2.911c-1.243.036-1.962,1.613-1.946,3.107.02,1.678.635,3.3,2.589,3.3h2.408a4.445,4.445,0,0,1-1.182-3.288" transform="translate(-4612.321 2833.104)" fill="#fff"/>
  </g>
</svg>
