<svg xmlns="http://www.w3.org/2000/svg" xmlns:xlink="http://www.w3.org/1999/xlink" width="83.498" height="83.498" viewBox="0 0 83.498 83.498">
  <defs>
    <linearGradient id="linear-gradient" x1="0.5" x2="0.5" y2="1" gradientUnits="objectBoundingBox">
      <stop offset="0" stop-color="#14aad5"/>
      <stop offset="1" stop-color="#38b6bf"/>
    </linearGradient>
    <linearGradient id="linear-gradient-2" x1="28.171" y1="-73.935" x2="28.198" y2="-73.935" gradientUnits="objectBoundingBox">
      <stop offset="0" stop-color="#30aec0"/>
      <stop offset="0.322" stop-color="#2cacc2"/>
      <stop offset="0.584" stop-color="#22a9c8"/>
      <stop offset="0.825" stop-color="#11a4d3"/>
      <stop offset="1" stop-color="#009fdf"/>
    </linearGradient>
  </defs>
  <g id="Group_2721" data-name="Group 2721" transform="translate(2172.397 -6490.807)">
    <path id="Path_3988" data-name="Path 3988" d="M2439.924,3699.451a41.749,41.749,0,1,0,41.748-41.748,41.749,41.749,0,0,0-41.748,41.748" transform="translate(-4612.321 2833.104)" fill="url(#linear-gradient)"/>
    <path id="Path_3989" data-name="Path 3989" d="M2495.455,3713.579h-18.5c-.908,3.6-1.735,6.1-1.735,6.1h21.973s-.829-2.507-1.736-6.1" transform="translate(-4612.321 2833.104)" fill="#fff"/>
    <path id="Path_3990" data-name="Path 3990" d="M2493.768,3705.429a47.945,47.945,0,0,1-.627-7.2h-13.875a48.074,48.074,0,0,1-.627,7.2Z" transform="translate(-4612.321 2833.104)" fill="#fff"/>
    <rect id="Rectangle_177" data-name="Rectangle 177" width="27.466" height="26.811" transform="translate(-2151.056 6526.845)" fill="url(#linear-gradient-2)"/>
    <path id="Path_3991" data-name="Path 3991" d="M2466.326,3693.741c0,11.492-5.061,26.811-5.061,26.811h27.466s-5.061-15.319-5.061-26.811Z" transform="translate(-4612.321 2833.104)" fill="none"/>
    <path id="Path_3992" data-name="Path 3992" d="M2484.453,3702.735a59.948,59.948,0,0,1-.784-8.994h-17.343a59.953,59.953,0,0,1-.785,8.994Z" transform="translate(-4612.321 2833.104)" fill="#fff"/>
    <path id="Path_3993" data-name="Path 3993" d="M2486.561,3712.922h-23.127c-1.134,4.5-2.17,7.629-2.17,7.629h27.467s-1.036-3.133-2.17-7.629" transform="translate(-4612.321 2833.104)" fill="#fff"/>
    <rect id="Rectangle_178" data-name="Rectangle 178" width="14.435" height="2.288" transform="translate(-2133.335 6530.326)" fill="#fff"/>
    <path id="Path_3994" data-name="Path 3994" d="M2502.081,3689.9s-.3,6.176-5.334,5.6c-3.049-.348-7.688-3.119-10.734.664.74-4.311,4.024-5.495,7.684-4.589,2.143.53,6.351,2.966,8.384-1.676" transform="translate(-4612.321 2833.104)" fill="#fff"/>
    <path id="Path_3995" data-name="Path 3995" d="M2501.833,3687.108s-.236,4.941-4.268,4.481c-2.439-.279-5.293-2.687-7.771-.61,1.5-3.136,3.279-3.279,6.329-2.3,1.68.539,3.245,1.834,5.71-1.57" transform="translate(-4612.321 2833.104)" fill="#fff"/>
    <rect id="Rectangle_179" data-name="Rectangle 179" width="18.044" height="2.86" transform="translate(-2146.345 6524.099)" fill="#fff"/>
    <path id="Path_3996" data-name="Path 3996" d="M2494.844,3681.847s-.368,7.721-6.668,7c-3.811-.435-9.609-3.9-13.417.831.924-5.39,5.03-6.869,9.6-5.737,2.678.662,7.938,3.707,10.48-2.095" transform="translate(-4612.321 2833.104)" fill="#fff"/>
    <path id="Path_3997" data-name="Path 3997" d="M2494.534,3678.352s-.295,6.176-5.335,5.6c-3.048-.349-6.616-3.358-9.714-.762,1.875-3.921,4.1-4.1,7.911-2.876,2.1.674,4.058,2.292,7.138-1.963" transform="translate(-4612.321 2833.104)" fill="#fff"/>
  </g>
</svg>
