<svg xmlns="http://www.w3.org/2000/svg" xmlns:xlink="http://www.w3.org/1999/xlink" width="83.497" height="83.475" viewBox="0 0 83.497 83.475">
  <defs>
    <linearGradient id="linear-gradient" x1="0.5" x2="0.5" y2="1" gradientUnits="objectBoundingBox">
      <stop offset="0" stop-color="#14aad5"/>
      <stop offset="1" stop-color="#38b6bf"/>
    </linearGradient>
  </defs>
  <g id="Group_2718" data-name="Group 2718" transform="translate(2056.455 -6343.023)">
    <path id="Path_3934" data-name="Path 3934" d="M2596.206,3509.919a41.748,41.748,0,1,0,2.818,0Z" transform="translate(-4612.321 2833.104)" fill="url(#linear-gradient)"/>
    <path id="Path_3935" data-name="Path 3935" d="M2592.8,3561.458l1.822,2.647,1.821-2.647a1.545,1.545,0,0,1,2.541,0l1.822,2.647,1.822-2.647a1.546,1.546,0,0,1,.393-.393v-13.7a.373.373,0,0,0-.373-.373h-2.889v-4.412h2.889a.373.373,0,0,0,.373-.373v-4.535a.374.374,0,0,0-.373-.373h-10.067a.374.374,0,0,0-.373.373v4.535a.373.373,0,0,0,.373.373h2.891V3547h-2.891a.373.373,0,0,0-.373.373v13.584a1.513,1.513,0,0,1,.592.506" transform="translate(-4612.321 2833.104)" fill="#fff"/>
    <path id="Path_3936" data-name="Path 3936" d="M2616.267,3561.909a.421.421,0,0,0-.35.184l-2.707,3.929h-.074l-2.705-3.929a.422.422,0,0,0-.7,0l-2.707,3.929h-.074l-2.706-3.929a.424.424,0,0,0-.7,0l-2.707,3.929h-.072l-2.707-3.929a.422.422,0,0,0-.7,0l-2.707,3.929h-.073l-2.707-3.929a.422.422,0,0,0-.7,0l-2.707,3.929h-.072l-2.705-3.929a.423.423,0,0,0-.7,0l-2.705,3.929h-.074l-2.707-3.929a.422.422,0,0,0-.7,0l-2.834,4.113a.419.419,0,0,0-.074.24v4.381a.425.425,0,0,0,.423.424h42.991v-5.229l-2.707-3.929a.419.419,0,0,0-.348-.184" transform="translate(-4612.321 2833.104)" fill="#fff"/>
    <path id="Path_3937" data-name="Path 3937" d="M2608.744,3539.8a1.3,1.3,0,1,0,1.3,1.3,1.3,1.3,0,0,0-1.3-1.3" transform="translate(-4612.321 2833.104)" fill="#fff"/>
    <path id="Path_3938" data-name="Path 3938" d="M2613.255,3535.917a1.526,1.526,0,1,0,1.525,1.525,1.529,1.529,0,0,0-1.525-1.525" transform="translate(-4612.321 2833.104)" fill="#fff"/>
    <path id="Path_3939" data-name="Path 3939" d="M2617.765,3535.54a1.751,1.751,0,1,0-1.752-1.75,1.753,1.753,0,0,0,1.752,1.75" transform="translate(-4612.321 2833.104)" fill="#fff"/>
    <path id="Path_3940" data-name="Path 3940" d="M2617.765,3543a1.752,1.752,0,1,0,1.752,1.752,1.755,1.755,0,0,0-1.752-1.752" transform="translate(-4612.321 2833.104)" fill="#fff"/>
    <path id="Path_3941" data-name="Path 3941" d="M2613.255,3543.226a1.526,1.526,0,1,0,1.525,1.525,1.528,1.528,0,0,0-1.525-1.525" transform="translate(-4612.321 2833.104)" fill="#fff"/>
    <path id="Path_3942" data-name="Path 3942" d="M2608.744,3543.45a1.3,1.3,0,1,0,1.3,1.3,1.3,1.3,0,0,0-1.3-1.3" transform="translate(-4612.321 2833.104)" fill="#fff"/>
    <path id="Path_3943" data-name="Path 3943" d="M2604.232,3543.677a1.075,1.075,0,1,0,1.076,1.074,1.075,1.075,0,0,0-1.076-1.074" transform="translate(-4612.321 2833.104)" fill="#fff"/>
    <path id="Path_3944" data-name="Path 3944" d="M2608.744,3547.1a1.3,1.3,0,1,0,1.3,1.3,1.3,1.3,0,0,0-1.3-1.3" transform="translate(-4612.321 2833.104)" fill="#fff"/>
    <path id="Path_3945" data-name="Path 3945" d="M2613.255,3550.532a1.526,1.526,0,1,0,1.525,1.527,1.529,1.529,0,0,0-1.525-1.527" transform="translate(-4612.321 2833.104)" fill="#fff"/>
    <path id="Path_3946" data-name="Path 3946" d="M2617.765,3553.962a1.752,1.752,0,1,0,1.752,1.752,1.754,1.754,0,0,0-1.752-1.752" transform="translate(-4612.321 2833.104)" fill="#fff"/>
    <path id="Path_3947" data-name="Path 3947" d="M2586.486,3539.8a1.3,1.3,0,1,1-1.3,1.3,1.3,1.3,0,0,1,1.3-1.3" transform="translate(-4612.321 2833.104)" fill="#fff"/>
    <path id="Path_3948" data-name="Path 3948" d="M2581.976,3535.917a1.526,1.526,0,1,1-1.527,1.525,1.527,1.527,0,0,1,1.527-1.525" transform="translate(-4612.321 2833.104)" fill="#fff"/>
    <path id="Path_3949" data-name="Path 3949" d="M2577.464,3535.54a1.751,1.751,0,1,1,1.752-1.75,1.753,1.753,0,0,1-1.752,1.75" transform="translate(-4612.321 2833.104)" fill="#fff"/>
    <path id="Path_3950" data-name="Path 3950" d="M2577.464,3543a1.752,1.752,0,1,1-1.752,1.752,1.754,1.754,0,0,1,1.752-1.752" transform="translate(-4612.321 2833.104)" fill="#fff"/>
    <path id="Path_3951" data-name="Path 3951" d="M2581.976,3543.226a1.526,1.526,0,1,1-1.527,1.525,1.526,1.526,0,0,1,1.527-1.525" transform="translate(-4612.321 2833.104)" fill="#fff"/>
    <path id="Path_3952" data-name="Path 3952" d="M2586.486,3543.45a1.3,1.3,0,1,1-1.3,1.3,1.3,1.3,0,0,1,1.3-1.3" transform="translate(-4612.321 2833.104)" fill="#fff"/>
    <path id="Path_3953" data-name="Path 3953" d="M2591,3543.677a1.075,1.075,0,1,1-1.074,1.074,1.074,1.074,0,0,1,1.074-1.074" transform="translate(-4612.321 2833.104)" fill="#fff"/>
    <path id="Path_3954" data-name="Path 3954" d="M2586.486,3547.1a1.3,1.3,0,1,1-1.3,1.3,1.3,1.3,0,0,1,1.3-1.3" transform="translate(-4612.321 2833.104)" fill="#fff"/>
    <path id="Path_3955" data-name="Path 3955" d="M2581.976,3550.532a1.526,1.526,0,1,1-1.527,1.527,1.527,1.527,0,0,1,1.527-1.527" transform="translate(-4612.321 2833.104)" fill="#fff"/>
    <path id="Path_3956" data-name="Path 3956" d="M2577.464,3553.962a1.752,1.752,0,1,1-1.752,1.752,1.753,1.753,0,0,1,1.752-1.752" transform="translate(-4612.321 2833.104)" fill="#fff"/>
  </g>
</svg>
